<svg width="240" height="21" viewBox="0 0 240 21" fill="none" xmlns="http://www.w3.org/2000/svg">
<path d="M28.665 15.625L26.0968 6.89773H27.8525L29.5627 13.3068H29.6479L31.3638 6.89773H33.1195L34.824 13.2784H34.9093L36.6081 6.89773H38.3638L35.8013 15.625H34.0684L32.2956 9.32386H32.165L30.3922 15.625H28.665ZM41.8681 15.625L39.2999 6.89773H41.0556L42.7658 13.3068H42.851L44.5669 6.89773H46.3226L48.0272 13.2784H48.1124L49.8113 6.89773H51.5669L49.0044 15.625H47.2715L45.4988 9.32386H45.3681L43.5953 15.625H41.8681ZM55.0712 15.625L52.503 6.89773H54.2587L55.9689 13.3068H56.0542L57.7701 6.89773H59.5257L61.2303 13.2784H61.3155L63.0144 6.89773H64.7701L62.2076 15.625H60.4746L58.7019 9.32386H58.5712L56.7985 15.625H55.0712ZM66.3141 15.733C66.0035 15.733 65.7364 15.6231 65.513 15.4034C65.2895 15.1799 65.1777 14.911 65.1777 14.5966C65.1777 14.286 65.2895 14.0208 65.513 13.8011C65.7364 13.5777 66.0035 13.4659 66.3141 13.4659C66.6247 13.4659 66.8917 13.5777 67.1152 13.8011C67.3387 14.0208 67.4505 14.286 67.4505 14.5966C67.4505 14.8049 67.3974 14.9962 67.2914 15.1705C67.1891 15.3409 67.0527 15.4773 66.8823 15.5795C66.7118 15.6818 66.5224 15.733 66.3141 15.733ZM72.2658 15.8182C71.7128 15.8182 71.2128 15.7159 70.7658 15.5114C70.3188 15.303 69.9647 15.0019 69.7033 14.608C69.4457 14.214 69.3169 13.7311 69.3169 13.1591C69.3169 12.6667 69.4116 12.2614 69.601 11.9432C69.7904 11.625 70.0461 11.3731 70.3681 11.1875C70.69 11.0019 71.0499 10.8617 71.4476 10.767C71.8453 10.6723 72.2507 10.6004 72.6635 10.5511C73.1863 10.4905 73.6105 10.4413 73.9363 10.4034C74.262 10.3617 74.4988 10.2955 74.6465 10.2045C74.7942 10.1136 74.8681 9.96591 74.8681 9.76136V9.72159C74.8681 9.22538 74.7279 8.84091 74.4476 8.56818C74.1711 8.29545 73.7582 8.15909 73.209 8.15909C72.637 8.15909 72.1863 8.28598 71.8567 8.53977C71.531 8.78977 71.3056 9.06818 71.1806 9.375L69.584 9.01136C69.7734 8.48106 70.0499 8.05303 70.4135 7.72727C70.781 7.39773 71.2033 7.15909 71.6806 7.01136C72.1578 6.85985 72.6597 6.78409 73.1863 6.78409C73.5347 6.78409 73.9041 6.82576 74.2942 6.90909C74.6882 6.98864 75.0556 7.13636 75.3965 7.35227C75.7412 7.56818 76.0234 7.87689 76.2431 8.27841C76.4628 8.67614 76.5726 9.19318 76.5726 9.82955V15.625H74.9135V14.4318H74.8453C74.7355 14.6515 74.5707 14.8674 74.351 15.0795C74.1313 15.2917 73.8491 15.4678 73.5044 15.608C73.1597 15.7481 72.7469 15.8182 72.2658 15.8182ZM72.6351 14.4545C73.1048 14.4545 73.5063 14.3617 73.8397 14.1761C74.1768 13.9905 74.4325 13.7481 74.6067 13.4489C74.7847 13.1458 74.8738 12.822 74.8738 12.4773V11.3523C74.8132 11.4129 74.6957 11.4697 74.5215 11.5227C74.351 11.572 74.156 11.6155 73.9363 11.6534C73.7166 11.6875 73.5025 11.7197 73.2942 11.75C73.0859 11.7765 72.9116 11.7992 72.7715 11.8182C72.4419 11.8598 72.1408 11.9299 71.8681 12.0284C71.5991 12.1269 71.3832 12.2689 71.2203 12.4545C71.0613 12.6364 70.9817 12.8788 70.9817 13.1818C70.9817 13.6023 71.137 13.9205 71.4476 14.1364C71.7582 14.3485 72.1541 14.4545 72.6351 14.4545ZM80.5343 3.98864V15.625H78.8354V3.98864H80.5343ZM86.4959 15.8011C85.6777 15.8011 84.9637 15.6136 84.3539 15.2386C83.744 14.8636 83.2705 14.339 82.9334 13.6648C82.5963 12.9905 82.4277 12.2027 82.4277 11.3011C82.4277 10.3958 82.5963 9.60417 82.9334 8.92614C83.2705 8.24811 83.744 7.72159 84.3539 7.34659C84.9637 6.97159 85.6777 6.78409 86.4959 6.78409C87.3141 6.78409 88.0281 6.97159 88.638 7.34659C89.2478 7.72159 89.7213 8.24811 90.0584 8.92614C90.3955 9.60417 90.5641 10.3958 90.5641 11.3011C90.5641 12.2027 90.3955 12.9905 90.0584 13.6648C89.7213 14.339 89.2478 14.8636 88.638 15.2386C88.0281 15.6136 87.3141 15.8011 86.4959 15.8011ZM86.5016 14.375C87.0319 14.375 87.4713 14.2348 87.8198 13.9545C88.1683 13.6742 88.4258 13.3011 88.5925 12.8352C88.763 12.3693 88.8482 11.8561 88.8482 11.2955C88.8482 10.7386 88.763 10.2273 88.5925 9.76136C88.4258 9.29167 88.1683 8.91477 87.8198 8.63068C87.4713 8.34659 87.0319 8.20455 86.5016 8.20455C85.9675 8.20455 85.5243 8.34659 85.1721 8.63068C84.8236 8.91477 84.5641 9.29167 84.3936 9.76136C84.227 10.2273 84.1436 10.7386 84.1436 11.2955C84.1436 11.8561 84.227 12.3693 84.3936 12.8352C84.5641 13.3011 84.8236 13.6742 85.1721 13.9545C85.5243 14.2348 85.9675 14.375 86.5016 14.375ZM94.0229 12.6648L94.0115 10.5909H94.307L97.7843 6.89773H99.8184L95.8525 11.1023H95.5854L94.0229 12.6648ZM92.4604 15.625V3.98864H94.1593V15.625H92.4604ZM97.9718 15.625L94.8468 11.4773L96.0172 10.2898L100.057 15.625H97.9718ZM102.487 18.8977C102.234 18.8977 102.003 18.8769 101.794 18.8352C101.586 18.7973 101.431 18.7557 101.328 18.7102L101.737 17.3182C102.048 17.4015 102.325 17.4375 102.567 17.4261C102.809 17.4148 103.023 17.3239 103.209 17.1534C103.398 16.983 103.565 16.7045 103.709 16.3182L103.919 15.7386L100.726 6.89773H102.544L104.754 13.6705H104.845L107.056 6.89773H108.879L105.283 16.7898C105.116 17.2443 104.904 17.6288 104.646 17.9432C104.389 18.2614 104.082 18.5 103.726 18.6591C103.37 18.8182 102.957 18.8977 102.487 18.8977ZM112.766 15.8182C112.213 15.8182 111.713 15.7159 111.266 15.5114C110.819 15.303 110.465 15.0019 110.203 14.608C109.946 14.214 109.817 13.7311 109.817 13.1591C109.817 12.6667 109.912 12.2614 110.101 11.9432C110.29 11.625 110.546 11.3731 110.868 11.1875C111.19 11.0019 111.55 10.8617 111.948 10.767C112.345 10.6723 112.751 10.6004 113.164 10.5511C113.686 10.4905 114.11 10.4413 114.436 10.4034C114.762 10.3617 114.999 10.2955 115.146 10.2045C115.294 10.1136 115.368 9.96591 115.368 9.76136V9.72159C115.368 9.22538 115.228 8.84091 114.948 8.56818C114.671 8.29545 114.258 8.15909 113.709 8.15909C113.137 8.15909 112.686 8.28598 112.357 8.53977C112.031 8.78977 111.806 9.06818 111.681 9.375L110.084 9.01136C110.273 8.48106 110.55 8.05303 110.914 7.72727C111.281 7.39773 111.703 7.15909 112.181 7.01136C112.658 6.85985 113.16 6.78409 113.686 6.78409C114.035 6.78409 114.404 6.82576 114.794 6.90909C115.188 6.98864 115.556 7.13636 115.896 7.35227C116.241 7.56818 116.523 7.87689 116.743 8.27841C116.963 8.67614 117.073 9.19318 117.073 9.82955V15.625H115.414V14.4318H115.345C115.235 14.6515 115.071 14.8674 114.851 15.0795C114.631 15.2917 114.349 15.4678 114.004 15.608C113.66 15.7481 113.247 15.8182 112.766 15.8182ZM113.135 14.4545C113.605 14.4545 114.006 14.3617 114.34 14.1761C114.677 13.9905 114.932 13.7481 115.107 13.4489C115.285 13.1458 115.374 12.822 115.374 12.4773V11.3523C115.313 11.4129 115.196 11.4697 115.021 11.5227C114.851 11.572 114.656 11.6155 114.436 11.6534C114.217 11.6875 114.003 11.7197 113.794 11.75C113.586 11.7765 113.412 11.7992 113.271 11.8182C112.942 11.8598 112.641 11.9299 112.368 12.0284C112.099 12.1269 111.883 12.2689 111.72 12.4545C111.561 12.6364 111.482 12.8788 111.482 13.1818C111.482 13.6023 111.637 13.9205 111.948 14.1364C112.258 14.3485 112.654 14.4545 113.135 14.4545ZM122.602 15.7955C121.898 15.7955 121.269 15.6155 120.716 15.2557C120.167 14.892 119.735 14.375 119.421 13.7045C119.11 13.0303 118.955 12.2216 118.955 11.2784C118.955 10.3352 119.112 9.52841 119.426 8.85795C119.744 8.1875 120.18 7.67424 120.733 7.31818C121.286 6.96212 121.913 6.78409 122.614 6.78409C123.155 6.78409 123.591 6.875 123.921 7.05682C124.254 7.23485 124.512 7.44318 124.693 7.68182C124.879 7.92045 125.023 8.13068 125.125 8.3125H125.227V3.98864H126.926V15.625H125.267V14.267H125.125C125.023 14.4527 124.875 14.6648 124.682 14.9034C124.493 15.142 124.231 15.3504 123.898 15.5284C123.565 15.7064 123.133 15.7955 122.602 15.7955ZM122.977 14.3466C123.466 14.3466 123.879 14.2178 124.216 13.9602C124.557 13.6989 124.815 13.3371 124.989 12.875C125.167 12.4129 125.256 11.875 125.256 11.2614C125.256 10.6553 125.169 10.125 124.994 9.67045C124.82 9.21591 124.565 8.86174 124.227 8.60795C123.89 8.35417 123.474 8.22727 122.977 8.22727C122.466 8.22727 122.04 8.35985 121.699 8.625C121.358 8.89015 121.101 9.25189 120.926 9.71023C120.756 10.1686 120.671 10.6856 120.671 11.2614C120.671 11.8447 120.758 12.3693 120.932 12.8352C121.106 13.3011 121.364 13.6705 121.705 13.9432C122.049 14.2121 122.474 14.3466 122.977 14.3466ZM133.112 15.8011C132.253 15.8011 131.512 15.6174 130.891 15.25C130.273 14.8788 129.796 14.358 129.459 13.6875C129.126 13.0133 128.959 12.2235 128.959 11.3182C128.959 10.4242 129.126 9.63636 129.459 8.95455C129.796 8.27273 130.266 7.74053 130.868 7.35795C131.474 6.97538 132.182 6.78409 132.993 6.78409C133.485 6.78409 133.963 6.86553 134.425 7.02841C134.887 7.19129 135.302 7.44697 135.669 7.79545C136.037 8.14394 136.326 8.59659 136.539 9.15341C136.751 9.70644 136.857 10.3788 136.857 11.1705V11.7727H129.919V10.5H135.192C135.192 10.053 135.101 9.6572 134.919 9.3125C134.737 8.96402 134.482 8.68939 134.152 8.48864C133.826 8.28788 133.444 8.1875 133.004 8.1875C132.527 8.1875 132.11 8.30492 131.754 8.53977C131.402 8.77083 131.129 9.07386 130.936 9.44886C130.747 9.82008 130.652 10.2235 130.652 10.6591V11.6534C130.652 12.2367 130.754 12.733 130.959 13.142C131.167 13.5511 131.457 13.8636 131.828 14.0795C132.2 14.2917 132.633 14.3977 133.129 14.3977C133.451 14.3977 133.745 14.3523 134.01 14.2614C134.275 14.1667 134.504 14.0265 134.698 13.8409C134.891 13.6553 135.039 13.4261 135.141 13.1534L136.749 13.4432C136.62 13.9167 136.389 14.3314 136.056 14.6875C135.726 15.0398 135.311 15.3144 134.811 15.5114C134.315 15.7045 133.749 15.8011 133.112 15.8011ZM142.503 15.8011C141.643 15.8011 140.903 15.6174 140.281 15.25C139.664 14.8788 139.187 14.358 138.85 13.6875C138.516 13.0133 138.35 12.2235 138.35 11.3182C138.35 10.4242 138.516 9.63636 138.85 8.95455C139.187 8.27273 139.656 7.74053 140.259 7.35795C140.865 6.97538 141.573 6.78409 142.384 6.78409C142.876 6.78409 143.353 6.86553 143.816 7.02841C144.278 7.19129 144.692 7.44697 145.06 7.79545C145.427 8.14394 145.717 8.59659 145.929 9.15341C146.141 9.70644 146.247 10.3788 146.247 11.1705V11.7727H139.31V10.5H144.583C144.583 10.053 144.492 9.6572 144.31 9.3125C144.128 8.96402 143.872 8.68939 143.543 8.48864C143.217 8.28788 142.834 8.1875 142.395 8.1875C141.918 8.1875 141.501 8.30492 141.145 8.53977C140.793 8.77083 140.52 9.07386 140.327 9.44886C140.137 9.82008 140.043 10.2235 140.043 10.6591V11.6534C140.043 12.2367 140.145 12.733 140.35 13.142C140.558 13.5511 140.848 13.8636 141.219 14.0795C141.59 14.2917 142.024 14.3977 142.52 14.3977C142.842 14.3977 143.136 14.3523 143.401 14.2614C143.666 14.1667 143.895 14.0265 144.088 13.8409C144.281 13.6553 144.429 13.4261 144.531 13.1534L146.139 13.4432C146.011 13.9167 145.78 14.3314 145.446 14.6875C145.117 15.0398 144.702 15.3144 144.202 15.5114C143.706 15.7045 143.139 15.8011 142.503 15.8011ZM148.132 18.8977V6.89773H149.791V8.3125H149.933C150.032 8.13068 150.174 7.92045 150.36 7.68182C150.545 7.44318 150.803 7.23485 151.132 7.05682C151.462 6.875 151.897 6.78409 152.439 6.78409C153.144 6.78409 153.772 6.96212 154.325 7.31818C154.878 7.67424 155.312 8.1875 155.627 8.85795C155.945 9.52841 156.104 10.3352 156.104 11.2784C156.104 12.2216 155.947 13.0303 155.632 13.7045C155.318 14.375 154.886 14.892 154.337 15.2557C153.788 15.6155 153.161 15.7955 152.456 15.7955C151.926 15.7955 151.492 15.7064 151.155 15.5284C150.822 15.3504 150.56 15.142 150.371 14.9034C150.182 14.6648 150.036 14.4527 149.933 14.267H149.831V18.8977H148.132ZM149.797 11.2614C149.797 11.875 149.886 12.4129 150.064 12.875C150.242 13.3371 150.5 13.6989 150.837 13.9602C151.174 14.2178 151.587 14.3466 152.075 14.3466C152.583 14.3466 153.007 14.2121 153.348 13.9432C153.689 13.6705 153.947 13.3011 154.121 12.8352C154.299 12.3693 154.388 11.8447 154.388 11.2614C154.388 10.6856 154.301 10.1686 154.127 9.71023C153.956 9.25189 153.699 8.89015 153.354 8.625C153.013 8.35985 152.587 8.22727 152.075 8.22727C151.583 8.22727 151.166 8.35417 150.825 8.60795C150.488 8.86174 150.233 9.21591 150.058 9.67045C149.884 10.125 149.797 10.6553 149.797 11.2614ZM159.127 15.733C158.816 15.733 158.549 15.6231 158.325 15.4034C158.102 15.1799 157.99 14.911 157.99 14.5966C157.99 14.286 158.102 14.0208 158.325 13.8011C158.549 13.5777 158.816 13.4659 159.127 13.4659C159.437 13.4659 159.704 13.5777 159.928 13.8011C160.151 14.0208 160.263 14.286 160.263 14.5966C160.263 14.8049 160.21 14.9962 160.104 15.1705C160.002 15.3409 159.865 15.4773 159.695 15.5795C159.524 15.6818 159.335 15.733 159.127 15.733ZM166.215 15.8011C165.37 15.8011 164.643 15.6098 164.033 15.2273C163.427 14.8409 162.961 14.3087 162.635 13.6307C162.309 12.9527 162.146 12.1761 162.146 11.3011C162.146 10.4148 162.313 9.63258 162.646 8.95455C162.98 8.27273 163.45 7.74053 164.056 7.35795C164.662 6.97538 165.376 6.78409 166.198 6.78409C166.86 6.78409 167.451 6.9072 167.97 7.15341C168.489 7.39583 168.908 7.73674 169.226 8.17614C169.548 8.61553 169.739 9.12879 169.8 9.71591H168.146C168.056 9.30682 167.847 8.95455 167.521 8.65909C167.2 8.36364 166.768 8.21591 166.226 8.21591C165.753 8.21591 165.338 8.34091 164.982 8.59091C164.629 8.83712 164.355 9.18939 164.158 9.64773C163.961 10.1023 163.862 10.6402 163.862 11.2614C163.862 11.8977 163.959 12.447 164.152 12.9091C164.345 13.3712 164.618 13.7292 164.97 13.983C165.326 14.2367 165.745 14.3636 166.226 14.3636C166.548 14.3636 166.84 14.3049 167.101 14.1875C167.366 14.0663 167.588 13.8939 167.766 13.6705C167.948 13.447 168.075 13.178 168.146 12.8636H169.8C169.739 13.428 169.556 13.9318 169.249 14.375C168.942 14.8182 168.531 15.1667 168.016 15.4205C167.504 15.6742 166.904 15.8011 166.215 15.8011ZM175.293 15.8011C174.475 15.8011 173.761 15.6136 173.151 15.2386C172.541 14.8636 172.067 14.339 171.73 13.6648C171.393 12.9905 171.225 12.2027 171.225 11.3011C171.225 10.3958 171.393 9.60417 171.73 8.92614C172.067 8.24811 172.541 7.72159 173.151 7.34659C173.761 6.97159 174.475 6.78409 175.293 6.78409C176.111 6.78409 176.825 6.97159 177.435 7.34659C178.045 7.72159 178.518 8.24811 178.855 8.92614C179.192 9.60417 179.361 10.3958 179.361 11.3011C179.361 12.2027 179.192 12.9905 178.855 13.6648C178.518 14.339 178.045 14.8636 177.435 15.2386C176.825 15.6136 176.111 15.8011 175.293 15.8011ZM175.298 14.375C175.829 14.375 176.268 14.2348 176.617 13.9545C176.965 13.6742 177.223 13.3011 177.389 12.8352C177.56 12.3693 177.645 11.8561 177.645 11.2955C177.645 10.7386 177.56 10.2273 177.389 9.76136C177.223 9.29167 176.965 8.91477 176.617 8.63068C176.268 8.34659 175.829 8.20455 175.298 8.20455C174.764 8.20455 174.321 8.34659 173.969 8.63068C173.62 8.91477 173.361 9.29167 173.191 9.76136C173.024 10.2273 172.941 10.7386 172.941 11.2955C172.941 11.8561 173.024 12.3693 173.191 12.8352C173.361 13.3011 173.62 13.6742 173.969 13.9545C174.321 14.2348 174.764 14.375 175.298 14.375ZM181.257 15.625V6.89773H182.888V8.31818H182.996C183.178 7.83712 183.475 7.46212 183.888 7.19318C184.301 6.92045 184.795 6.78409 185.371 6.78409C185.954 6.78409 186.443 6.92045 186.837 7.19318C187.235 7.46591 187.528 7.84091 187.718 8.31818H187.808C188.017 7.85227 188.348 7.48106 188.803 7.20455C189.257 6.92424 189.799 6.78409 190.428 6.78409C191.219 6.78409 191.865 7.0322 192.365 7.52841C192.869 8.02462 193.121 8.77273 193.121 9.77273V15.625H191.422V9.93182C191.422 9.34091 191.261 8.91288 190.939 8.64773C190.617 8.38258 190.233 8.25 189.786 8.25C189.233 8.25 188.803 8.42045 188.496 8.76136C188.189 9.09848 188.036 9.5322 188.036 10.0625V15.625H186.343V9.82386C186.343 9.35038 186.195 8.9697 185.899 8.68182C185.604 8.39394 185.219 8.25 184.746 8.25C184.424 8.25 184.127 8.33523 183.854 8.50568C183.585 8.67235 183.367 8.9053 183.2 9.20455C183.038 9.50379 182.956 9.85038 182.956 10.2443V15.625H181.257Z" fill="#2E3092"/>
<path d="M10.6792 18.9587C15.5944 18.9587 19.579 15.2277 19.579 10.6253C19.579 6.02295 15.5944 2.29199 10.6792 2.29199C5.7639 2.29199 1.7793 6.02295 1.7793 10.6253C1.7793 15.2277 5.7639 18.9587 10.6792 18.9587Z" stroke="#2E3092" stroke-width="2" stroke-linecap="round" stroke-linejoin="round"/>
<path d="M1.7793 10.625H19.579" stroke="#2E3092" stroke-width="2" stroke-linecap="round" stroke-linejoin="round"/>
<path d="M10.6791 2.29199C12.9052 4.57395 14.1703 7.53535 14.239 10.6253C14.1703 13.7153 12.9052 16.6767 10.6791 18.9587C8.45298 16.6767 7.18789 13.7153 7.11914 10.6253C7.18789 7.53535 8.45298 4.57395 10.6791 2.29199Z" stroke="#2E3092" stroke-width="2" stroke-linecap="round" stroke-linejoin="round"/>
</svg>
