<svg width="386" height="16" viewBox="0 0 386 16" fill="none" xmlns="http://www.w3.org/2000/svg">
<path d="M293.37 1.30683C294.831 1.82036 296.252 2.31554 297.832 2.86575C298.898 2.57231 300.043 2.40726 300.596 2.0588C303.952 -0.0136397 308.611 -0.38047 313.309 0.334797C318.284 1.08674 323.023 0.683287 327.958 0.683287C333.841 0.683287 339.843 0.316483 345.766 1.41689C350.069 2.22386 355.123 2.64568 358.361 0.316483C360.849 0.738307 362.981 1.45356 365.113 1.39854C368.114 1.34351 368.745 2.70071 370.917 2.93914C373.089 3.17756 375.339 3.30594 378.893 3.58104C377.116 2.70071 376.326 2.29722 375.497 1.8754C379.525 1.50859 382.249 2.79239 386 3.50765C385.013 3.8928 384.539 4.25961 383.947 4.29629C379.998 4.53471 376.208 4.99322 372.852 6.03861C370.956 6.62549 368.903 6.66216 366.811 6.35038C363.731 5.89188 360.77 6.03861 357.532 6.22201C352.399 6.51545 347.147 6.36875 341.936 6.33207C339.369 6.31373 336.803 6.09364 334.315 5.96526C334.078 5.69016 333.96 5.47005 333.762 5.24997C333.012 4.51636 331.749 4.31464 331.077 4.80982C330.406 5.30501 329.972 5.87356 329.34 6.51547C323.694 6.57049 318.206 6.62547 312.717 6.66215C309.558 6.68049 306.4 6.60713 303.281 6.75385C300.161 6.90058 297.595 6.49713 295.384 5.50676C296.015 5.56178 296.647 5.61678 297.279 5.6718C297.279 5.65346 297.279 5.65347 297.279 5.63513C296.647 5.58011 296.015 5.54342 295.423 5.4884C295.344 6.11197 294.239 6.44211 293.291 6.24037C290.172 5.6168 287.21 5.94692 284.131 6.24037C280.301 6.58883 276.352 6.80888 272.443 6.90058C264.586 7.12067 256.729 7.21239 248.832 7.37745C246.818 7.41413 245.199 7.12068 244.291 5.94691C241.488 7.12068 238.447 7.30409 235.249 7.19405C229.484 6.97396 223.72 6.97395 218.034 7.90929C217.323 7.41411 216.731 7.02898 216.02 6.55214C214.007 6.84558 211.875 7.2674 209.703 7.41412C207.65 7.56084 205.399 7.21237 203.464 7.45079C195.765 8.44116 187.789 7.85426 180.011 8.49617C178.747 8.60621 177.405 8.47783 176.102 8.40447C173.733 8.25775 171.522 8.45952 169.153 8.66126C164.02 9.11976 158.768 9.24812 153.556 9.50488C149.924 9.66994 146.252 9.81666 142.619 9.96338C142.106 9.98172 141.553 10.0918 141.079 10.0551C130.063 9.30314 119.284 11.1739 108.268 10.7337C97.8045 11.9442 86.8674 11.0271 76.4041 12.2009C75.8908 12.2559 75.338 12.2559 74.8247 12.2559C70.0866 12.1275 65.5459 12.5127 60.8868 12.8795C42.803 14.2917 24.5218 14.9336 6.20117 15.0986C5.41148 15.0986 4.62179 15.172 3.87159 15.0986C1.66047 14.9152 -0.313723 13.7231 0.0416355 12.6961C0.475962 11.3756 1.0682 10.0734 1.54201 8.86297C2.21324 8.62455 2.6081 8.38614 3.04243 8.3678C9.83372 8.03767 16.704 7.30406 23.3768 7.57916C29.5363 7.83592 35.301 7.45081 41.1842 7.01064C42.7241 6.9006 44.3034 6.99228 45.8828 6.93726C47.9359 6.88224 50.1076 6.93726 52.0423 6.66215C59.5444 5.5434 66.4541 6.16698 73.6402 8.00099C77.9045 6.35038 82.7611 4.90152 89.0786 6.31371C90.579 5.5801 91.9609 4.9015 93.6193 4.09453C94.8828 4.35129 96.0672 4.55306 97.1333 4.80982C100.095 5.54343 102.701 5.32335 104.912 4.16792L104.833 4.14956C107.518 4.5347 110.203 4.90152 113.006 5.305C113.519 4.66309 113.954 4.1129 114.585 3.34261C116.678 3.47099 118.968 3.50768 121.1 3.76444C123.588 4.05789 125.68 4.05787 127.339 3.01248C127.339 2.99414 128.01 3.19587 128.365 3.32425C128.444 3.45263 128.523 3.58101 128.602 3.69106C128.681 3.78276 128.76 3.87446 128.839 3.96616C128.681 3.72774 128.523 3.50765 128.365 3.26922C131.445 3.72773 133.972 3.2876 135.67 2.11383C138.75 2.46229 138.236 3.7094 139.263 4.47969C140.684 5.54342 142.501 6.00193 145.501 5.63513C144.554 5.26833 143.725 5.02991 143.132 4.68145C142.224 4.13125 142.619 3.25091 143.804 3.15921C146.883 2.90245 149.963 2.71905 153.082 2.57233C155.649 2.44395 158.61 2.7557 160.782 2.26051C164.02 1.50857 166.941 1.63698 169.784 2.20553C172.351 2.71905 174.759 2.77407 177.405 2.57233C179.458 2.42561 181.63 2.42558 183.683 2.59065C186.644 2.81073 189.329 2.82909 192.053 2.11383C193.317 1.80205 195.094 1.9304 196.634 1.85704C197.897 1.78368 199.318 1.82038 200.464 1.60029C203.701 0.958389 207.136 1.08677 210.414 0.774987C217.442 0.0964014 223.68 1.08674 230.156 1.89371C231.854 2.09545 234.144 2.26053 235.447 1.91207C237.737 1.2885 239.987 1.83872 242.159 1.50859C244.094 1.21515 246.186 1.16014 248.082 1.01342C249.503 1.78371 250.648 2.59065 252.188 3.14085C253.017 3.43429 254.912 3.471 255.741 3.21424C256.373 3.0125 256.097 2.16885 256.255 1.56362C261.23 0.940058 264.941 3.03082 269.522 3.37928C270.193 2.49895 268.89 2.46226 268.14 2.16881C267.626 1.96707 267.271 1.65532 266.916 1.41689C267.192 1.23349 267.31 1.08677 267.468 1.05009C269.877 0.463205 272.009 1.28851 274.299 1.32519C276.55 1.36187 278.919 0.756638 281.09 0.90336C284.249 1.12344 287.131 1.34352 290.211 0.719958C290.961 0.573237 292.462 1.17846 293.646 1.45356L293.37 1.30683ZM210.769 4.88317C212.467 4.40632 214.204 3.94784 215.862 3.43431C216.139 3.34261 216.139 3.04914 216.376 2.71902C214.954 2.31553 213.73 1.60027 211.638 2.44392C211.401 3.19586 211.124 4.00286 210.848 4.80982C210.65 4.82816 210.414 4.88317 210.216 4.88317C210.058 4.86483 209.94 4.77314 209.782 4.71812C210.137 4.7548 210.453 4.80981 210.769 4.88317ZM306.558 2.5173C311.493 4.7548 311.967 4.91987 316.626 5.69016C317.021 5.76352 317.692 5.45171 318.995 5.15827C316.745 4.84649 315.165 4.75481 313.941 4.40635C312.678 4.02121 311.849 3.34259 310.664 2.86575C309.519 2.3889 308.216 1.89374 306.558 2.5173ZM185.973 4.73644C180.129 3.58101 180.011 3.58101 173.93 4.73644C176.694 4.73644 178.392 4.73644 180.05 4.73644C182.024 4.73644 183.999 4.73644 185.973 4.73644ZM360.375 5.04825C364.521 5.1583 362.507 3.56269 363.81 3.06751C363.849 3.04917 363.376 2.75573 362.783 2.29723C361.915 3.26926 361.243 4.05789 360.375 5.04825ZM328.077 2.38893C328.037 2.49897 327.958 2.62734 327.919 2.73738C329.064 2.90244 330.169 3.08583 331.354 3.23255C331.433 3.25089 331.749 3.06751 331.788 2.97581C331.828 2.88411 331.749 2.66403 331.63 2.66403C330.446 2.55399 329.261 2.48063 328.077 2.38893ZM156.597 4.31465C155.925 4.90153 155.254 5.21329 155.373 5.43337C155.57 5.72681 156.281 6.09363 156.873 6.13031C157.307 6.16699 158.373 5.69016 158.294 5.50676C158.176 5.1583 157.465 4.86485 156.597 4.31465ZM308.019 1.21513C309.598 1.3802 310.309 1.50857 311.019 1.52691C311.375 1.54525 311.77 1.36188 312.164 1.28852C311.73 1.19682 311.335 1.01342 310.901 1.01342C310.23 0.976738 309.559 1.08675 308.019 1.21513ZM284.131 3.28758C284.328 3.23256 284.526 3.17754 284.723 3.10418C284.447 2.93912 284.21 2.77406 283.933 2.64568C283.894 2.62734 283.538 2.7557 283.341 2.81072C283.617 2.97578 283.894 3.14086 284.131 3.28758ZM353.544 4.36963C353.307 4.38797 353.07 4.38801 352.833 4.40635C352.952 4.57141 353.07 4.7181 353.189 4.88317C353.386 4.80981 353.662 4.75481 353.702 4.68145C353.82 4.58975 353.623 4.47967 353.544 4.36963ZM55.1221 10.1285L55.1616 9.9084L54.6088 10.0001L55.1221 10.1285Z" fill="#2F86EB"/>
</svg>
