<svg width="386" height="17" viewBox="0 0 386 17" fill="none" xmlns="http://www.w3.org/2000/svg">
<path d="M293.37 2.21064C294.831 2.72416 296.252 3.21935 297.832 3.76955C298.898 3.47611 300.043 3.31106 300.596 2.9626C303.952 0.890169 308.611 0.52334 313.309 1.2386C318.284 1.99055 323.023 1.58709 327.958 1.58709C333.841 1.58709 339.843 1.22029 345.766 2.3207C350.069 3.12766 355.123 3.54949 358.361 1.22029C360.849 1.64211 362.981 2.35736 365.113 2.30234C368.114 2.24732 368.745 3.60452 370.917 3.84294C373.089 4.08136 375.339 4.20974 378.893 4.48484C377.116 3.60452 376.326 3.20102 375.497 2.7792C379.525 2.4124 382.249 3.69619 386 4.41145C385.013 4.7966 384.539 5.16341 383.947 5.20009C379.998 5.43851 376.208 5.89701 372.852 6.9424C370.956 7.52928 368.903 7.56595 366.811 7.25417C363.731 6.79567 360.77 6.9424 357.532 7.1258C352.399 7.41924 347.147 7.27254 341.936 7.23586C339.369 7.21752 336.803 6.99744 334.315 6.86906C334.078 6.59396 333.96 6.37385 333.762 6.15377C333.012 5.42016 331.749 5.21844 331.077 5.71362C330.406 6.2088 329.972 6.77736 329.34 7.41926C323.694 7.47428 318.206 7.52927 312.717 7.56595C309.558 7.58429 306.4 7.51093 303.281 7.65765C300.161 7.80437 297.595 7.40092 295.384 6.41055C296.015 6.46557 296.647 6.52058 297.279 6.5756C297.279 6.55726 297.279 6.55727 297.279 6.53893C296.647 6.4839 296.015 6.44722 295.423 6.3922C295.344 7.01576 294.239 7.3459 293.291 7.14416C290.172 6.52059 287.21 6.85072 284.131 7.14416C280.301 7.49262 276.352 7.71268 272.443 7.80438C264.586 8.02446 256.729 8.11618 248.832 8.28124C246.818 8.31792 245.199 8.02447 244.291 6.8507C241.488 8.02447 238.447 8.20788 235.249 8.09784C229.484 7.87775 223.72 7.87774 218.034 8.81308C217.323 8.3179 216.731 7.93277 216.02 7.45593C214.007 7.74937 211.875 8.17119 209.703 8.31791C207.65 8.46463 205.399 8.11616 203.464 8.35458C195.765 9.34495 187.789 8.75805 180.011 9.39996C178.747 9.51 177.405 9.38162 176.102 9.30826C173.733 9.16154 171.522 9.3633 169.153 9.56505C164.02 10.0235 158.768 10.1519 153.556 10.4087C149.924 10.5737 146.252 10.7204 142.619 10.8672C142.106 10.8855 141.553 10.9955 141.079 10.9589C130.063 10.2069 119.284 12.0777 108.268 11.6375C97.8045 12.8479 86.8674 11.9309 76.4041 13.1047C75.8908 13.1597 75.338 13.1597 74.8247 13.1597C70.0866 13.0313 65.5459 13.4165 60.8868 13.7833C42.803 15.1955 24.5218 15.8373 6.20117 16.0024C5.41148 16.0024 4.62179 16.0758 3.87159 16.0024C1.66047 15.819 -0.313723 14.6269 0.0416355 13.5999C0.475962 12.2794 1.0682 10.9772 1.54201 9.76676C2.21324 9.52834 2.6081 9.28993 3.04243 9.27159C9.83372 8.94146 16.704 8.20785 23.3768 8.48295C29.5363 8.73971 35.301 8.3546 41.1842 7.91443C42.7241 7.80439 44.3034 7.89607 45.8828 7.84105C47.9359 7.78603 50.1076 7.84105 52.0423 7.56595C59.5444 6.4472 66.4541 7.07077 73.6402 8.90478C77.9045 7.25417 82.7611 5.80531 89.0786 7.2175C90.579 6.4839 91.9609 5.80529 93.6193 4.99833C94.8828 5.25509 96.0672 5.45686 97.1333 5.71362C100.095 6.44722 102.701 6.22714 104.912 5.07172L104.833 5.05336C107.518 5.4385 110.203 5.80531 113.006 6.20879C113.519 5.56689 113.954 5.0167 114.585 4.24641C116.678 4.37479 118.968 4.41148 121.1 4.66824C123.588 4.96168 125.68 4.96167 127.339 3.91628C127.339 3.89794 128.01 4.09967 128.365 4.22805C128.444 4.35643 128.523 4.48481 128.602 4.59486C128.681 4.68656 128.76 4.77826 128.839 4.86996C128.681 4.63154 128.523 4.41144 128.365 4.17302C131.445 4.63153 133.972 4.1914 135.67 3.01763C138.75 3.36609 138.236 4.6132 139.263 5.38349C140.684 6.44722 142.501 6.90573 145.501 6.53893C144.554 6.17212 143.725 5.93371 143.132 5.58525C142.224 5.03504 142.619 4.15471 143.804 4.06301C146.883 3.80625 149.963 3.62286 153.082 3.47613C155.649 3.34775 158.61 3.6595 160.782 3.16432C164.02 2.41237 166.941 2.54079 169.784 3.10933C172.351 3.62286 174.759 3.67788 177.405 3.47613C179.458 3.32941 181.63 3.32939 183.683 3.49445C186.644 3.71453 189.329 3.7329 192.053 3.01763C193.317 2.70585 195.094 2.8342 196.634 2.76084C197.897 2.68748 199.318 2.72418 200.464 2.5041C203.701 1.8622 207.136 1.99058 210.414 1.67879C217.442 1.00021 223.68 1.99055 230.156 2.79751C231.854 2.99926 234.144 3.16433 235.447 2.81587C237.737 2.19231 239.987 2.74252 242.159 2.4124C244.094 2.11896 246.186 2.06395 248.082 1.91722C249.503 2.68751 250.648 3.49445 252.188 4.04465C253.017 4.33809 254.912 4.3748 255.741 4.11804C256.373 3.9163 256.097 3.07265 256.255 2.46743C261.23 1.84386 264.941 3.93462 269.522 4.28308C270.193 3.40276 268.89 3.36606 268.14 3.07262C267.626 2.87087 267.271 2.55912 266.916 2.3207C267.192 2.1373 267.31 1.99058 267.468 1.9539C269.877 1.36701 272.009 2.19232 274.299 2.229C276.55 2.26568 278.919 1.66045 281.09 1.80717C284.249 2.02725 287.131 2.24733 290.211 1.62376C290.961 1.47704 292.462 2.08227 293.646 2.35737L293.37 2.21064ZM210.769 5.78696C212.467 5.31012 214.204 4.85163 215.862 4.33811C216.139 4.24641 216.139 3.95294 216.376 3.62282C214.954 3.21934 213.73 2.50407 211.638 3.34772C211.401 4.09966 211.124 4.90665 210.848 5.71362C210.65 5.73196 210.414 5.78696 210.216 5.78696C210.058 5.76862 209.94 5.67694 209.782 5.62192C210.137 5.6586 210.453 5.7136 210.769 5.78696ZM306.558 3.42111C311.493 5.6586 311.967 5.82367 316.626 6.59395C317.021 6.66732 317.692 6.35551 318.995 6.06206C316.745 5.75028 315.165 5.65861 313.941 5.31015C312.678 4.925 311.849 4.24639 310.664 3.76955C309.519 3.29271 308.216 2.79754 306.558 3.42111ZM185.973 5.64023C180.129 4.48481 180.011 4.48481 173.93 5.64023C176.694 5.64023 178.392 5.64023 180.05 5.64023C182.024 5.64023 183.999 5.64023 185.973 5.64023ZM360.375 5.95205C364.521 6.06209 362.507 4.46649 363.81 3.97131C363.849 3.95297 363.376 3.65954 362.783 3.20103C361.915 4.17306 361.243 4.96168 360.375 5.95205ZM328.077 3.29273C328.037 3.40277 327.958 3.53114 327.919 3.64118C329.064 3.80624 330.169 3.98963 331.354 4.13635C331.433 4.15469 331.749 3.97131 331.788 3.87961C331.828 3.78791 331.749 3.56784 331.63 3.56784C330.446 3.45779 329.261 3.38443 328.077 3.29273ZM156.597 5.21845C155.925 5.80533 155.254 6.11708 155.373 6.33717C155.57 6.63061 156.281 6.99742 156.873 7.0341C157.307 7.07078 158.373 6.59395 158.294 6.41055C158.176 6.06209 157.465 5.76865 156.597 5.21845ZM308.019 2.11894C309.598 2.284 310.309 2.41237 311.019 2.43071C311.375 2.44905 311.77 2.26569 312.164 2.19233C311.73 2.10063 311.335 1.91722 310.901 1.91722C310.23 1.88054 309.559 1.99056 308.019 2.11894ZM284.131 4.19138C284.328 4.13636 284.526 4.08134 284.723 4.00798C284.447 3.84292 284.21 3.67786 283.933 3.54948C283.894 3.53114 283.538 3.6595 283.341 3.71452C283.617 3.87958 283.894 4.04466 284.131 4.19138ZM353.544 5.27343C353.307 5.29177 353.07 5.29181 352.833 5.31015C352.952 5.47521 353.07 5.6219 353.189 5.78696C353.386 5.7136 353.662 5.65861 353.702 5.58525C353.82 5.49355 353.623 5.38347 353.544 5.27343ZM55.1221 11.0323L55.1616 10.8122L54.6088 10.9039L55.1221 11.0323Z" fill="#44C95B"/>
</svg>
