<svg width="157" height="45" viewBox="0 0 157 45" fill="none" xmlns="http://www.w3.org/2000/svg">
<path d="M22.5 16.2102C22.5 13.4488 20.2614 11.2102 17.5 11.2102H11.2499C5.03988 11.2102 -0.000162125 16.2569 -0.000162125 22.4751C-0.000162125 28.6933 5.03988 33.7399 11.2499 33.7399H17.5C20.2614 33.7399 22.5 31.5014 22.5 28.7399V16.2102Z" fill="#FF5C00"/>
<path d="M28.7402 22.5002C31.5017 22.5002 33.7402 20.2616 33.7402 17.5002L33.7402 11.2501C33.7402 5.04006 28.6936 2.09207e-05 22.4754 2.08465e-05C16.2572 2.07724e-05 11.2105 5.04006 11.2105 11.2501L11.2105 17.5002C11.2105 20.2616 13.4491 22.5002 16.2105 22.5002L28.7402 22.5002Z" fill="#282C36"/>
<path d="M45 22.4751C45 16.2569 39.96 11.2102 33.7499 11.2102H27.4999C24.7384 11.2102 22.4999 13.4488 22.4999 16.2102V28.74C22.4999 31.5014 24.7384 33.74 27.4998 33.74H33.7499C39.96 33.74 45 28.6933 45 22.4751Z" fill="#FF5C00"/>
<path d="M22.4754 45.0003C28.6936 45.0003 33.7402 39.9603 33.7402 33.7502L33.7402 27.5002C33.7402 24.7387 31.5017 22.5002 28.7402 22.5002L16.2105 22.5002C13.4491 22.5002 11.2105 24.7387 11.2105 27.5002L11.2105 33.7502C11.2105 39.9603 16.2572 45.0003 22.4754 45.0003Z" fill="#282C36"/>
<path d="M11.2109 22.4204H22.4212V28.6306C22.4212 31.3921 20.1826 33.6306 17.4212 33.6306H11.2109V22.4204Z" fill="#FF5C00"/>
<path d="M64.1175 18.4479C64.038 17.7036 63.7028 17.1241 63.1119 16.7093C62.5266 16.2945 61.7653 16.0871 60.8278 16.0871C60.1687 16.0871 59.6033 16.1866 59.1317 16.3854C58.6602 16.5843 58.2994 16.8542 58.0494 17.1951C57.7994 17.536 57.6715 17.9252 57.6658 18.3627C57.6658 18.7263 57.7482 19.0417 57.913 19.3087C58.0835 19.5758 58.3136 19.8031 58.6033 19.9906C58.8931 20.1724 59.2141 20.3258 59.5664 20.4508C59.9187 20.5758 60.2738 20.6809 60.6317 20.7661L62.2681 21.1752C62.9272 21.3286 63.5607 21.536 64.1687 21.7974C64.7823 22.0587 65.3306 22.3883 65.8136 22.786C66.3022 23.1837 66.6886 23.6638 66.9727 24.2263C67.2567 24.7888 67.3988 25.4479 67.3988 26.2036C67.3988 27.2263 67.1374 28.1269 66.6147 28.9053C66.092 29.6781 65.3363 30.2832 64.3477 30.7207C63.3647 31.1525 62.1744 31.3684 60.7766 31.3684C59.4187 31.3684 58.2397 31.1582 57.2397 30.7377C56.2454 30.3173 55.467 29.7036 54.9045 28.8968C54.3477 28.09 54.0465 27.107 54.0011 25.9479H57.1119C57.1573 26.5559 57.3448 27.0616 57.6744 27.465C58.0039 27.8684 58.4329 28.1695 58.9613 28.3684C59.4954 28.5673 60.092 28.6667 60.7511 28.6667C61.4386 28.6667 62.0408 28.5644 62.5579 28.3599C63.0806 28.1496 63.4897 27.8599 63.7852 27.4906C64.0806 27.1156 64.2312 26.6781 64.2369 26.1781C64.2312 25.7235 64.0977 25.3485 63.8363 25.0531C63.5749 24.7519 63.2085 24.5019 62.7369 24.3031C62.271 24.0985 61.7255 23.9167 61.1005 23.7576L59.1147 23.2462C57.6772 22.8769 56.5408 22.3173 55.7056 21.5673C54.8761 20.8116 54.4613 19.8087 54.4613 18.5587C54.4613 17.5303 54.7397 16.6298 55.2965 15.857C55.859 15.0843 56.6232 14.4849 57.5891 14.0587C58.555 13.6269 59.6488 13.411 60.8704 13.411C62.109 13.411 63.1942 13.6269 64.1261 14.0587C65.0636 14.4849 65.7994 15.0786 66.3335 15.84C66.8675 16.5957 67.1431 17.465 67.1602 18.4479H64.1175ZM73.8484 31.3684C73.0188 31.3684 72.2717 31.2207 71.6069 30.9252C70.9478 30.6241 70.4251 30.1809 70.0387 29.5957C69.658 29.0104 69.4677 28.2888 69.4677 27.4309C69.4677 26.6923 69.604 26.0815 69.8768 25.5985C70.1495 25.1156 70.5217 24.7292 70.9933 24.4394C71.4648 24.1496 71.9961 23.9309 72.587 23.7832C73.1836 23.6298 73.8001 23.519 74.4364 23.4508C75.2035 23.3712 75.8256 23.3002 76.3029 23.2377C76.7802 23.1695 77.1268 23.0673 77.3427 22.9309C77.5643 22.7888 77.6751 22.5701 77.6751 22.2746V22.2235C77.6751 21.5815 77.4847 21.0843 77.104 20.732C76.7234 20.3798 76.1751 20.2036 75.4592 20.2036C74.7035 20.2036 74.104 20.3684 73.6609 20.6979C73.2234 21.0275 72.9279 21.4167 72.7745 21.8656L69.8938 21.4565C70.1211 20.661 70.4961 19.9962 71.0188 19.4621C71.5415 18.9224 72.1808 18.519 72.9364 18.2519C73.6921 17.9792 74.5273 17.8428 75.4421 17.8428C76.0728 17.8428 76.7006 17.9167 77.3256 18.0644C77.9506 18.2121 78.5217 18.4565 79.0387 18.7974C79.5558 19.1326 79.9705 19.59 80.283 20.1695C80.6012 20.7491 80.7603 21.4735 80.7603 22.3428V31.1042H77.7944V29.3059H77.6921C77.5046 29.6695 77.2404 30.0104 76.8995 30.3286C76.5643 30.6411 76.141 30.894 75.6296 31.0871C75.1239 31.2746 74.5302 31.3684 73.8484 31.3684ZM74.6495 29.1013C75.2688 29.1013 75.8058 28.9792 76.2603 28.7349C76.7148 28.4849 77.0643 28.1553 77.3086 27.7462C77.5586 27.3371 77.6836 26.8911 77.6836 26.4082V24.8656C77.587 24.9451 77.4222 25.019 77.1893 25.0871C76.962 25.1553 76.7063 25.215 76.4222 25.2661C76.1381 25.3173 75.8569 25.3627 75.5785 25.4025C75.3001 25.4423 75.0586 25.4763 74.854 25.5048C74.3938 25.5673 73.9819 25.6695 73.6183 25.8116C73.2546 25.9536 72.9677 26.1525 72.7575 26.4082C72.5472 26.6582 72.4421 26.982 72.4421 27.3798C72.4421 27.9479 72.6495 28.3769 73.0643 28.6667C73.479 28.9565 74.0075 29.1013 74.6495 29.1013ZM83.9989 31.1042V13.6496H87.0842V20.1781H87.212C87.3711 19.8599 87.5955 19.5218 87.8853 19.1638C88.1751 18.8002 88.5671 18.4906 89.0614 18.2349C89.5558 17.9735 90.1864 17.8428 90.9535 17.8428C91.9648 17.8428 92.8768 18.1013 93.6893 18.6184C94.5075 19.1298 95.1552 19.8883 95.6325 20.894C96.1154 21.894 96.3569 23.1212 96.3569 24.5758C96.3569 26.0133 96.1211 27.2349 95.6495 28.2406C95.1779 29.2462 94.5359 30.0133 93.7234 30.5417C92.9109 31.0701 91.9904 31.3343 90.962 31.3343C90.212 31.3343 89.5898 31.2093 89.0955 30.9593C88.6012 30.7093 88.2035 30.4082 87.9023 30.0559C87.6069 29.6979 87.3768 29.3599 87.212 29.0417H87.033V31.1042H83.9989ZM87.0245 24.5587C87.0245 25.4053 87.1438 26.1468 87.3825 26.7832C87.6268 27.4195 87.9762 27.9167 88.4308 28.2746C88.891 28.6269 89.4478 28.8031 90.1012 28.8031C90.783 28.8031 91.354 28.6212 91.8143 28.2576C92.2745 27.8883 92.6211 27.3854 92.854 26.7491C93.0927 26.107 93.212 25.3769 93.212 24.5587C93.212 23.7462 93.0955 23.0246 92.8626 22.394C92.6296 21.7633 92.283 21.269 91.8228 20.911C91.3626 20.5531 90.7887 20.3741 90.1012 20.3741C89.4421 20.3741 88.8825 20.5474 88.4222 20.894C87.962 21.2406 87.6126 21.7263 87.3739 22.3513C87.141 22.9763 87.0245 23.7121 87.0245 24.5587ZM98.9798 31.1042V18.0133H101.971V20.1951H102.108C102.346 19.4394 102.755 18.857 103.335 18.4479C103.92 18.0332 104.588 17.8258 105.338 17.8258C105.508 17.8258 105.699 17.8343 105.909 17.8513C106.125 17.8627 106.304 17.8826 106.446 17.911V20.7491C106.315 20.7036 106.108 20.6638 105.824 20.6298C105.545 20.59 105.275 20.5701 105.014 20.5701C104.451 20.5701 103.946 20.6923 103.497 20.9366C103.054 21.1752 102.704 21.5076 102.449 21.9337C102.193 22.3599 102.065 22.8513 102.065 23.4082V31.1042H98.9798ZM112.028 31.3684C111.199 31.3684 110.451 31.2207 109.787 30.9252C109.127 30.6241 108.605 30.1809 108.218 29.5957C107.838 29.0104 107.647 28.2888 107.647 27.4309C107.647 26.6923 107.784 26.0815 108.056 25.5985C108.329 25.1156 108.701 24.7292 109.173 24.4394C109.645 24.1496 110.176 23.9309 110.767 23.7832C111.363 23.6298 111.98 23.519 112.616 23.4508C113.383 23.3712 114.005 23.3002 114.483 23.2377C114.96 23.1695 115.306 23.0673 115.522 22.9309C115.744 22.7888 115.855 22.5701 115.855 22.2746V22.2235C115.855 21.5815 115.664 21.0843 115.284 20.732C114.903 20.3798 114.355 20.2036 113.639 20.2036C112.883 20.2036 112.284 20.3684 111.841 20.6979C111.403 21.0275 111.108 21.4167 110.954 21.8656L108.074 21.4565C108.301 20.661 108.676 19.9962 109.199 19.4621C109.721 18.9224 110.36 18.519 111.116 18.2519C111.872 17.9792 112.707 17.8428 113.622 17.8428C114.252 17.8428 114.88 17.9167 115.505 18.0644C116.13 18.2121 116.701 18.4565 117.218 18.7974C117.735 19.1326 118.15 19.59 118.463 20.1695C118.781 20.7491 118.94 21.4735 118.94 22.3428V31.1042H115.974V29.3059H115.872C115.684 29.6695 115.42 30.0104 115.079 30.3286C114.744 30.6411 114.321 30.894 113.809 31.0871C113.304 31.2746 112.71 31.3684 112.028 31.3684ZM112.829 29.1013C113.449 29.1013 113.985 28.9792 114.44 28.7349C114.895 28.4849 115.244 28.1553 115.488 27.7462C115.738 27.3371 115.863 26.8911 115.863 26.4082V24.8656C115.767 24.9451 115.602 25.019 115.369 25.0871C115.142 25.1553 114.886 25.215 114.602 25.2661C114.318 25.3173 114.037 25.3627 113.758 25.4025C113.48 25.4423 113.238 25.4763 113.034 25.5048C112.574 25.5673 112.162 25.6695 111.798 25.8116C111.434 25.9536 111.147 26.1525 110.937 26.4082C110.727 26.6582 110.622 26.982 110.622 27.3798C110.622 27.9479 110.829 28.3769 111.244 28.6667C111.659 28.9565 112.187 29.1013 112.829 29.1013ZM132.389 21.4735L129.576 21.7803C129.497 21.4962 129.358 21.2292 129.159 20.9792C128.966 20.7292 128.704 20.5275 128.375 20.3741C128.045 20.2207 127.642 20.144 127.164 20.144C126.522 20.144 125.983 20.2832 125.545 20.5616C125.113 20.84 124.9 21.2008 124.906 21.644C124.9 22.0246 125.039 22.3343 125.324 22.5729C125.613 22.8116 126.091 23.0076 126.755 23.161L128.988 23.6383C130.227 23.9053 131.147 24.3286 131.75 24.9082C132.358 25.4877 132.664 26.2462 132.67 27.1837C132.664 28.0076 132.423 28.7349 131.946 29.3656C131.474 29.9906 130.818 30.4792 129.977 30.8315C129.136 31.1837 128.17 31.3599 127.079 31.3599C125.477 31.3599 124.187 31.0246 123.21 30.3542C122.233 29.6781 121.65 28.7377 121.463 27.5332L124.471 27.2434C124.608 27.8343 124.897 28.2803 125.341 28.5815C125.784 28.8826 126.36 29.0332 127.071 29.0332C127.804 29.0332 128.392 28.8826 128.835 28.5815C129.284 28.2803 129.508 27.9082 129.508 27.465C129.508 27.09 129.363 26.7803 129.074 26.536C128.789 26.2917 128.346 26.1042 127.744 25.9735L125.511 25.5048C124.255 25.2434 123.326 24.8031 122.724 24.1837C122.122 23.5587 121.824 22.769 121.829 21.8144C121.824 21.0076 122.042 20.3087 122.485 19.7178C122.934 19.1212 123.556 18.661 124.352 18.3371C125.153 18.0076 126.076 17.8428 127.122 17.8428C128.656 17.8428 129.863 18.1695 130.744 18.8229C131.63 19.4763 132.179 20.3599 132.389 21.4735ZM141.751 18.0133V20.3996H134.225V18.0133H141.751ZM136.083 14.8769H139.169V27.1667C139.169 27.5815 139.231 27.8996 139.356 28.1212C139.487 28.3371 139.657 28.4849 139.868 28.5644C140.078 28.644 140.311 28.6837 140.566 28.6837C140.76 28.6837 140.936 28.6695 141.095 28.6411C141.26 28.6127 141.385 28.5871 141.47 28.5644L141.99 30.9763C141.825 31.0332 141.589 31.0957 141.282 31.1638C140.981 31.232 140.612 31.2718 140.174 31.2832C139.402 31.3059 138.706 31.1894 138.086 30.9337C137.467 30.6724 136.975 30.269 136.612 29.7235C136.254 29.1781 136.078 28.4962 136.083 27.6781V14.8769ZM148.098 31.3684C147.269 31.3684 146.522 31.2207 145.857 30.9252C145.198 30.6241 144.675 30.1809 144.289 29.5957C143.908 29.0104 143.718 28.2888 143.718 27.4309C143.718 26.6923 143.854 26.0815 144.127 25.5985C144.4 25.1156 144.772 24.7292 145.243 24.4394C145.715 24.1496 146.246 23.9309 146.837 23.7832C147.434 23.6298 148.05 23.519 148.686 23.4508C149.453 23.3712 150.076 23.3002 150.553 23.2377C151.03 23.1695 151.377 23.0673 151.593 22.9309C151.814 22.7888 151.925 22.5701 151.925 22.2746V22.2235C151.925 21.5815 151.735 21.0843 151.354 20.732C150.973 20.3798 150.425 20.2036 149.709 20.2036C148.953 20.2036 148.354 20.3684 147.911 20.6979C147.473 21.0275 147.178 21.4167 147.025 21.8656L144.144 21.4565C144.371 20.661 144.746 19.9962 145.269 19.4621C145.792 18.9224 146.431 18.519 147.186 18.2519C147.942 17.9792 148.777 17.8428 149.692 17.8428C150.323 17.8428 150.951 17.9167 151.576 18.0644C152.201 18.2121 152.772 18.4565 153.289 18.7974C153.806 19.1326 154.221 19.59 154.533 20.1695C154.851 20.7491 155.01 21.4735 155.01 22.3428V31.1042H152.044V29.3059H151.942C151.755 29.6695 151.49 30.0104 151.15 30.3286C150.814 30.6411 150.391 30.894 149.88 31.0871C149.374 31.2746 148.78 31.3684 148.098 31.3684ZM148.9 29.1013C149.519 29.1013 150.056 28.9792 150.51 28.7349C150.965 28.4849 151.314 28.1553 151.559 27.7462C151.809 27.3371 151.934 26.8911 151.934 26.4082V24.8656C151.837 24.9451 151.672 25.019 151.439 25.0871C151.212 25.1553 150.956 25.215 150.672 25.2661C150.388 25.3173 150.107 25.3627 149.828 25.4025C149.55 25.4423 149.309 25.4763 149.104 25.5048C148.644 25.5673 148.232 25.6695 147.868 25.8116C147.505 25.9536 147.218 26.1525 147.007 26.4082C146.797 26.6582 146.692 26.982 146.692 27.3798C146.692 27.9479 146.9 28.3769 147.314 28.6667C147.729 28.9565 148.257 29.1013 148.9 29.1013Z" fill="#252525"/>
</svg>
