<svg width="240" height="21" viewBox="0 0 240 21" fill="none" xmlns="http://www.w3.org/2000/svg">
<path d="M28.665 15.626L26.0968 6.8987H27.8525L29.5627 13.3078H29.6479L31.3638 6.8987H33.1195L34.824 13.2794H34.9093L36.6081 6.8987H38.3638L35.8013 15.626H34.0684L32.2956 9.32484H32.165L30.3922 15.626H28.665ZM41.8681 15.626L39.2999 6.8987H41.0556L42.7658 13.3078H42.851L44.5669 6.8987H46.3226L48.0272 13.2794H48.1124L49.8113 6.8987H51.5669L49.0044 15.626H47.2715L45.4988 9.32484H45.3681L43.5953 15.626H41.8681ZM55.0712 15.626L52.503 6.8987H54.2587L55.9689 13.3078H56.0542L57.7701 6.8987H59.5257L61.2303 13.2794H61.3155L63.0144 6.8987H64.7701L62.2076 15.626H60.4746L58.7019 9.32484H58.5712L56.7985 15.626H55.0712ZM66.3141 15.7339C66.0035 15.7339 65.7364 15.6241 65.513 15.4044C65.2895 15.1809 65.1777 14.912 65.1777 14.5976C65.1777 14.287 65.2895 14.0218 65.513 13.8021C65.7364 13.5786 66.0035 13.4669 66.3141 13.4669C66.6247 13.4669 66.8917 13.5786 67.1152 13.8021C67.3387 14.0218 67.4505 14.287 67.4505 14.5976C67.4505 14.8059 67.3974 14.9972 67.2914 15.1714C67.1891 15.3419 67.0527 15.4782 66.8823 15.5805C66.7118 15.6828 66.5224 15.7339 66.3141 15.7339ZM69.726 15.626V6.8987H71.3567V8.31916H71.4647C71.6465 7.8381 71.9438 7.4631 72.3567 7.19416C72.7696 6.92143 73.2639 6.78507 73.8397 6.78507C74.423 6.78507 74.9116 6.92143 75.3056 7.19416C75.7033 7.46689 75.9969 7.84189 76.1863 8.31916H76.2772C76.4855 7.85325 76.8169 7.48204 77.2715 7.20552C77.726 6.92522 78.2677 6.78507 78.8965 6.78507C79.6882 6.78507 80.334 7.03317 80.834 7.52939C81.3378 8.0256 81.5897 8.7737 81.5897 9.7737V15.626H79.8908V9.93279C79.8908 9.34189 79.7298 8.91386 79.4078 8.6487C79.0859 8.38355 78.7014 8.25098 78.2544 8.25098C77.7014 8.25098 77.2715 8.42143 76.9647 8.76234C76.6578 9.09946 76.5044 9.53317 76.5044 10.0635V15.626H74.8113V9.82484C74.8113 9.35136 74.6635 8.97067 74.3681 8.68279C74.0726 8.39492 73.6882 8.25098 73.2147 8.25098C72.8927 8.25098 72.5953 8.3362 72.3226 8.50666C72.0537 8.67332 71.8359 8.90628 71.6692 9.20552C71.5063 9.50476 71.4249 9.85136 71.4249 10.2453V15.626H69.726ZM87.628 15.8021C86.7682 15.8021 86.0276 15.6184 85.4064 15.251C84.789 14.8798 84.3117 14.3589 83.9746 13.6885C83.6413 13.0142 83.4746 12.2245 83.4746 11.3192C83.4746 10.4252 83.6413 9.63734 83.9746 8.95552C84.3117 8.2737 84.7814 7.74151 85.3837 7.35893C85.9898 6.97636 86.6981 6.78507 87.5087 6.78507C88.0011 6.78507 88.4784 6.86651 88.9405 7.02939C89.4026 7.19226 89.8174 7.44795 90.1848 7.79643C90.5523 8.14492 90.842 8.59757 91.0542 9.15439C91.2663 9.70742 91.3723 10.3798 91.3723 11.1714V11.7737H84.4348V10.501H89.7076C89.7076 10.054 89.6167 9.65817 89.4348 9.31348C89.253 8.96499 88.9973 8.69037 88.6678 8.48961C88.342 8.28886 87.9595 8.18848 87.5201 8.18848C87.0428 8.18848 86.6261 8.3059 86.2701 8.54075C85.9178 8.77181 85.6451 9.07484 85.4519 9.44984C85.2625 9.82105 85.1678 10.2245 85.1678 10.6601V11.6544C85.1678 12.2377 85.2701 12.7339 85.4746 13.143C85.6829 13.5521 85.9727 13.8646 86.3439 14.0805C86.7151 14.2926 87.1489 14.3987 87.6451 14.3987C87.967 14.3987 88.2606 14.3532 88.5257 14.2623C88.7909 14.1676 89.0201 14.0275 89.2132 13.8419C89.4064 13.6563 89.5542 13.4271 89.6564 13.1544L91.2644 13.4442C91.1356 13.9176 90.9045 14.3324 90.5712 14.6885C90.2417 15.0407 89.8269 15.3154 89.3269 15.5123C88.8307 15.7055 88.2644 15.8021 87.628 15.8021ZM93.2573 15.626V6.8987H94.8993V8.28507H94.9902C95.1493 7.81537 95.4296 7.44605 95.8311 7.17711C96.2364 6.90439 96.6948 6.76802 97.2061 6.76802C97.3122 6.76802 97.4372 6.77181 97.5811 6.77939C97.7289 6.78696 97.8444 6.79643 97.9277 6.80779V8.43279C97.8596 8.41386 97.7383 8.39302 97.5641 8.37029C97.3899 8.34378 97.2156 8.33052 97.0414 8.33052C96.6399 8.33052 96.2819 8.41575 95.9675 8.5862C95.6569 8.75287 95.4107 8.98582 95.2289 9.28507C95.0471 9.58052 94.9561 9.91764 94.9561 10.2964V15.626H93.2573ZM102.762 15.8021C101.943 15.8021 101.229 15.6146 100.619 15.2396C100.01 14.8646 99.5362 14.34 99.199 13.6657C98.8619 12.9915 98.6934 12.2036 98.6934 11.3021C98.6934 10.3968 98.8619 9.60514 99.199 8.92711C99.5362 8.24908 100.01 7.72257 100.619 7.34757C101.229 6.97257 101.943 6.78507 102.762 6.78507C103.58 6.78507 104.294 6.97257 104.904 7.34757C105.513 7.72257 105.987 8.24908 106.324 8.92711C106.661 9.60514 106.83 10.3968 106.83 11.3021C106.83 12.2036 106.661 12.9915 106.324 13.6657C105.987 14.34 105.513 14.8646 104.904 15.2396C104.294 15.6146 103.58 15.8021 102.762 15.8021ZM102.767 14.376C103.298 14.376 103.737 14.2358 104.085 13.9555C104.434 13.6752 104.691 13.3021 104.858 12.8362C105.029 12.3703 105.114 11.857 105.114 11.2964C105.114 10.7396 105.029 10.2282 104.858 9.76234C104.691 9.29264 104.434 8.91575 104.085 8.63166C103.737 8.34757 103.298 8.20552 102.767 8.20552C102.233 8.20552 101.79 8.34757 101.438 8.63166C101.089 8.91575 100.83 9.29264 100.659 9.76234C100.493 10.2282 100.409 10.7396 100.409 11.2964C100.409 11.857 100.493 12.3703 100.659 12.8362C100.83 13.3021 101.089 13.6752 101.438 13.9555C101.79 14.2358 102.233 14.376 102.767 14.376ZM108.726 18.8987V6.8987H110.385V8.31348H110.527C110.626 8.13166 110.768 7.92143 110.953 7.68279C111.139 7.44416 111.396 7.23582 111.726 7.05779C112.056 6.87598 112.491 6.78507 113.033 6.78507C113.737 6.78507 114.366 6.9631 114.919 7.31916C115.472 7.67522 115.906 8.18848 116.22 8.85893C116.539 9.52939 116.698 10.3362 116.698 11.2794C116.698 12.2226 116.54 13.0313 116.226 13.7055C115.912 14.376 115.48 14.893 114.931 15.2567C114.381 15.6165 113.754 15.7964 113.05 15.7964C112.52 15.7964 112.086 15.7074 111.749 15.5294C111.415 15.3514 111.154 15.143 110.965 14.9044C110.775 14.6657 110.629 14.4536 110.527 14.268H110.425V18.8987H108.726ZM110.391 11.2623C110.391 11.876 110.48 12.4139 110.658 12.876C110.836 13.3381 111.093 13.6998 111.431 13.9612C111.768 14.2188 112.181 14.3476 112.669 14.3476C113.177 14.3476 113.601 14.2131 113.942 13.9442C114.283 13.6714 114.54 13.3021 114.715 12.8362C114.893 12.3703 114.982 11.8457 114.982 11.2623C114.982 10.6866 114.895 10.1695 114.72 9.7112C114.55 9.25287 114.292 8.89113 113.948 8.62598C113.607 8.36082 113.181 8.22825 112.669 8.22825C112.177 8.22825 111.76 8.35514 111.419 8.60893C111.082 8.86272 110.826 9.21689 110.652 9.67143C110.478 10.126 110.391 10.6563 110.391 11.2623ZM118.601 15.626V6.8987H120.243V8.28507H120.334C120.493 7.81537 120.773 7.44605 121.175 7.17711C121.58 6.90439 122.039 6.76802 122.55 6.76802C122.656 6.76802 122.781 6.77181 122.925 6.77939C123.073 6.78696 123.188 6.79643 123.271 6.80779V8.43279C123.203 8.41386 123.082 8.39302 122.908 8.37029C122.734 8.34378 122.559 8.33052 122.385 8.33052C121.984 8.33052 121.626 8.41575 121.311 8.5862C121.001 8.75287 120.754 8.98582 120.573 9.28507C120.391 9.58052 120.3 9.91764 120.3 10.2964V15.626H118.601ZM128.105 15.8021C127.287 15.8021 126.573 15.6146 125.963 15.2396C125.353 14.8646 124.88 14.34 124.543 13.6657C124.206 12.9915 124.037 12.2036 124.037 11.3021C124.037 10.3968 124.206 9.60514 124.543 8.92711C124.88 8.24908 125.353 7.72257 125.963 7.34757C126.573 6.97257 127.287 6.78507 128.105 6.78507C128.923 6.78507 129.637 6.97257 130.247 7.34757C130.857 7.72257 131.331 8.24908 131.668 8.92711C132.005 9.60514 132.173 10.3968 132.173 11.3021C132.173 12.2036 132.005 12.9915 131.668 13.6657C131.331 14.34 130.857 14.8646 130.247 15.2396C129.637 15.6146 128.923 15.8021 128.105 15.8021ZM128.111 14.376C128.641 14.376 129.081 14.2358 129.429 13.9555C129.778 13.6752 130.035 13.3021 130.202 12.8362C130.372 12.3703 130.458 11.857 130.458 11.2964C130.458 10.7396 130.372 10.2282 130.202 9.76234C130.035 9.29264 129.778 8.91575 129.429 8.63166C129.081 8.34757 128.641 8.20552 128.111 8.20552C127.577 8.20552 127.134 8.34757 126.781 8.63166C126.433 8.91575 126.173 9.29264 126.003 9.76234C125.836 10.2282 125.753 10.7396 125.753 11.2964C125.753 11.857 125.836 12.3703 126.003 12.8362C126.173 13.3021 126.433 13.6752 126.781 13.9555C127.134 14.2358 127.577 14.376 128.111 14.376ZM134.07 6.8987H135.769V16.1942C135.769 16.7775 135.663 17.2699 135.45 17.6714C135.242 18.0729 134.932 18.3779 134.519 18.5862C134.11 18.7945 133.604 18.8987 133.002 18.8987C132.941 18.8987 132.884 18.8987 132.831 18.8987C132.774 18.8987 132.716 18.8968 132.655 18.893V17.4328C132.708 17.4328 132.755 17.4328 132.797 17.4328C132.835 17.4328 132.878 17.4328 132.928 17.4328C133.329 17.4328 133.619 17.3248 133.797 17.1089C133.979 16.8968 134.07 16.5881 134.07 16.1828V6.8987ZM134.911 5.55211C134.615 5.55211 134.361 5.45363 134.149 5.25666C133.941 5.0559 133.837 4.81726 133.837 4.54075C133.837 4.26045 133.941 4.02181 134.149 3.82484C134.361 3.62408 134.615 3.5237 134.911 3.5237C135.206 3.5237 135.458 3.62408 135.666 3.82484C135.878 4.02181 135.985 4.26045 135.985 4.54075C135.985 4.81726 135.878 5.0559 135.666 5.25666C135.458 5.45363 135.206 5.55211 134.911 5.55211ZM141.816 15.8021C140.956 15.8021 140.215 15.6184 139.594 15.251C138.977 14.8798 138.499 14.3589 138.162 13.6885C137.829 13.0142 137.662 12.2245 137.662 11.3192C137.662 10.4252 137.829 9.63734 138.162 8.95552C138.499 8.2737 138.969 7.74151 139.571 7.35893C140.177 6.97636 140.886 6.78507 141.696 6.78507C142.189 6.78507 142.666 6.86651 143.128 7.02939C143.59 7.19226 144.005 7.44795 144.372 7.79643C144.74 8.14492 145.03 8.59757 145.242 9.15439C145.454 9.70742 145.56 10.3798 145.56 11.1714V11.7737H138.622V10.501H143.895C143.895 10.054 143.804 9.65817 143.622 9.31348C143.441 8.96499 143.185 8.69037 142.855 8.48961C142.53 8.28886 142.147 8.18848 141.708 8.18848C141.23 8.18848 140.814 8.3059 140.458 8.54075C140.105 8.77181 139.833 9.07484 139.639 9.44984C139.45 9.82105 139.355 10.2245 139.355 10.6601V11.6544C139.355 12.2377 139.458 12.7339 139.662 13.143C139.87 13.5521 140.16 13.8646 140.531 14.0805C140.903 14.2926 141.336 14.3987 141.833 14.3987C142.155 14.3987 142.448 14.3532 142.713 14.2623C142.978 14.1676 143.208 14.0275 143.401 13.8419C143.594 13.6563 143.742 13.4271 143.844 13.1544L145.452 13.4442C145.323 13.9176 145.092 14.3324 144.759 14.6885C144.429 15.0407 144.014 15.3154 143.514 15.5123C143.018 15.7055 142.452 15.8021 141.816 15.8021ZM151.121 15.8021C150.276 15.8021 149.549 15.6108 148.939 15.2282C148.333 14.8419 147.867 14.3097 147.541 13.6317C147.216 12.9536 147.053 12.1771 147.053 11.3021C147.053 10.4157 147.219 9.63355 147.553 8.95552C147.886 8.2737 148.356 7.74151 148.962 7.35893C149.568 6.97636 150.282 6.78507 151.104 6.78507C151.767 6.78507 152.358 6.90817 152.877 7.15439C153.396 7.39681 153.814 7.73772 154.132 8.17711C154.454 8.61651 154.646 9.12976 154.706 9.71689H153.053C152.962 9.30779 152.753 8.95552 152.428 8.66007C152.106 8.36461 151.674 8.21689 151.132 8.21689C150.659 8.21689 150.244 8.34189 149.888 8.59189C149.536 8.8381 149.261 9.19037 149.064 9.6487C148.867 10.1032 148.769 10.6411 148.769 11.2623C148.769 11.8987 148.865 12.4479 149.058 12.9101C149.252 13.3722 149.524 13.7301 149.877 13.9839C150.233 14.2377 150.651 14.3646 151.132 14.3646C151.454 14.3646 151.746 14.3059 152.007 14.1885C152.272 14.0673 152.494 13.8949 152.672 13.6714C152.854 13.4479 152.981 13.179 153.053 12.8646H154.706C154.646 13.429 154.462 13.9328 154.155 14.376C153.848 14.8192 153.437 15.1676 152.922 15.4214C152.411 15.6752 151.81 15.8021 151.121 15.8021ZM160.597 6.8987V8.26234H155.83V6.8987H160.597ZM157.108 4.80779H158.807V13.0635C158.807 13.393 158.856 13.6411 158.955 13.8078C159.053 13.9707 159.18 14.0824 159.335 14.143C159.494 14.1998 159.667 14.2282 159.852 14.2282C159.989 14.2282 160.108 14.2188 160.21 14.1998C160.313 14.1809 160.392 14.1657 160.449 14.1544L160.756 15.5578C160.657 15.5957 160.517 15.6336 160.335 15.6714C160.154 15.7131 159.926 15.7358 159.654 15.7396C159.207 15.7472 158.79 15.6676 158.404 15.501C158.017 15.3343 157.705 15.0767 157.466 14.7282C157.227 14.3798 157.108 13.9423 157.108 13.4157V4.80779ZM163.595 15.7339C163.285 15.7339 163.018 15.6241 162.794 15.4044C162.571 15.1809 162.459 14.912 162.459 14.5976C162.459 14.287 162.571 14.0218 162.794 13.8021C163.018 13.5786 163.285 13.4669 163.595 13.4669C163.906 13.4669 164.173 13.5786 164.396 13.8021C164.62 14.0218 164.732 14.287 164.732 14.5976C164.732 14.8059 164.679 14.9972 164.573 15.1714C164.47 15.3419 164.334 15.4782 164.164 15.5805C163.993 15.6828 163.804 15.7339 163.595 15.7339ZM170.683 15.8021C169.839 15.8021 169.111 15.6108 168.502 15.2282C167.896 14.8419 167.43 14.3097 167.104 13.6317C166.778 12.9536 166.615 12.1771 166.615 11.3021C166.615 10.4157 166.782 9.63355 167.115 8.95552C167.449 8.2737 167.918 7.74151 168.524 7.35893C169.13 6.97636 169.844 6.78507 170.666 6.78507C171.329 6.78507 171.92 6.90817 172.439 7.15439C172.958 7.39681 173.377 7.73772 173.695 8.17711C174.017 8.61651 174.208 9.12976 174.269 9.71689H172.615C172.524 9.30779 172.316 8.95552 171.99 8.66007C171.668 8.36461 171.236 8.21689 170.695 8.21689C170.221 8.21689 169.807 8.34189 169.45 8.59189C169.098 8.8381 168.824 9.19037 168.627 9.6487C168.43 10.1032 168.331 10.6411 168.331 11.2623C168.331 11.8987 168.428 12.4479 168.621 12.9101C168.814 13.3722 169.087 13.7301 169.439 13.9839C169.795 14.2377 170.214 14.3646 170.695 14.3646C171.017 14.3646 171.308 14.3059 171.57 14.1885C171.835 14.0673 172.057 13.8949 172.235 13.6714C172.416 13.4479 172.543 13.179 172.615 12.8646H174.269C174.208 13.429 174.024 13.9328 173.718 14.376C173.411 14.8192 173 15.1676 172.485 15.4214C171.973 15.6752 171.373 15.8021 170.683 15.8021ZM179.762 15.8021C178.943 15.8021 178.229 15.6146 177.619 15.2396C177.01 14.8646 176.536 14.34 176.199 13.6657C175.862 12.9915 175.693 12.2036 175.693 11.3021C175.693 10.3968 175.862 9.60514 176.199 8.92711C176.536 8.24908 177.01 7.72257 177.619 7.34757C178.229 6.97257 178.943 6.78507 179.762 6.78507C180.58 6.78507 181.294 6.97257 181.904 7.34757C182.513 7.72257 182.987 8.24908 183.324 8.92711C183.661 9.60514 183.83 10.3968 183.83 11.3021C183.83 12.2036 183.661 12.9915 183.324 13.6657C182.987 14.34 182.513 14.8646 181.904 15.2396C181.294 15.6146 180.58 15.8021 179.762 15.8021ZM179.767 14.376C180.298 14.376 180.737 14.2358 181.085 13.9555C181.434 13.6752 181.691 13.3021 181.858 12.8362C182.029 12.3703 182.114 11.857 182.114 11.2964C182.114 10.7396 182.029 10.2282 181.858 9.76234C181.691 9.29264 181.434 8.91575 181.085 8.63166C180.737 8.34757 180.298 8.20552 179.767 8.20552C179.233 8.20552 178.79 8.34757 178.438 8.63166C178.089 8.91575 177.83 9.29264 177.659 9.76234C177.493 10.2282 177.409 10.7396 177.409 11.2964C177.409 11.857 177.493 12.3703 177.659 12.8362C177.83 13.3021 178.089 13.6752 178.438 13.9555C178.79 14.2358 179.233 14.376 179.767 14.376ZM185.726 15.626V6.8987H187.357V8.31916H187.465C187.646 7.8381 187.944 7.4631 188.357 7.19416C188.77 6.92143 189.264 6.78507 189.84 6.78507C190.423 6.78507 190.912 6.92143 191.306 7.19416C191.703 7.46689 191.997 7.84189 192.186 8.31916H192.277C192.485 7.85325 192.817 7.48204 193.271 7.20552C193.726 6.92522 194.268 6.78507 194.896 6.78507C195.688 6.78507 196.334 7.03317 196.834 7.52939C197.338 8.0256 197.59 8.7737 197.59 9.7737V15.626H195.891V9.93279C195.891 9.34189 195.73 8.91386 195.408 8.6487C195.086 8.38355 194.701 8.25098 194.254 8.25098C193.701 8.25098 193.271 8.42143 192.965 8.76234C192.658 9.09946 192.504 9.53317 192.504 10.0635V15.626H190.811V9.82484C190.811 9.35136 190.664 8.97067 190.368 8.68279C190.073 8.39492 189.688 8.25098 189.215 8.25098C188.893 8.25098 188.595 8.3362 188.323 8.50666C188.054 8.67332 187.836 8.90628 187.669 9.20552C187.506 9.50476 187.425 9.85136 187.425 10.2453V15.626H185.726Z" fill="#0063AE"/>
<path d="M10.6792 18.9594C15.5944 18.9594 19.579 15.2284 19.579 10.6261C19.579 6.02368 15.5944 2.29272 10.6792 2.29272C5.7639 2.29272 1.7793 6.02368 1.7793 10.6261C1.7793 15.2284 5.7639 18.9594 10.6792 18.9594Z" stroke="#0063AE" stroke-width="2" stroke-linecap="round" stroke-linejoin="round"/>
<path d="M1.7793 10.626H19.579" stroke="#0063AE" stroke-width="2" stroke-linecap="round" stroke-linejoin="round"/>
<path d="M10.6791 2.29272C12.9052 4.57469 14.1703 7.53609 14.239 10.6261C14.1703 13.716 12.9052 16.6774 10.6791 18.9594C8.45298 16.6774 7.18789 13.716 7.11914 10.6261C7.18789 7.53609 8.45298 4.57469 10.6791 2.29272Z" stroke="#0063AE" stroke-width="2" stroke-linecap="round" stroke-linejoin="round"/>
</svg>
