<svg width="240" height="21" viewBox="0 0 240 21" fill="none" xmlns="http://www.w3.org/2000/svg">
<path d="M28.665 15.625L26.0968 6.89773H27.8525L29.5627 13.3068H29.6479L31.3638 6.89773H33.1195L34.824 13.2784H34.9093L36.6081 6.89773H38.3638L35.8013 15.625H34.0684L32.2956 9.32386H32.165L30.3922 15.625H28.665ZM41.8681 15.625L39.2999 6.89773H41.0556L42.7658 13.3068H42.851L44.5669 6.89773H46.3226L48.0272 13.2784H48.1124L49.8113 6.89773H51.5669L49.0044 15.625H47.2715L45.4988 9.32386H45.3681L43.5953 15.625H41.8681ZM55.0712 15.625L52.503 6.89773H54.2587L55.9689 13.3068H56.0542L57.7701 6.89773H59.5257L61.2303 13.2784H61.3155L63.0144 6.89773H64.7701L62.2076 15.625H60.4746L58.7019 9.32386H58.5712L56.7985 15.625H55.0712ZM66.3141 15.733C66.0035 15.733 65.7364 15.6231 65.513 15.4034C65.2895 15.1799 65.1777 14.911 65.1777 14.5966C65.1777 14.286 65.2895 14.0208 65.513 13.8011C65.7364 13.5777 66.0035 13.4659 66.3141 13.4659C66.6247 13.4659 66.8917 13.5777 67.1152 13.8011C67.3387 14.0208 67.4505 14.286 67.4505 14.5966C67.4505 14.8049 67.3974 14.9962 67.2914 15.1705C67.1891 15.3409 67.0527 15.4773 66.8823 15.5795C66.7118 15.6818 66.5224 15.733 66.3141 15.733ZM69.726 18.8977V6.89773H71.3851V8.3125H71.5272C71.6257 8.13068 71.7677 7.92045 71.9533 7.68182C72.1389 7.44318 72.3965 7.23485 72.726 7.05682C73.0556 6.875 73.4912 6.78409 74.0328 6.78409C74.7374 6.78409 75.3662 6.96212 75.9192 7.31818C76.4722 7.67424 76.906 8.1875 77.2203 8.85795C77.5385 9.52841 77.6976 10.3352 77.6976 11.2784C77.6976 12.2216 77.5404 13.0303 77.226 13.7045C76.9116 14.375 76.4798 14.892 75.9306 15.2557C75.3813 15.6155 74.7544 15.7955 74.0499 15.7955C73.5196 15.7955 73.0859 15.7064 72.7488 15.5284C72.4154 15.3504 72.1541 15.142 71.9647 14.9034C71.7753 14.6648 71.6294 14.4527 71.5272 14.267H71.4249V18.8977H69.726ZM71.3908 11.2614C71.3908 11.875 71.4798 12.4129 71.6578 12.875C71.8359 13.3371 72.0935 13.6989 72.4306 13.9602C72.7677 14.2178 73.1806 14.3466 73.6692 14.3466C74.1768 14.3466 74.601 14.2121 74.9419 13.9432C75.2828 13.6705 75.5404 13.3011 75.7147 12.8352C75.8927 12.3693 75.9817 11.8447 75.9817 11.2614C75.9817 10.6856 75.8946 10.1686 75.7203 9.71023C75.5499 9.25189 75.2923 8.89015 74.9476 8.625C74.6067 8.35985 74.1806 8.22727 73.6692 8.22727C73.1768 8.22727 72.7601 8.35417 72.4192 8.60795C72.0821 8.86174 71.8264 9.21591 71.6522 9.67045C71.4779 10.125 71.3908 10.6553 71.3908 11.2614ZM85.1294 12.0057V6.89773H86.834V15.625H85.1635V14.1136H85.0726C84.8719 14.5795 84.5499 14.9678 84.1067 15.2784C83.6673 15.5852 83.12 15.7386 82.4647 15.7386C81.9041 15.7386 81.4078 15.6155 80.976 15.3693C80.548 15.1193 80.2109 14.75 79.9647 14.2614C79.7222 13.7727 79.601 13.1686 79.601 12.4489V6.89773H81.2999V12.2443C81.2999 12.839 81.4647 13.3125 81.7942 13.6648C82.1238 14.017 82.5518 14.1932 83.0783 14.1932C83.3965 14.1932 83.7128 14.1136 84.0272 13.9545C84.3453 13.7955 84.6086 13.5549 84.8169 13.233C85.0291 12.911 85.1332 12.5019 85.1294 12.0057ZM89.253 15.625V3.98864H90.9519V8.3125H91.0542C91.1526 8.13068 91.2947 7.92045 91.4803 7.68182C91.6659 7.44318 91.9235 7.23485 92.253 7.05682C92.5826 6.875 93.0182 6.78409 93.5598 6.78409C94.2644 6.78409 94.8932 6.96212 95.4462 7.31818C95.9992 7.67424 96.4329 8.1875 96.7473 8.85795C97.0655 9.52841 97.2246 10.3352 97.2246 11.2784C97.2246 12.2216 97.0674 13.0303 96.753 13.7045C96.4386 14.375 96.0068 14.892 95.4576 15.2557C94.9083 15.6155 94.2814 15.7955 93.5769 15.7955C93.0466 15.7955 92.6129 15.7064 92.2757 15.5284C91.9424 15.3504 91.681 15.142 91.4917 14.9034C91.3023 14.6648 91.1564 14.4527 91.0542 14.267H90.9121V15.625H89.253ZM90.9178 11.2614C90.9178 11.875 91.0068 12.4129 91.1848 12.875C91.3629 13.3371 91.6204 13.6989 91.9576 13.9602C92.2947 14.2178 92.7076 14.3466 93.1962 14.3466C93.7038 14.3466 94.128 14.2121 94.4689 13.9432C94.8098 13.6705 95.0674 13.3011 95.2417 12.8352C95.4197 12.3693 95.5087 11.8447 95.5087 11.2614C95.5087 10.6856 95.4216 10.1686 95.2473 9.71023C95.0769 9.25189 94.8193 8.89015 94.4746 8.625C94.1337 8.35985 93.7076 8.22727 93.1962 8.22727C92.7038 8.22727 92.2871 8.35417 91.9462 8.60795C91.6091 8.86174 91.3534 9.21591 91.1792 9.67045C91.0049 10.125 90.9178 10.6553 90.9178 11.2614ZM100.831 3.98864V15.625H99.1323V3.98864H100.831ZM103.117 15.625V6.89773H104.816V15.625H103.117ZM103.975 5.55114C103.679 5.55114 103.425 5.45265 103.213 5.25568C103.005 5.05492 102.901 4.81629 102.901 4.53977C102.901 4.25947 103.005 4.02083 103.213 3.82386C103.425 3.62311 103.679 3.52273 103.975 3.52273C104.27 3.52273 104.522 3.62311 104.73 3.82386C104.942 4.02083 105.048 4.25947 105.048 4.53977C105.048 4.81629 104.942 5.05492 104.73 5.25568C104.522 5.45265 104.27 5.55114 103.975 5.55114ZM110.777 15.8011C109.932 15.8011 109.205 15.6098 108.595 15.2273C107.989 14.8409 107.523 14.3087 107.198 13.6307C106.872 12.9527 106.709 12.1761 106.709 11.3011C106.709 10.4148 106.876 9.63258 107.209 8.95455C107.542 8.27273 108.012 7.74053 108.618 7.35795C109.224 6.97538 109.938 6.78409 110.76 6.78409C111.423 6.78409 112.014 6.9072 112.533 7.15341C113.052 7.39583 113.47 7.73674 113.789 8.17614C114.11 8.61553 114.302 9.12879 114.362 9.71591H112.709C112.618 9.30682 112.41 8.95455 112.084 8.65909C111.762 8.36364 111.33 8.21591 110.789 8.21591C110.315 8.21591 109.9 8.34091 109.544 8.59091C109.192 8.83712 108.917 9.18939 108.72 9.64773C108.523 10.1023 108.425 10.6402 108.425 11.2614C108.425 11.8977 108.521 12.447 108.715 12.9091C108.908 13.3712 109.181 13.7292 109.533 13.983C109.889 14.2367 110.307 14.3636 110.789 14.3636C111.11 14.3636 111.402 14.3049 111.664 14.1875C111.929 14.0663 112.15 13.8939 112.328 13.6705C112.51 13.447 112.637 13.178 112.709 12.8636H114.362C114.302 13.428 114.118 13.9318 113.811 14.375C113.504 14.8182 113.093 15.1667 112.578 15.4205C112.067 15.6742 111.467 15.8011 110.777 15.8011ZM116.179 18.8977V6.89773H117.838V8.3125H117.98C118.079 8.13068 118.221 7.92045 118.406 7.68182C118.592 7.44318 118.85 7.23485 119.179 7.05682C119.509 6.875 119.944 6.78409 120.486 6.78409C121.191 6.78409 121.819 6.96212 122.372 7.31818C122.925 7.67424 123.359 8.1875 123.673 8.85795C123.992 9.52841 124.151 10.3352 124.151 11.2784C124.151 12.2216 123.994 13.0303 123.679 13.7045C123.365 14.375 122.933 14.892 122.384 15.2557C121.834 15.6155 121.208 15.7955 120.503 15.7955C119.973 15.7955 119.539 15.7064 119.202 15.5284C118.869 15.3504 118.607 15.142 118.418 14.9034C118.228 14.6648 118.083 14.4527 117.98 14.267H117.878V18.8977H116.179ZM117.844 11.2614C117.844 11.875 117.933 12.4129 118.111 12.875C118.289 13.3371 118.547 13.6989 118.884 13.9602C119.221 14.2178 119.634 14.3466 120.122 14.3466C120.63 14.3466 121.054 14.2121 121.395 13.9432C121.736 13.6705 121.994 13.3011 122.168 12.8352C122.346 12.3693 122.435 11.8447 122.435 11.2614C122.435 10.6856 122.348 10.1686 122.173 9.71023C122.003 9.25189 121.745 8.89015 121.401 8.625C121.06 8.35985 120.634 8.22727 120.122 8.22727C119.63 8.22727 119.213 8.35417 118.872 8.60795C118.535 8.86174 118.28 9.21591 118.105 9.67045C117.931 10.125 117.844 10.6553 117.844 11.2614ZM129.73 15.8011C128.912 15.8011 128.198 15.6136 127.588 15.2386C126.978 14.8636 126.505 14.339 126.168 13.6648C125.831 12.9905 125.662 12.2027 125.662 11.3011C125.662 10.3958 125.831 9.60417 126.168 8.92614C126.505 8.24811 126.978 7.72159 127.588 7.34659C128.198 6.97159 128.912 6.78409 129.73 6.78409C130.548 6.78409 131.262 6.97159 131.872 7.34659C132.482 7.72159 132.956 8.24811 133.293 8.92614C133.63 9.60417 133.798 10.3958 133.798 11.3011C133.798 12.2027 133.63 12.9905 133.293 13.6648C132.956 14.339 132.482 14.8636 131.872 15.2386C131.262 15.6136 130.548 15.8011 129.73 15.8011ZM129.736 14.375C130.266 14.375 130.706 14.2348 131.054 13.9545C131.403 13.6742 131.66 13.3011 131.827 12.8352C131.997 12.3693 132.083 11.8561 132.083 11.2955C132.083 10.7386 131.997 10.2273 131.827 9.76136C131.66 9.29167 131.403 8.91477 131.054 8.63068C130.706 8.34659 130.266 8.20455 129.736 8.20455C129.202 8.20455 128.759 8.34659 128.406 8.63068C128.058 8.91477 127.798 9.29167 127.628 9.76136C127.461 10.2273 127.378 10.7386 127.378 11.2955C127.378 11.8561 127.461 12.3693 127.628 12.8352C127.798 13.3011 128.058 13.6742 128.406 13.9545C128.759 14.2348 129.202 14.375 129.736 14.375ZM142.235 9.02841L140.695 9.30114C140.63 9.10417 140.528 8.91667 140.388 8.73864C140.252 8.56061 140.066 8.41477 139.831 8.30114C139.596 8.1875 139.303 8.13068 138.95 8.13068C138.469 8.13068 138.068 8.23864 137.746 8.45455C137.424 8.66667 137.263 8.94129 137.263 9.27841C137.263 9.57008 137.371 9.80492 137.587 9.98295C137.803 10.161 138.151 10.3068 138.632 10.4205L140.019 10.7386C140.822 10.9242 141.42 11.2102 141.814 11.5966C142.208 11.983 142.405 12.4848 142.405 13.1023C142.405 13.625 142.253 14.0909 141.95 14.5C141.651 14.9053 141.233 15.2235 140.695 15.4545C140.161 15.6856 139.541 15.8011 138.837 15.8011C137.86 15.8011 137.062 15.5928 136.445 15.1761C135.827 14.7557 135.449 14.1591 135.308 13.3864L136.95 13.1364C137.053 13.5644 137.263 13.8883 137.581 14.108C137.899 14.3239 138.314 14.4318 138.825 14.4318C139.382 14.4318 139.827 14.3163 140.161 14.0852C140.494 13.8504 140.661 13.5644 140.661 13.2273C140.661 12.9545 140.558 12.7254 140.354 12.5398C140.153 12.3542 139.844 12.214 139.428 12.1193L137.95 11.7955C137.136 11.6098 136.534 11.3144 136.144 10.9091C135.757 10.5038 135.564 9.99053 135.564 9.36932C135.564 8.85417 135.708 8.40341 135.996 8.01705C136.284 7.63068 136.682 7.32955 137.189 7.11364C137.697 6.89394 138.278 6.78409 138.933 6.78409C139.877 6.78409 140.619 6.98864 141.161 7.39773C141.702 7.80303 142.06 8.34659 142.235 9.02841ZM148.347 6.89773V8.26136H143.58V6.89773H148.347ZM144.858 4.80682H146.557V13.0625C146.557 13.392 146.606 13.6402 146.705 13.8068C146.803 13.9697 146.93 14.0814 147.085 14.142C147.244 14.1989 147.417 14.2273 147.602 14.2273C147.739 14.2273 147.858 14.2178 147.96 14.1989C148.063 14.1799 148.142 14.1648 148.199 14.1534L148.506 15.5568C148.407 15.5947 148.267 15.6326 148.085 15.6705C147.904 15.7121 147.676 15.7348 147.404 15.7386C146.957 15.7462 146.54 15.6667 146.154 15.5C145.767 15.3333 145.455 15.0758 145.216 14.7273C144.977 14.3788 144.858 13.9413 144.858 13.4148V4.80682ZM151.925 10.4432V15.625H150.226V6.89773H151.857V8.31818H151.965C152.165 7.85606 152.48 7.48485 152.908 7.20455C153.34 6.92424 153.883 6.78409 154.539 6.78409C155.133 6.78409 155.654 6.90909 156.101 7.15909C156.548 7.4053 156.895 7.77273 157.141 8.26136C157.387 8.75 157.51 9.35417 157.51 10.0739V15.625H155.811V10.2784C155.811 9.64583 155.646 9.15152 155.317 8.79545C154.987 8.43561 154.535 8.25568 153.959 8.25568C153.565 8.25568 153.215 8.34091 152.908 8.51136C152.605 8.68182 152.364 8.93182 152.186 9.26136C152.012 9.58712 151.925 9.98106 151.925 10.4432ZM163.55 15.8011C162.69 15.8011 161.95 15.6174 161.328 15.25C160.711 14.8788 160.234 14.358 159.896 13.6875C159.563 13.0133 159.396 12.2235 159.396 11.3182C159.396 10.4242 159.563 9.63636 159.896 8.95455C160.234 8.27273 160.703 7.74053 161.306 7.35795C161.912 6.97538 162.62 6.78409 163.431 6.78409C163.923 6.78409 164.4 6.86553 164.862 7.02841C165.325 7.19129 165.739 7.44697 166.107 7.79545C166.474 8.14394 166.764 8.59659 166.976 9.15341C167.188 9.70644 167.294 10.3788 167.294 11.1705V11.7727H160.357V10.5H165.629C165.629 10.053 165.539 9.6572 165.357 9.3125C165.175 8.96402 164.919 8.68939 164.59 8.48864C164.264 8.28788 163.881 8.1875 163.442 8.1875C162.965 8.1875 162.548 8.30492 162.192 8.53977C161.84 8.77083 161.567 9.07386 161.374 9.44886C161.184 9.82008 161.09 10.2235 161.09 10.6591V11.6534C161.09 12.2367 161.192 12.733 161.396 13.142C161.605 13.5511 161.895 13.8636 162.266 14.0795C162.637 14.2917 163.071 14.3977 163.567 14.3977C163.889 14.3977 164.182 14.3523 164.448 14.2614C164.713 14.1667 164.942 14.0265 165.135 13.8409C165.328 13.6553 165.476 13.4261 165.578 13.1534L167.186 13.4432C167.057 13.9167 166.826 14.3314 166.493 14.6875C166.164 15.0398 165.749 15.3144 165.249 15.5114C164.753 15.7045 164.186 15.8011 163.55 15.8011ZM169.179 18.8977V6.89773H170.838V8.3125H170.98C171.079 8.13068 171.221 7.92045 171.406 7.68182C171.592 7.44318 171.85 7.23485 172.179 7.05682C172.509 6.875 172.944 6.78409 173.486 6.78409C174.191 6.78409 174.819 6.96212 175.372 7.31818C175.925 7.67424 176.359 8.1875 176.673 8.85795C176.992 9.52841 177.151 10.3352 177.151 11.2784C177.151 12.2216 176.994 13.0303 176.679 13.7045C176.365 14.375 175.933 14.892 175.384 15.2557C174.834 15.6155 174.208 15.7955 173.503 15.7955C172.973 15.7955 172.539 15.7064 172.202 15.5284C171.869 15.3504 171.607 15.142 171.418 14.9034C171.228 14.6648 171.083 14.4527 170.98 14.267H170.878V18.8977H169.179ZM170.844 11.2614C170.844 11.875 170.933 12.4129 171.111 12.875C171.289 13.3371 171.547 13.6989 171.884 13.9602C172.221 14.2178 172.634 14.3466 173.122 14.3466C173.63 14.3466 174.054 14.2121 174.395 13.9432C174.736 13.6705 174.994 13.3011 175.168 12.8352C175.346 12.3693 175.435 11.8447 175.435 11.2614C175.435 10.6856 175.348 10.1686 175.173 9.71023C175.003 9.25189 174.745 8.89015 174.401 8.625C174.06 8.35985 173.634 8.22727 173.122 8.22727C172.63 8.22727 172.213 8.35417 171.872 8.60795C171.535 8.86174 171.28 9.21591 171.105 9.67045C170.931 10.125 170.844 10.6553 170.844 11.2614ZM181.594 15.8182C181.041 15.8182 180.541 15.7159 180.094 15.5114C179.647 15.303 179.293 15.0019 179.031 14.608C178.774 14.214 178.645 13.7311 178.645 13.1591C178.645 12.6667 178.74 12.2614 178.929 11.9432C179.119 11.625 179.374 11.3731 179.696 11.1875C180.018 11.0019 180.378 10.8617 180.776 10.767C181.173 10.6723 181.579 10.6004 181.992 10.5511C182.514 10.4905 182.939 10.4413 183.264 10.4034C183.59 10.3617 183.827 10.2955 183.975 10.2045C184.122 10.1136 184.196 9.96591 184.196 9.76136V9.72159C184.196 9.22538 184.056 8.84091 183.776 8.56818C183.499 8.29545 183.086 8.15909 182.537 8.15909C181.965 8.15909 181.514 8.28598 181.185 8.53977C180.859 8.78977 180.634 9.06818 180.509 9.375L178.912 9.01136C179.102 8.48106 179.378 8.05303 179.742 7.72727C180.109 7.39773 180.531 7.15909 181.009 7.01136C181.486 6.85985 181.988 6.78409 182.514 6.78409C182.863 6.78409 183.232 6.82576 183.622 6.90909C184.016 6.98864 184.384 7.13636 184.725 7.35227C185.069 7.56818 185.352 7.87689 185.571 8.27841C185.791 8.67614 185.901 9.19318 185.901 9.82955V15.625H184.242V14.4318H184.173C184.064 14.6515 183.899 14.8674 183.679 15.0795C183.459 15.2917 183.177 15.4678 182.833 15.608C182.488 15.7481 182.075 15.8182 181.594 15.8182ZM181.963 14.4545C182.433 14.4545 182.834 14.3617 183.168 14.1761C183.505 13.9905 183.761 13.7481 183.935 13.4489C184.113 13.1458 184.202 12.822 184.202 12.4773V11.3523C184.141 11.4129 184.024 11.4697 183.85 11.5227C183.679 11.572 183.484 11.6155 183.264 11.6534C183.045 11.6875 182.831 11.7197 182.622 11.75C182.414 11.7765 182.24 11.7992 182.1 11.8182C181.77 11.8598 181.469 11.9299 181.196 12.0284C180.927 12.1269 180.711 12.2689 180.548 12.4545C180.389 12.6364 180.31 12.8788 180.31 13.1818C180.31 13.6023 180.465 13.9205 180.776 14.1364C181.086 14.3485 181.482 14.4545 181.963 14.4545ZM189.862 3.98864V15.625H188.164V3.98864H189.862ZM193.267 15.733C192.957 15.733 192.69 15.6231 192.466 15.4034C192.243 15.1799 192.131 14.911 192.131 14.5966C192.131 14.286 192.243 14.0208 192.466 13.8011C192.69 13.5777 192.957 13.4659 193.267 13.4659C193.578 13.4659 193.845 13.5777 194.068 13.8011C194.292 14.0208 194.404 14.286 194.404 14.5966C194.404 14.8049 194.351 14.9962 194.244 15.1705C194.142 15.3409 194.006 15.4773 193.835 15.5795C193.665 15.6818 193.476 15.733 193.267 15.733ZM200.355 15.8011C199.511 15.8011 198.783 15.6098 198.173 15.2273C197.567 14.8409 197.102 14.3087 196.776 13.6307C196.45 12.9527 196.287 12.1761 196.287 11.3011C196.287 10.4148 196.454 9.63258 196.787 8.95455C197.12 8.27273 197.59 7.74053 198.196 7.35795C198.802 6.97538 199.516 6.78409 200.338 6.78409C201.001 6.78409 201.592 6.9072 202.111 7.15341C202.63 7.39583 203.048 7.73674 203.367 8.17614C203.689 8.61553 203.88 9.12879 203.941 9.71591H202.287C202.196 9.30682 201.988 8.95455 201.662 8.65909C201.34 8.36364 200.908 8.21591 200.367 8.21591C199.893 8.21591 199.478 8.34091 199.122 8.59091C198.77 8.83712 198.495 9.18939 198.298 9.64773C198.102 10.1023 198.003 10.6402 198.003 11.2614C198.003 11.8977 198.1 12.447 198.293 12.9091C198.486 13.3712 198.759 13.7292 199.111 13.983C199.467 14.2367 199.886 14.3636 200.367 14.3636C200.689 14.3636 200.98 14.3049 201.242 14.1875C201.507 14.0663 201.728 13.8939 201.906 13.6705C202.088 13.447 202.215 13.178 202.287 12.8636H203.941C203.88 13.428 203.696 13.9318 203.389 14.375C203.083 14.8182 202.672 15.1667 202.156 15.4205C201.645 15.6742 201.045 15.8011 200.355 15.8011ZM209.433 15.8011C208.615 15.8011 207.901 15.6136 207.291 15.2386C206.682 14.8636 206.208 14.339 205.871 13.6648C205.534 12.9905 205.365 12.2027 205.365 11.3011C205.365 10.3958 205.534 9.60417 205.871 8.92614C206.208 8.24811 206.682 7.72159 207.291 7.34659C207.901 6.97159 208.615 6.78409 209.433 6.78409C210.252 6.78409 210.966 6.97159 211.575 7.34659C212.185 7.72159 212.659 8.24811 212.996 8.92614C213.333 9.60417 213.502 10.3958 213.502 11.3011C213.502 12.2027 213.333 12.9905 212.996 13.6648C212.659 14.339 212.185 14.8636 211.575 15.2386C210.966 15.6136 210.252 15.8011 209.433 15.8011ZM209.439 14.375C209.969 14.375 210.409 14.2348 210.757 13.9545C211.106 13.6742 211.363 13.3011 211.53 12.8352C211.7 12.3693 211.786 11.8561 211.786 11.2955C211.786 10.7386 211.7 10.2273 211.53 9.76136C211.363 9.29167 211.106 8.91477 210.757 8.63068C210.409 8.34659 209.969 8.20455 209.439 8.20455C208.905 8.20455 208.462 8.34659 208.11 8.63068C207.761 8.91477 207.502 9.29167 207.331 9.76136C207.164 10.2273 207.081 10.7386 207.081 11.2955C207.081 11.8561 207.164 12.3693 207.331 12.8352C207.502 13.3011 207.761 13.6742 208.11 13.9545C208.462 14.2348 208.905 14.375 209.439 14.375ZM215.398 15.625V6.89773H217.029V8.31818H217.137C217.318 7.83712 217.616 7.46212 218.029 7.19318C218.441 6.92045 218.936 6.78409 219.512 6.78409C220.095 6.78409 220.584 6.92045 220.977 7.19318C221.375 7.46591 221.669 7.84091 221.858 8.31818H221.949C222.157 7.85227 222.489 7.48106 222.943 7.20455C223.398 6.92424 223.94 6.78409 224.568 6.78409C225.36 6.78409 226.006 7.0322 226.506 7.52841C227.01 8.02462 227.262 8.77273 227.262 9.77273V15.625H225.563V9.93182C225.563 9.34091 225.402 8.91288 225.08 8.64773C224.758 8.38258 224.373 8.25 223.926 8.25C223.373 8.25 222.943 8.42045 222.637 8.76136C222.33 9.09848 222.176 9.5322 222.176 10.0625V15.625H220.483V9.82386C220.483 9.35038 220.335 8.9697 220.04 8.68182C219.744 8.39394 219.36 8.25 218.887 8.25C218.565 8.25 218.267 8.33523 217.994 8.50568C217.726 8.67235 217.508 8.9053 217.341 9.20455C217.178 9.50379 217.097 9.85038 217.097 10.2443V15.625H215.398Z" fill="#06479E"/>
<path d="M10.6792 18.9584C15.5944 18.9584 19.579 15.2275 19.579 10.6251C19.579 6.02271 15.5944 2.29175 10.6792 2.29175C5.7639 2.29175 1.7793 6.02271 1.7793 10.6251C1.7793 15.2275 5.7639 18.9584 10.6792 18.9584Z" stroke="#06479E" stroke-width="2" stroke-linecap="round" stroke-linejoin="round"/>
<path d="M1.7793 10.625H19.579" stroke="#06479E" stroke-width="2" stroke-linecap="round" stroke-linejoin="round"/>
<path d="M10.6791 2.29175C12.9052 4.57371 14.1703 7.53511 14.239 10.6251C14.1703 13.7151 12.9052 16.6765 10.6791 18.9584C8.45298 16.6765 7.18789 13.7151 7.11914 10.6251C7.18789 7.53511 8.45298 4.57371 10.6791 2.29175Z" stroke="#06479E" stroke-width="2" stroke-linecap="round" stroke-linejoin="round"/>
</svg>
