<svg width="333" height="13" viewBox="0 0 333 13" fill="none" xmlns="http://www.w3.org/2000/svg">
<path d="M253.089 1.12277C254.349 1.56396 255.575 1.9894 256.938 2.46211C257.857 2.21 258.845 2.0682 259.322 1.76882C262.217 -0.0117185 266.237 -0.326881 270.29 0.287641C274.582 0.933676 278.67 0.587046 282.928 0.587046C288.003 0.587046 293.181 0.271907 298.29 1.21732C302.003 1.91063 306.363 2.27304 309.156 0.271907C311.302 0.634317 313.141 1.24882 314.981 1.20155C317.569 1.15428 318.115 2.32032 319.988 2.52516C321.861 2.73 323.803 2.8403 326.869 3.07665C325.336 2.32032 324.655 1.97366 323.939 1.61125C327.414 1.29611 329.764 2.39908 333 3.0136C332.148 3.3445 331.74 3.65964 331.229 3.69116C327.822 3.896 324.552 4.28992 321.657 5.18807C320.022 5.69229 318.251 5.7238 316.445 5.45593C313.789 5.06201 311.234 5.18807 308.441 5.34564C304.013 5.59775 299.482 5.47171 294.986 5.4402C292.772 5.42444 290.558 5.23535 288.412 5.12506C288.207 4.8887 288.105 4.69959 287.935 4.51051C287.288 3.88023 286.198 3.70692 285.619 4.13236C285.04 4.5578 284.665 5.04627 284.12 5.59776C279.249 5.64504 274.514 5.69228 269.779 5.72379C267.054 5.73955 264.329 5.67652 261.638 5.80257C258.947 5.92863 256.733 5.58201 254.826 4.73113C255.371 4.7784 255.916 4.82566 256.461 4.87293C256.461 4.85717 256.461 4.85718 256.461 4.84142C255.916 4.79415 255.371 4.76263 254.86 4.71536C254.792 5.2511 253.838 5.53474 253.02 5.36141C250.329 4.82567 247.775 5.1093 245.118 5.36141C241.814 5.66079 238.408 5.84985 235.035 5.92864C228.257 6.11772 221.478 6.19652 214.666 6.33833C212.928 6.36985 211.532 6.11773 210.748 5.10928C208.33 6.11773 205.707 6.27531 202.948 6.18076C197.975 5.99168 193.002 5.99166 188.097 6.79527C187.484 6.36983 186.973 6.03895 186.36 5.62927C184.622 5.88138 182.783 6.24378 180.91 6.36984C179.138 6.4959 177.197 6.19651 175.528 6.40135C168.885 7.25222 162.005 6.74799 155.294 7.29948C154.204 7.39403 153.046 7.28373 151.922 7.2207C149.878 7.09464 147.971 7.26799 145.927 7.44132C141.499 7.83524 136.968 7.94552 132.472 8.16612C129.338 8.30793 126.17 8.43399 123.037 8.56004C122.594 8.5758 122.117 8.67034 121.708 8.63883C112.205 7.99279 102.906 9.60003 93.4021 9.22186C84.3754 10.2618 74.94 9.47397 65.9134 10.4824C65.4706 10.5297 64.9937 10.5297 64.5509 10.5297C60.4633 10.4194 56.5461 10.7503 52.5267 11.0654C36.9259 12.2787 21.1549 12.8302 5.34971 12.972C4.66845 12.972 3.98719 13.035 3.34 12.972C1.43248 12.8144 -0.270647 11.7902 0.0359187 10.9078C0.41061 9.77335 0.921527 8.65458 1.33028 7.61462C1.90935 7.40978 2.24999 7.20495 2.62468 7.18919C8.48349 6.90557 14.4104 6.27528 20.167 6.51164C25.4808 6.73223 30.454 6.40136 35.5294 6.02319C36.8578 5.92865 38.2203 6.00741 39.5828 5.96014C41.3541 5.91287 43.2276 5.96014 44.8966 5.72379C51.3686 4.76262 57.3296 5.29836 63.529 6.87405C67.2078 5.45593 71.3975 4.21114 76.8476 5.42442C78.142 4.79414 79.3342 4.21112 80.7648 3.51782C81.8548 3.73841 82.8767 3.91176 83.7964 4.13236C86.3511 4.76264 88.5992 4.57355 90.5067 3.58087L90.4386 3.56509C92.7549 3.89599 95.0711 4.21114 97.4896 4.55779C97.9324 4.0063 98.3071 3.5336 98.8521 2.8718C100.657 2.9821 102.633 3.01362 104.472 3.23422C106.618 3.48633 108.424 3.48632 109.854 2.58817C109.854 2.57241 110.434 2.74573 110.74 2.85603C110.808 2.96633 110.876 3.07663 110.944 3.17117C111.013 3.24996 111.081 3.32874 111.149 3.40752C111.013 3.20268 110.876 3.01359 110.74 2.80875C113.397 3.20268 115.577 2.82454 117.042 1.8161C119.699 2.11548 119.256 3.18693 120.141 3.84873C121.368 4.76263 122.935 5.15656 125.523 4.84142C124.706 4.52628 123.99 4.32145 123.48 4.02207C122.696 3.54936 123.037 2.79302 124.059 2.71423C126.715 2.49364 129.372 2.33608 132.063 2.21002C134.277 2.09972 136.832 2.36756 138.706 1.94212C141.499 1.29609 144.019 1.40641 146.472 1.89488C148.686 2.33608 150.764 2.38335 153.046 2.21002C154.817 2.08396 156.691 2.08394 158.462 2.22575C161.017 2.41484 163.333 2.43062 165.683 1.8161C166.773 1.54823 168.306 1.6585 169.635 1.59548C170.725 1.53245 171.951 1.56398 172.939 1.37489C175.732 0.8234 178.695 0.933699 181.523 0.66583C187.586 0.0828233 192.968 0.933676 198.554 1.62698C200.019 1.80031 201.994 1.94214 203.118 1.64275C205.094 1.10702 207.036 1.57973 208.909 1.29611C210.578 1.044 212.384 0.996734 214.019 0.870679C215.245 1.53247 216.233 2.22575 217.561 2.69846C218.276 2.95057 219.911 2.98211 220.627 2.76151C221.172 2.58819 220.933 1.86337 221.07 1.34339C225.361 0.807651 228.563 2.60393 232.515 2.90331C233.094 2.14698 231.97 2.11545 231.322 1.86334C230.88 1.69001 230.573 1.42216 230.267 1.21732C230.505 1.05975 230.607 0.933699 230.743 0.902185C232.821 0.397962 234.661 1.10703 236.636 1.13854C238.578 1.17005 240.622 0.650066 242.495 0.776121C245.22 0.965205 247.707 1.15429 250.364 0.618552C251.011 0.492496 252.305 1.01248 253.327 1.24883L253.089 1.12277ZM181.829 4.19537C183.294 3.78569 184.793 3.39178 186.223 2.95059C186.462 2.8718 186.462 2.61967 186.666 2.33604C185.44 1.98939 184.384 1.37487 182.579 2.09969C182.374 2.74573 182.136 3.43905 181.897 4.13236C181.727 4.14812 181.523 4.19537 181.352 4.19537C181.216 4.17962 181.114 4.10085 180.978 4.05358C181.284 4.08509 181.557 4.13234 181.829 4.19537ZM264.466 2.16274C268.723 4.08509 269.132 4.22691 273.152 4.8887C273.492 4.95173 274.071 4.68384 275.195 4.43173C273.254 4.16386 271.891 4.0851 270.835 3.78571C269.745 3.45482 269.03 2.87179 268.008 2.46211C267.02 2.05243 265.896 1.627 264.466 2.16274ZM160.438 4.06931C155.396 3.07662 155.294 3.07662 150.049 4.06931C152.433 4.06931 153.898 4.06931 155.328 4.06931C157.031 4.06931 158.735 4.06931 160.438 4.06931ZM310.893 4.33721C314.47 4.43175 312.733 3.06089 313.857 2.63545C313.891 2.61969 313.482 2.36759 312.971 1.97367C312.222 2.80878 311.643 3.48633 310.893 4.33721ZM283.03 2.05245C282.996 2.14699 282.928 2.25728 282.894 2.35182C283.881 2.49363 284.835 2.65119 285.857 2.77725C285.925 2.793 286.198 2.63545 286.232 2.55666C286.266 2.47788 286.198 2.2888 286.096 2.2888C285.074 2.19426 284.052 2.13123 283.03 2.05245ZM135.095 3.70693C134.516 4.21115 133.937 4.479 134.039 4.66808C134.209 4.92019 134.822 5.23534 135.333 5.26685C135.708 5.29837 136.628 4.8887 136.56 4.73113C136.458 4.43175 135.844 4.17964 135.095 3.70693ZM265.726 1.04398C267.088 1.18579 267.702 1.29609 268.315 1.31184C268.621 1.3276 268.962 1.17006 269.303 1.10703C268.928 1.02825 268.587 0.870679 268.213 0.870679C267.633 0.839165 267.054 0.933683 265.726 1.04398ZM245.118 2.82453C245.288 2.77725 245.459 2.72998 245.629 2.66696C245.39 2.52514 245.186 2.38333 244.948 2.27303C244.914 2.25727 244.607 2.36756 244.437 2.41483C244.675 2.55664 244.914 2.69847 245.118 2.82453ZM305 3.75417C304.796 3.76993 304.592 3.76996 304.387 3.78571C304.489 3.92753 304.592 4.05356 304.694 4.19537C304.864 4.13234 305.103 4.0851 305.137 4.02207C305.239 3.94328 305.069 3.84871 305 3.75417ZM47.5536 8.70188L47.5876 8.5128L47.1107 8.59159L47.5536 8.70188Z" fill="#962CBB"/>
</svg>
