<svg width="36" height="35" viewBox="0 0 36 35" fill="none" xmlns="http://www.w3.org/2000/svg">
<path d="M16 8.59267C16 12.5104 12.6807 15.7549 8.5 15.7549C4.31926 15.7549 1 12.5104 1 8.59267C1 4.6749 4.31926 1.43042 8.5 1.43042C12.6807 1.43042 16 4.6749 16 8.59267Z" stroke="#EF3934" stroke-width="2"/>
<path d="M33 16.2748C33 20.1926 29.6807 23.4371 25.5 23.4371C21.3193 23.4371 18 20.1926 18 16.2748C18 12.357 21.3193 9.11255 25.5 9.11255C29.6807 9.11255 33 12.357 33 16.2748Z" stroke="#EF3934" stroke-width="2"/>
<path d="M35 29.7186C35 32.1355 33.1582 34 31 34C28.8418 34 27 32.1355 27 29.7186C27 27.3017 28.8418 25.4371 31 25.4371C33.1582 25.4371 35 27.3017 35 29.7186Z" stroke="#EF3934" stroke-width="2"/>
</svg>
