<svg width="138" height="40" viewBox="0 0 138 40" fill="none" xmlns="http://www.w3.org/2000/svg">
<path d="M24.3386 7.06076L25.8475 2L30.4397 5.16298L37 4.3406L34.1791 9.27484L36.2784 14.3989C35.4386 14.2976 32.5171 13.6397 31.1613 13.3235L24.3386 18.9535C23.1315 19.5102 24.2293 14.926 24.929 12.5643C24.929 12.2607 21.0366 11.257 19.0903 10.7931C18.3556 10.3376 22.283 8.11509 24.3386 7.06076Z" stroke="#252525" stroke-opacity="0.8" stroke-width="2"/>
<path d="M123.339 26.3585L124.847 21L129.44 24.349L136 23.4783L133.179 28.7028L135.278 34.1282C134.439 34.021 131.517 33.3244 130.161 32.9895L123.339 38.9508C122.131 39.5402 123.229 34.6864 123.929 32.1858C123.929 31.8643 120.037 30.8015 118.09 30.3103C117.356 29.828 121.283 27.4748 123.339 26.3585Z" stroke="#252525" stroke-opacity="0.8" stroke-width="2"/>
<path d="M6.3386 24.3585L7.84747 19L12.4397 22.349L19 21.4783L16.1791 26.7028L18.2784 32.1282C17.4386 32.021 14.5171 31.3244 13.1613 30.9895L6.3386 36.9508C5.1315 37.5402 6.22925 32.6864 6.92902 30.1858C6.92902 29.8643 3.03657 28.8015 1.09034 28.3103C0.355587 27.828 4.28303 25.4748 6.3386 24.3585Z" stroke="#252525" stroke-opacity="0.8" stroke-width="2"/>
</svg>
