<svg width="147" height="41" viewBox="0 0 147 41" fill="none" xmlns="http://www.w3.org/2000/svg">
<rect y="0.624756" width="147" height="40" rx="6.26" fill="#FF0000"/>
<path d="M21.2046 17.6853C21.149 17.1249 20.9105 16.6895 20.489 16.3792C20.0676 16.0689 19.4956 15.9138 18.7731 15.9138C18.2822 15.9138 17.8677 15.9833 17.5297 16.1222C17.1916 16.2565 16.9322 16.4441 16.7516 16.6849C16.5756 16.9257 16.4876 17.199 16.4876 17.5046C16.4784 17.7594 16.5316 17.9817 16.6474 18.1715C16.7678 18.3614 16.9322 18.5258 17.1406 18.6648C17.349 18.7991 17.5899 18.9172 17.8631 19.0191C18.1363 19.1163 18.4281 19.1997 18.7384 19.2692L20.0166 19.5748C20.6372 19.7138 21.2069 19.899 21.7256 20.1306C22.2443 20.3621 22.6935 20.647 23.0733 20.985C23.4531 21.3231 23.7471 21.7214 23.9555 22.1799C24.1686 22.6384 24.2774 23.1641 24.282 23.7569C24.2774 24.6275 24.0551 25.3824 23.6151 26.0216C23.1798 26.656 22.55 27.1493 21.7256 27.5012C20.9059 27.8486 19.9171 28.0223 18.7593 28.0223C17.6107 28.0223 16.6103 27.8463 15.7582 27.4943C14.9107 27.1423 14.2484 26.6213 13.7714 25.9312C13.299 25.2366 13.0512 24.3774 13.0281 23.3539H15.9388C15.9712 23.831 16.1079 24.2292 16.3487 24.5488C16.5941 24.8637 16.9206 25.1022 17.3282 25.2643C17.7404 25.4218 18.2058 25.5005 18.7245 25.5005C19.234 25.5005 19.6762 25.4264 20.0514 25.2782C20.4311 25.13 20.7252 24.9239 20.9336 24.66C21.142 24.396 21.2462 24.0926 21.2462 23.7499C21.2462 23.4304 21.1513 23.1617 20.9614 22.9441C20.7762 22.7264 20.5029 22.5411 20.1417 22.3883C19.7851 22.2355 19.3474 22.0965 18.8287 21.9715L17.2796 21.5825C16.0801 21.2907 15.133 20.8345 14.4383 20.2139C13.7436 19.5933 13.3986 18.7574 13.4032 17.7061C13.3986 16.8447 13.6278 16.0921 14.0909 15.4484C14.5587 14.8046 15.2001 14.3021 16.0152 13.9409C16.8303 13.5796 17.7566 13.399 18.794 13.399C19.8499 13.399 20.7715 13.5796 21.5589 13.9409C22.3508 14.3021 22.9668 14.8046 23.4067 15.4484C23.8467 16.0921 24.0736 16.8377 24.0875 17.6853H21.2046ZM33.6793 23.2775V17.1503H36.6387V27.8208H33.7974V25.8826H33.6863C33.4455 26.5078 33.0449 27.0103 32.4845 27.3901C31.9287 27.7699 31.2502 27.9597 30.449 27.9597C29.7358 27.9597 29.1083 27.7976 28.5664 27.4735C28.0246 27.1493 27.6008 26.6885 27.2951 26.091C26.9941 25.4936 26.8413 24.7781 26.8366 23.9444V17.1503H29.796V23.4165C29.8007 24.0463 29.9697 24.5442 30.3031 24.91C30.6366 25.2759 31.0835 25.4589 31.6439 25.4589C32.0005 25.4589 32.334 25.3778 32.6443 25.2157C32.9545 25.049 33.2046 24.8035 33.3945 24.4793C33.589 24.1551 33.684 23.7545 33.6793 23.2775ZM42.5521 21.6519V27.8208H39.5928V17.1503H42.4132V19.033H42.5383C42.7744 18.4124 43.1704 17.9215 43.7262 17.5602C44.2819 17.1943 44.9558 17.0114 45.7477 17.0114C46.4887 17.0114 47.1348 17.1735 47.6859 17.4977C48.237 17.8219 48.6654 18.285 48.9711 18.8871C49.2768 19.4845 49.4296 20.1977 49.4296 21.0267V27.8208H46.4702V21.5547C46.4748 20.9017 46.3081 20.3922 45.97 20.0264C45.6319 19.6559 45.1665 19.4706 44.5737 19.4706C44.1754 19.4706 43.8234 19.5563 43.5178 19.7276C43.2167 19.899 42.9805 20.1491 42.8092 20.4779C42.6425 20.8021 42.5568 21.1934 42.5521 21.6519ZM52.3489 27.8208V17.1503H55.3083V27.8208H52.3489ZM53.8355 15.7749C53.3956 15.7749 53.0181 15.629 52.7032 15.3372C52.3929 15.0408 52.2377 14.6865 52.2377 14.2743C52.2377 13.8668 52.3929 13.5171 52.7032 13.2253C53.0181 12.9289 53.3956 12.7807 53.8355 12.7807C54.2755 12.7807 54.6506 12.9289 54.9609 13.2253C55.2759 13.5171 55.4333 13.8668 55.4333 14.2743C55.4333 14.6865 55.2759 15.0408 54.9609 15.3372C54.6506 15.629 54.2755 15.7749 53.8355 15.7749ZM63.9414 17.1503V19.3734H57.5155V17.1503H63.9414ZM58.9744 14.5939H61.9337V24.5419C61.9337 24.8151 61.9754 25.0281 62.0588 25.181C62.1422 25.3292 62.2579 25.4334 62.4061 25.4936C62.559 25.5538 62.735 25.5839 62.9341 25.5839C63.073 25.5839 63.212 25.5723 63.3509 25.5492C63.4899 25.5214 63.5964 25.5005 63.6705 25.4866L64.1359 27.6888C63.9877 27.7351 63.7793 27.7884 63.5107 27.8486C63.2421 27.9134 62.9156 27.9528 62.5312 27.9667C61.818 27.9945 61.1927 27.8995 60.6555 27.6819C60.1229 27.4642 59.7084 27.1261 59.412 26.6676C59.1156 26.2091 58.9697 25.6302 58.9744 24.9309V14.5939ZM69.4988 28.0223C68.818 28.0223 68.2113 27.9042 67.6787 27.668C67.1461 27.4271 66.7247 27.0729 66.4144 26.6051C66.1087 26.1327 65.9559 25.5445 65.9559 24.8406C65.9559 24.2478 66.0647 23.7499 66.2824 23.347C66.5 22.9441 66.7964 22.6199 67.1716 22.3744C67.5467 22.129 67.9728 21.9437 68.4498 21.8187C68.9315 21.6936 69.4363 21.6056 69.9642 21.5547C70.5848 21.4898 71.085 21.4296 71.4648 21.3741C71.8445 21.3139 72.1201 21.2259 72.2915 21.1101C72.4628 20.9943 72.5485 20.8229 72.5485 20.596V20.5543C72.5485 20.1144 72.4096 19.774 72.1317 19.5331C71.8584 19.2923 71.4694 19.1719 70.9646 19.1719C70.432 19.1719 70.0082 19.29 69.6933 19.5262C69.3784 19.7578 69.17 20.0495 69.0681 20.4015L66.331 20.1792C66.4699 19.5308 66.7432 18.9704 67.1507 18.498C67.5583 18.021 68.0839 17.6552 68.7277 17.4004C69.3761 17.1411 70.1263 17.0114 70.9785 17.0114C71.5713 17.0114 72.1386 17.0809 72.6805 17.2198C73.227 17.3588 73.7109 17.5741 74.1324 17.8659C74.5585 18.1576 74.8942 18.5328 75.1397 18.9913C75.3851 19.4451 75.5079 19.9893 75.5079 20.6238V27.8208H72.7013V26.3411H72.618C72.4466 26.6746 72.2174 26.9686 71.9302 27.2234C71.6431 27.4735 71.298 27.6703 70.8951 27.8139C70.4922 27.9528 70.0268 28.0223 69.4988 28.0223ZM70.3463 25.9799C70.7817 25.9799 71.1661 25.8942 71.4995 25.7228C71.833 25.5468 72.0946 25.3107 72.2845 25.0142C72.4744 24.7178 72.5693 24.3821 72.5693 24.0069V22.8746C72.4767 22.9348 72.3493 22.9904 72.1873 23.0413C72.0298 23.0876 71.8515 23.1316 71.6523 23.1733C71.4532 23.2104 71.254 23.2451 71.0549 23.2775C70.8558 23.3053 70.6751 23.3308 70.513 23.3539C70.1657 23.4049 69.8624 23.4859 69.603 23.5971C69.3436 23.7082 69.1422 23.8587 68.9986 24.0486C68.855 24.2339 68.7833 24.4654 68.7833 24.7433C68.7833 25.1462 68.9291 25.4542 69.2209 25.6673C69.5173 25.8757 69.8925 25.9799 70.3463 25.9799ZM83.5608 27.8208V13.5935H89.2573C90.3039 13.5935 91.1769 13.7487 91.8763 14.059C92.5756 14.3693 93.1012 14.8 93.4532 15.3511C93.8052 15.8976 93.9812 16.5274 93.9812 17.2407C93.9812 17.7964 93.87 18.285 93.6477 18.7065C93.4254 19.1233 93.1197 19.466 92.7307 19.7346C92.3463 19.9986 91.9064 20.1861 91.4108 20.2973V20.4362C91.9527 20.4594 92.4598 20.6122 92.9322 20.8947C93.4092 21.1772 93.7959 21.5732 94.0923 22.0827C94.3887 22.5875 94.5369 23.1895 94.5369 23.8888C94.5369 24.6437 94.3494 25.3176 93.9742 25.9104C93.6037 26.4986 93.0549 26.964 92.3278 27.3067C91.6007 27.6494 90.7045 27.8208 89.6393 27.8208H83.5608ZM86.5688 25.3616H89.0211C89.8593 25.3616 90.4707 25.2018 90.8551 24.8823C91.2395 24.5581 91.4316 24.1274 91.4316 23.5901C91.4316 23.1965 91.3367 22.8491 91.1468 22.5481C90.9569 22.2471 90.686 22.0109 90.334 21.8395C89.9867 21.6682 89.5722 21.5825 89.0905 21.5825H86.5688V25.3616ZM86.5688 19.547H88.7988C89.211 19.547 89.5768 19.4752 89.8964 19.3317C90.2206 19.1835 90.4753 18.9751 90.6605 18.7065C90.8504 18.4378 90.9454 18.116 90.9454 17.7408C90.9454 17.2268 90.7624 16.8123 90.3966 16.4973C90.0353 16.1824 89.5212 16.0249 88.8543 16.0249H86.5688V19.547ZM100.068 28.0223C99.3875 28.0223 98.7808 27.9042 98.2482 27.668C97.7156 27.4271 97.2941 27.0729 96.9838 26.6051C96.6782 26.1327 96.5253 25.5445 96.5253 24.8406C96.5253 24.2478 96.6342 23.7499 96.8518 23.347C97.0695 22.9441 97.3659 22.6199 97.741 22.3744C98.1162 22.129 98.5423 21.9437 99.0193 21.8187C99.5009 21.6936 100.006 21.6056 100.534 21.5547C101.154 21.4898 101.654 21.4296 102.034 21.3741C102.414 21.3139 102.69 21.2259 102.861 21.1101C103.032 20.9943 103.118 20.8229 103.118 20.596V20.5543C103.118 20.1144 102.979 19.774 102.701 19.5331C102.428 19.2923 102.039 19.1719 101.534 19.1719C101.001 19.1719 100.578 19.29 100.263 19.5262C99.9478 19.7578 99.7394 20.0495 99.6375 20.4015L96.9005 20.1792C97.0394 19.5308 97.3126 18.9704 97.7202 18.498C98.1278 18.021 98.6534 17.6552 99.2972 17.4004C99.9455 17.1411 100.696 17.0114 101.548 17.0114C102.141 17.0114 102.708 17.0809 103.25 17.2198C103.796 17.3588 104.28 17.5741 104.702 17.8659C105.128 18.1576 105.464 18.5328 105.709 18.9913C105.955 19.4451 106.077 19.9893 106.077 20.6238V27.8208H103.271V26.3411H103.187C103.016 26.6746 102.787 26.9686 102.5 27.2234C102.213 27.4735 101.868 27.6703 101.465 27.8139C101.062 27.9528 100.596 28.0223 100.068 28.0223ZM100.916 25.9799C101.351 25.9799 101.736 25.8942 102.069 25.7228C102.402 25.5468 102.664 25.3107 102.854 25.0142C103.044 24.7178 103.139 24.3821 103.139 24.0069V22.8746C103.046 22.9348 102.919 22.9904 102.757 23.0413C102.599 23.0876 102.421 23.1316 102.222 23.1733C102.023 23.2104 101.824 23.2451 101.624 23.2775C101.425 23.3053 101.245 23.3308 101.083 23.3539C100.735 23.4049 100.432 23.4859 100.172 23.5971C99.9131 23.7082 99.7116 23.8587 99.5681 24.0486C99.4245 24.2339 99.3527 24.4654 99.3527 24.7433C99.3527 25.1462 99.4986 25.4542 99.7904 25.6673C100.087 25.8757 100.462 25.9799 100.916 25.9799ZM108.96 27.8208V17.1503H111.829V19.0121H111.94C112.135 18.3498 112.461 17.8497 112.92 17.5116C113.378 17.1689 113.906 16.9975 114.504 16.9975C114.652 16.9975 114.812 17.0068 114.983 17.0253C115.154 17.0438 115.305 17.0693 115.435 17.1017V19.7276C115.296 19.686 115.104 19.6489 114.858 19.6165C114.613 19.5841 114.388 19.5679 114.184 19.5679C113.749 19.5679 113.36 19.6628 113.017 19.8527C112.679 20.0379 112.41 20.2973 112.211 20.6307C112.017 20.9642 111.92 21.3486 111.92 21.7839V27.8208H108.96ZM120.289 28.0223C119.608 28.0223 119.001 27.9042 118.469 27.668C117.936 27.4271 117.515 27.0729 117.204 26.6051C116.899 26.1327 116.746 25.5445 116.746 24.8406C116.746 24.2478 116.855 23.7499 117.072 23.347C117.29 22.9441 117.586 22.6199 117.961 22.3744C118.337 22.129 118.763 21.9437 119.24 21.8187C119.721 21.6936 120.226 21.6056 120.754 21.5547C121.375 21.4898 121.875 21.4296 122.255 21.3741C122.634 21.3139 122.91 21.2259 123.081 21.1101C123.253 20.9943 123.338 20.8229 123.338 20.596V20.5543C123.338 20.1144 123.199 19.774 122.922 19.5331C122.648 19.2923 122.259 19.1719 121.754 19.1719C121.222 19.1719 120.798 19.29 120.483 19.5262C120.168 19.7578 119.96 20.0495 119.858 20.4015L117.121 20.1792C117.26 19.5308 117.533 18.9704 117.941 18.498C118.348 18.021 118.874 17.6552 119.518 17.4004C120.166 17.1411 120.916 17.0114 121.768 17.0114C122.361 17.0114 122.929 17.0809 123.47 17.2198C124.017 17.3588 124.501 17.5741 124.922 17.8659C125.348 18.1576 125.684 18.5328 125.93 18.9913C126.175 19.4451 126.298 19.9893 126.298 20.6238V27.8208H123.491V26.3411H123.408C123.237 26.6746 123.007 26.9686 122.72 27.2234C122.433 27.4735 122.088 27.6703 121.685 27.8139C121.282 27.9528 120.817 28.0223 120.289 28.0223ZM121.136 25.9799C121.572 25.9799 121.956 25.8942 122.289 25.7228C122.623 25.5468 122.885 25.3107 123.074 25.0142C123.264 24.7178 123.359 24.3821 123.359 24.0069V22.8746C123.267 22.9348 123.139 22.9904 122.977 23.0413C122.82 23.0876 122.641 23.1316 122.442 23.1733C122.243 23.2104 122.044 23.2451 121.845 23.2775C121.646 23.3053 121.465 23.3308 121.303 23.3539C120.956 23.4049 120.652 23.4859 120.393 23.5971C120.134 23.7082 119.932 23.8587 119.789 24.0486C119.645 24.2339 119.573 24.4654 119.573 24.7433C119.573 25.1462 119.719 25.4542 120.011 25.6673C120.307 25.8757 120.682 25.9799 121.136 25.9799ZM132.14 13.5935V27.8208H129.181V13.5935H132.14Z" fill="#F3F5FF"/>
</svg>
