<svg width="240" height="21" viewBox="0 0 240 21" fill="none" xmlns="http://www.w3.org/2000/svg">
<path d="M28.665 15.625L26.0968 6.89773H27.8525L29.5627 13.3068H29.6479L31.3638 6.89773H33.1195L34.824 13.2784H34.9093L36.6081 6.89773H38.3638L35.8013 15.625H34.0684L32.2956 9.32386H32.165L30.3922 15.625H28.665ZM41.8681 15.625L39.2999 6.89773H41.0556L42.7658 13.3068H42.851L44.5669 6.89773H46.3226L48.0272 13.2784H48.1124L49.8113 6.89773H51.5669L49.0044 15.625H47.2715L45.4988 9.32386H45.3681L43.5953 15.625H41.8681ZM55.0712 15.625L52.503 6.89773H54.2587L55.9689 13.3068H56.0542L57.7701 6.89773H59.5257L61.2303 13.2784H61.3155L63.0144 6.89773H64.7701L62.2076 15.625H60.4746L58.7019 9.32386H58.5712L56.7985 15.625H55.0712ZM66.3141 15.733C66.0035 15.733 65.7364 15.6231 65.513 15.4034C65.2895 15.1799 65.1777 14.911 65.1777 14.5966C65.1777 14.286 65.2895 14.0208 65.513 13.8011C65.7364 13.5777 66.0035 13.4659 66.3141 13.4659C66.6247 13.4659 66.8917 13.5777 67.1152 13.8011C67.3387 14.0208 67.4505 14.286 67.4505 14.5966C67.4505 14.8049 67.3974 14.9962 67.2914 15.1705C67.1891 15.3409 67.0527 15.4773 66.8823 15.5795C66.7118 15.6818 66.5224 15.733 66.3141 15.733ZM76.2658 9.02841L74.726 9.30114C74.6616 9.10417 74.5594 8.91667 74.4192 8.73864C74.2828 8.56061 74.0972 8.41477 73.8624 8.30114C73.6275 8.1875 73.334 8.13068 72.9817 8.13068C72.5007 8.13068 72.0991 8.23864 71.7772 8.45455C71.4552 8.66667 71.2942 8.94129 71.2942 9.27841C71.2942 9.57008 71.4022 9.80492 71.6181 9.98295C71.834 10.161 72.1825 10.3068 72.6635 10.4205L74.0499 10.7386C74.8529 10.9242 75.4514 11.2102 75.8453 11.5966C76.2393 11.983 76.4363 12.4848 76.4363 13.1023C76.4363 13.625 76.2847 14.0909 75.9817 14.5C75.6825 14.9053 75.2639 15.2235 74.726 15.4545C74.1919 15.6856 73.5726 15.8011 72.8681 15.8011C71.8908 15.8011 71.0935 15.5928 70.476 15.1761C69.8586 14.7557 69.4798 14.1591 69.3397 13.3864L70.9817 13.1364C71.084 13.5644 71.2942 13.8883 71.6124 14.108C71.9306 14.3239 72.3453 14.4318 72.8567 14.4318C73.4135 14.4318 73.8586 14.3163 74.1919 14.0852C74.5253 13.8504 74.6919 13.5644 74.6919 13.2273C74.6919 12.9545 74.5897 12.7254 74.3851 12.5398C74.1844 12.3542 73.8757 12.214 73.459 12.1193L71.9817 11.7955C71.1673 11.6098 70.565 11.3144 70.1749 10.9091C69.7885 10.5038 69.5953 9.99053 69.5953 9.36932C69.5953 8.85417 69.7393 8.40341 70.0272 8.01705C70.315 7.63068 70.7128 7.32955 71.2203 7.11364C71.7279 6.89394 72.3094 6.78409 72.9647 6.78409C73.9078 6.78409 74.6503 6.98864 75.1919 7.39773C75.7336 7.80303 76.0916 8.34659 76.2658 9.02841ZM83.8326 12.0057V6.89773H85.5371V15.625H83.8667V14.1136H83.7757C83.575 14.5795 83.253 14.9678 82.8098 15.2784C82.3704 15.5852 81.8231 15.7386 81.1678 15.7386C80.6072 15.7386 80.111 15.6155 79.6792 15.3693C79.2511 15.1193 78.914 14.75 78.6678 14.2614C78.4254 13.7727 78.3042 13.1686 78.3042 12.4489V6.89773H80.003V12.2443C80.003 12.839 80.1678 13.3125 80.4973 13.6648C80.8269 14.017 81.2549 14.1932 81.7814 14.1932C82.0996 14.1932 82.4159 14.1136 82.7303 13.9545C83.0485 13.7955 83.3117 13.5549 83.5201 13.233C83.7322 12.911 83.8364 12.5019 83.8326 12.0057ZM89.5186 10.4432V15.625H87.8198V6.89773H89.4505V8.31818H89.5584C89.7592 7.85606 90.0736 7.48485 90.5016 7.20455C90.9334 6.92424 91.477 6.78409 92.1323 6.78409C92.727 6.78409 93.2478 6.90909 93.6948 7.15909C94.1417 7.4053 94.4883 7.77273 94.7346 8.26136C94.9808 8.75 95.1039 9.35417 95.1039 10.0739V15.625H93.405V10.2784C93.405 9.64583 93.2402 9.15152 92.9107 8.79545C92.5811 8.43561 92.1285 8.25568 91.5527 8.25568C91.1588 8.25568 90.8084 8.34091 90.5016 8.51136C90.1986 8.68182 89.958 8.93182 89.78 9.26136C89.6058 9.58712 89.5186 9.98106 89.5186 10.4432ZM97.3823 15.625V6.89773H99.0811V15.625H97.3823ZM98.2402 5.55114C97.9448 5.55114 97.691 5.45265 97.4789 5.25568C97.2705 5.05492 97.1664 4.81629 97.1664 4.53977C97.1664 4.25947 97.2705 4.02083 97.4789 3.82386C97.691 3.62311 97.9448 3.52273 98.2402 3.52273C98.5357 3.52273 98.7876 3.62311 98.9959 3.82386C99.208 4.02083 99.3141 4.25947 99.3141 4.53977C99.3141 4.81629 99.208 5.05492 98.9959 5.25568C98.7876 5.45265 98.5357 5.55114 98.2402 5.55114ZM105.441 6.89773V8.26136H100.673V6.89773H105.441ZM101.952 4.80682H103.651V13.0625C103.651 13.392 103.7 13.6402 103.798 13.8068C103.897 13.9697 104.024 14.0814 104.179 14.142C104.338 14.1989 104.511 14.2273 104.696 14.2273C104.833 14.2273 104.952 14.2178 105.054 14.1989C105.156 14.1799 105.236 14.1648 105.293 14.1534L105.6 15.5568C105.501 15.5947 105.361 15.6326 105.179 15.6705C104.997 15.7121 104.77 15.7348 104.497 15.7386C104.05 15.7462 103.634 15.6667 103.247 15.5C102.861 15.3333 102.548 15.0758 102.31 14.7273C102.071 14.3788 101.952 13.9413 101.952 13.4148V4.80682ZM109.86 15.8182C109.307 15.8182 108.807 15.7159 108.36 15.5114C107.913 15.303 107.558 15.0019 107.297 14.608C107.039 14.214 106.911 13.7311 106.911 13.1591C106.911 12.6667 107.005 12.2614 107.195 11.9432C107.384 11.625 107.64 11.3731 107.962 11.1875C108.284 11.0019 108.644 10.8617 109.041 10.767C109.439 10.6723 109.844 10.6004 110.257 10.5511C110.78 10.4905 111.204 10.4413 111.53 10.4034C111.856 10.3617 112.093 10.2955 112.24 10.2045C112.388 10.1136 112.462 9.96591 112.462 9.76136V9.72159C112.462 9.22538 112.322 8.84091 112.041 8.56818C111.765 8.29545 111.352 8.15909 110.803 8.15909C110.231 8.15909 109.78 8.28598 109.45 8.53977C109.125 8.78977 108.899 9.06818 108.774 9.375L107.178 9.01136C107.367 8.48106 107.644 8.05303 108.007 7.72727C108.375 7.39773 108.797 7.15909 109.274 7.01136C109.752 6.85985 110.253 6.78409 110.78 6.78409C111.128 6.78409 111.498 6.82576 111.888 6.90909C112.282 6.98864 112.649 7.13636 112.99 7.35227C113.335 7.56818 113.617 7.87689 113.837 8.27841C114.057 8.67614 114.166 9.19318 114.166 9.82955V15.625H112.507V14.4318H112.439C112.329 14.6515 112.164 14.8674 111.945 15.0795C111.725 15.2917 111.443 15.4678 111.098 15.608C110.753 15.7481 110.341 15.8182 109.86 15.8182ZM110.229 14.4545C110.699 14.4545 111.1 14.3617 111.433 14.1761C111.771 13.9905 112.026 13.7481 112.2 13.4489C112.378 13.1458 112.468 12.822 112.468 12.4773V11.3523C112.407 11.4129 112.289 11.4697 112.115 11.5227C111.945 11.572 111.75 11.6155 111.53 11.6534C111.31 11.6875 111.096 11.7197 110.888 11.75C110.68 11.7765 110.505 11.7992 110.365 11.8182C110.036 11.8598 109.735 11.9299 109.462 12.0284C109.193 12.1269 108.977 12.2689 108.814 12.4545C108.655 12.6364 108.575 12.8788 108.575 13.1818C108.575 13.6023 108.731 13.9205 109.041 14.1364C109.352 14.3485 109.748 14.4545 110.229 14.4545ZM116.566 15.625V3.98864H118.264V8.3125H118.367C118.465 8.13068 118.607 7.92045 118.793 7.68182C118.978 7.44318 119.236 7.23485 119.566 7.05682C119.895 6.875 120.331 6.78409 120.872 6.78409C121.577 6.78409 122.206 6.96212 122.759 7.31818C123.312 7.67424 123.745 8.1875 124.06 8.85795C124.378 9.52841 124.537 10.3352 124.537 11.2784C124.537 12.2216 124.38 13.0303 124.066 13.7045C123.751 14.375 123.319 14.892 122.77 15.2557C122.221 15.6155 121.594 15.7955 120.889 15.7955C120.359 15.7955 119.925 15.7064 119.588 15.5284C119.255 15.3504 118.994 15.142 118.804 14.9034C118.615 14.6648 118.469 14.4527 118.367 14.267H118.225V15.625H116.566ZM118.23 11.2614C118.23 11.875 118.319 12.4129 118.497 12.875C118.675 13.3371 118.933 13.6989 119.27 13.9602C119.607 14.2178 120.02 14.3466 120.509 14.3466C121.016 14.3466 121.441 14.2121 121.781 13.9432C122.122 13.6705 122.38 13.3011 122.554 12.8352C122.732 12.3693 122.821 11.8447 122.821 11.2614C122.821 10.6856 122.734 10.1686 122.56 9.71023C122.389 9.25189 122.132 8.89015 121.787 8.625C121.446 8.35985 121.02 8.22727 120.509 8.22727C120.016 8.22727 119.6 8.35417 119.259 8.60795C118.922 8.86174 118.666 9.21591 118.492 9.67045C118.317 10.125 118.23 10.6553 118.23 11.2614ZM128.985 15.8182C128.432 15.8182 127.932 15.7159 127.485 15.5114C127.038 15.303 126.683 15.0019 126.422 14.608C126.164 14.214 126.036 13.7311 126.036 13.1591C126.036 12.6667 126.13 12.2614 126.32 11.9432C126.509 11.625 126.765 11.3731 127.087 11.1875C127.409 11.0019 127.769 10.8617 128.166 10.767C128.564 10.6723 128.969 10.6004 129.382 10.5511C129.905 10.4905 130.329 10.4413 130.655 10.4034C130.981 10.3617 131.218 10.2955 131.365 10.2045C131.513 10.1136 131.587 9.96591 131.587 9.76136V9.72159C131.587 9.22538 131.447 8.84091 131.166 8.56818C130.89 8.29545 130.477 8.15909 129.928 8.15909C129.356 8.15909 128.905 8.28598 128.575 8.53977C128.25 8.78977 128.024 9.06818 127.899 9.375L126.303 9.01136C126.492 8.48106 126.769 8.05303 127.132 7.72727C127.5 7.39773 127.922 7.15909 128.399 7.01136C128.877 6.85985 129.378 6.78409 129.905 6.78409C130.253 6.78409 130.623 6.82576 131.013 6.90909C131.407 6.98864 131.774 7.13636 132.115 7.35227C132.46 7.56818 132.742 7.87689 132.962 8.27841C133.182 8.67614 133.291 9.19318 133.291 9.82955V15.625H131.632V14.4318H131.564C131.454 14.6515 131.289 14.8674 131.07 15.0795C130.85 15.2917 130.568 15.4678 130.223 15.608C129.878 15.7481 129.466 15.8182 128.985 15.8182ZM129.354 14.4545C129.824 14.4545 130.225 14.3617 130.558 14.1761C130.896 13.9905 131.151 13.7481 131.325 13.4489C131.503 13.1458 131.593 12.822 131.593 12.4773V11.3523C131.532 11.4129 131.414 11.4697 131.24 11.5227C131.07 11.572 130.875 11.6155 130.655 11.6534C130.435 11.6875 130.221 11.7197 130.013 11.75C129.805 11.7765 129.63 11.7992 129.49 11.8182C129.161 11.8598 128.86 11.9299 128.587 12.0284C128.318 12.1269 128.102 12.2689 127.939 12.4545C127.78 12.6364 127.7 12.8788 127.7 13.1818C127.7 13.6023 127.856 13.9205 128.166 14.1364C128.477 14.3485 128.873 14.4545 129.354 14.4545ZM135.554 15.625V6.89773H137.196V8.28409H137.287C137.446 7.81439 137.727 7.44508 138.128 7.17614C138.533 6.90341 138.992 6.76705 139.503 6.76705C139.609 6.76705 139.734 6.77083 139.878 6.77841C140.026 6.78598 140.141 6.79545 140.225 6.80682V8.43182C140.156 8.41288 140.035 8.39205 139.861 8.36932C139.687 8.3428 139.512 8.32955 139.338 8.32955C138.937 8.32955 138.579 8.41477 138.264 8.58523C137.954 8.75189 137.708 8.98485 137.526 9.28409C137.344 9.57955 137.253 9.91667 137.253 10.2955V15.625H135.554ZM144.156 15.8182C143.603 15.8182 143.103 15.7159 142.656 15.5114C142.209 15.303 141.855 15.0019 141.594 14.608C141.336 14.214 141.208 13.7311 141.208 13.1591C141.208 12.6667 141.302 12.2614 141.492 11.9432C141.681 11.625 141.937 11.3731 142.259 11.1875C142.581 11.0019 142.941 10.8617 143.338 10.767C143.736 10.6723 144.141 10.6004 144.554 10.5511C145.077 10.4905 145.501 10.4413 145.827 10.4034C146.153 10.3617 146.389 10.2955 146.537 10.2045C146.685 10.1136 146.759 9.96591 146.759 9.76136V9.72159C146.759 9.22538 146.619 8.84091 146.338 8.56818C146.062 8.29545 145.649 8.15909 145.1 8.15909C144.528 8.15909 144.077 8.28598 143.747 8.53977C143.422 8.78977 143.196 9.06818 143.071 9.375L141.475 9.01136C141.664 8.48106 141.941 8.05303 142.304 7.72727C142.672 7.39773 143.094 7.15909 143.571 7.01136C144.048 6.85985 144.55 6.78409 145.077 6.78409C145.425 6.78409 145.795 6.82576 146.185 6.90909C146.579 6.98864 146.946 7.13636 147.287 7.35227C147.632 7.56818 147.914 7.87689 148.134 8.27841C148.353 8.67614 148.463 9.19318 148.463 9.82955V15.625H146.804V14.4318H146.736C146.626 14.6515 146.461 14.8674 146.242 15.0795C146.022 15.2917 145.74 15.4678 145.395 15.608C145.05 15.7481 144.637 15.8182 144.156 15.8182ZM144.526 14.4545C144.995 14.4545 145.397 14.3617 145.73 14.1761C146.067 13.9905 146.323 13.7481 146.497 13.4489C146.675 13.1458 146.764 12.822 146.764 12.4773V11.3523C146.704 11.4129 146.586 11.4697 146.412 11.5227C146.242 11.572 146.047 11.6155 145.827 11.6534C145.607 11.6875 145.393 11.7197 145.185 11.75C144.977 11.7765 144.802 11.7992 144.662 11.8182C144.333 11.8598 144.031 11.9299 143.759 12.0284C143.49 12.1269 143.274 12.2689 143.111 12.4545C142.952 12.6364 142.872 12.8788 142.872 13.1818C142.872 13.6023 143.028 13.9205 143.338 14.1364C143.649 14.3485 144.045 14.4545 144.526 14.4545ZM152.425 3.98864V15.625H150.726V3.98864H152.425ZM155.83 15.733C155.519 15.733 155.252 15.6231 155.029 15.4034C154.805 15.1799 154.693 14.911 154.693 14.5966C154.693 14.286 154.805 14.0208 155.029 13.8011C155.252 13.5777 155.519 13.4659 155.83 13.4659C156.14 13.4659 156.407 13.5777 156.631 13.8011C156.854 14.0208 156.966 14.286 156.966 14.5966C156.966 14.8049 156.913 14.9962 156.807 15.1705C156.705 15.3409 156.568 15.4773 156.398 15.5795C156.227 15.6818 156.038 15.733 155.83 15.733ZM162.918 15.8011C162.073 15.8011 161.346 15.6098 160.736 15.2273C160.13 14.8409 159.664 14.3087 159.338 13.6307C159.012 12.9527 158.85 12.1761 158.85 11.3011C158.85 10.4148 159.016 9.63258 159.35 8.95455C159.683 8.27273 160.153 7.74053 160.759 7.35795C161.365 6.97538 162.079 6.78409 162.901 6.78409C163.564 6.78409 164.155 6.9072 164.673 7.15341C165.192 7.39583 165.611 7.73674 165.929 8.17614C166.251 8.61553 166.442 9.12879 166.503 9.71591H164.85C164.759 9.30682 164.55 8.95455 164.225 8.65909C163.903 8.36364 163.471 8.21591 162.929 8.21591C162.456 8.21591 162.041 8.34091 161.685 8.59091C161.333 8.83712 161.058 9.18939 160.861 9.64773C160.664 10.1023 160.566 10.6402 160.566 11.2614C160.566 11.8977 160.662 12.447 160.855 12.9091C161.048 13.3712 161.321 13.7292 161.673 13.983C162.03 14.2367 162.448 14.3636 162.929 14.3636C163.251 14.3636 163.543 14.3049 163.804 14.1875C164.069 14.0663 164.291 13.8939 164.469 13.6705C164.651 13.447 164.778 13.178 164.85 12.8636H166.503C166.442 13.428 166.259 13.9318 165.952 14.375C165.645 14.8182 165.234 15.1667 164.719 15.4205C164.208 15.6742 163.607 15.8011 162.918 15.8011ZM171.996 15.8011C171.178 15.8011 170.464 15.6136 169.854 15.2386C169.244 14.8636 168.771 14.339 168.433 13.6648C168.096 12.9905 167.928 12.2027 167.928 11.3011C167.928 10.3958 168.096 9.60417 168.433 8.92614C168.771 8.24811 169.244 7.72159 169.854 7.34659C170.464 6.97159 171.178 6.78409 171.996 6.78409C172.814 6.78409 173.528 6.97159 174.138 7.34659C174.748 7.72159 175.221 8.24811 175.558 8.92614C175.896 9.60417 176.064 10.3958 176.064 11.3011C176.064 12.2027 175.896 12.9905 175.558 13.6648C175.221 14.339 174.748 14.8636 174.138 15.2386C173.528 15.6136 172.814 15.8011 171.996 15.8011ZM172.002 14.375C172.532 14.375 172.971 14.2348 173.32 13.9545C173.668 13.6742 173.926 13.3011 174.093 12.8352C174.263 12.3693 174.348 11.8561 174.348 11.2955C174.348 10.7386 174.263 10.2273 174.093 9.76136C173.926 9.29167 173.668 8.91477 173.32 8.63068C172.971 8.34659 172.532 8.20455 172.002 8.20455C171.468 8.20455 171.024 8.34659 170.672 8.63068C170.324 8.91477 170.064 9.29167 169.894 9.76136C169.727 10.2273 169.644 10.7386 169.644 11.2955C169.644 11.8561 169.727 12.3693 169.894 12.8352C170.064 13.3011 170.324 13.6742 170.672 13.9545C171.024 14.2348 171.468 14.375 172.002 14.375ZM177.96 15.625V6.89773H179.591V8.31818H179.699C179.881 7.83712 180.178 7.46212 180.591 7.19318C181.004 6.92045 181.498 6.78409 182.074 6.78409C182.657 6.78409 183.146 6.92045 183.54 7.19318C183.938 7.46591 184.231 7.84091 184.421 8.31818H184.512C184.72 7.85227 185.051 7.48106 185.506 7.20455C185.96 6.92424 186.502 6.78409 187.131 6.78409C187.923 6.78409 188.568 7.0322 189.068 7.52841C189.572 8.02462 189.824 8.77273 189.824 9.77273V15.625H188.125V9.93182C188.125 9.34091 187.964 8.91288 187.642 8.64773C187.32 8.38258 186.936 8.25 186.489 8.25C185.936 8.25 185.506 8.42045 185.199 8.76136C184.892 9.09848 184.739 9.5322 184.739 10.0625V15.625H183.046V9.82386C183.046 9.35038 182.898 8.9697 182.602 8.68182C182.307 8.39394 181.923 8.25 181.449 8.25C181.127 8.25 180.83 8.33523 180.557 8.50568C180.288 8.67235 180.07 8.9053 179.904 9.20455C179.741 9.50379 179.659 9.85038 179.659 10.2443V15.625H177.96Z" fill="#FF0000"/>
<path d="M10.6792 18.9584C15.5944 18.9584 19.579 15.2275 19.579 10.6251C19.579 6.02271 15.5944 2.29175 10.6792 2.29175C5.7639 2.29175 1.7793 6.02271 1.7793 10.6251C1.7793 15.2275 5.7639 18.9584 10.6792 18.9584Z" stroke="#FF0000" stroke-width="2" stroke-linecap="round" stroke-linejoin="round"/>
<path d="M1.7793 10.625H19.579" stroke="#FF0000" stroke-width="2" stroke-linecap="round" stroke-linejoin="round"/>
<path d="M10.6791 2.29175C12.9052 4.57371 14.1703 7.53511 14.239 10.6251C14.1703 13.7151 12.9052 16.6765 10.6791 18.9584C8.45298 16.6765 7.18789 13.7151 7.11914 10.6251C7.18789 7.53511 8.45298 4.57371 10.6791 2.29175Z" stroke="#FF0000" stroke-width="2" stroke-linecap="round" stroke-linejoin="round"/>
</svg>
