<svg width="127" height="40" viewBox="0 0 127 40" fill="none" xmlns="http://www.w3.org/2000/svg">
<rect width="127" height="40" rx="6.26" fill="#DC143C"/>
<path d="M11.2787 15.4488V12.9688H22.9634V15.4488H18.6077V27.196H15.6344V15.4488H11.2787ZM28.3784 21.0272V27.196H25.419V12.9688H28.295V18.4082H28.42C28.6609 17.7783 29.0499 17.2851 29.5871 16.9285C30.1243 16.5673 30.7982 16.3867 31.6087 16.3867C32.3497 16.3867 32.9957 16.5487 33.5469 16.8729C34.1026 17.1925 34.5333 17.6533 34.839 18.2554C35.1493 18.8528 35.3021 19.5683 35.2975 20.402V27.196H32.3381V20.9299C32.3427 20.2723 32.176 19.7605 31.8379 19.3947C31.5045 19.0288 31.0367 18.8459 30.4346 18.8459C30.0317 18.8459 29.6751 18.9315 29.3648 19.1029C29.0592 19.2743 28.8183 19.5243 28.6423 19.8532C28.471 20.1773 28.383 20.5687 28.3784 21.0272ZM43.0761 27.4045C41.9785 27.4045 41.0338 27.1822 40.2418 26.7375C39.4545 26.2883 38.8478 25.6538 38.4217 24.8341C37.9956 24.0097 37.7826 23.0348 37.7826 21.9094C37.7826 20.8118 37.9956 19.8485 38.4217 19.0195C38.8478 18.1905 39.4475 17.5445 40.221 17.0813C40.999 16.6182 41.9114 16.3867 42.958 16.3867C43.662 16.3867 44.3173 16.5001 44.924 16.7271C45.5353 16.9494 46.0679 17.2851 46.5218 17.7344C46.9803 18.1836 47.3369 18.7486 47.5916 19.4294C47.8464 20.1056 47.9737 20.8975 47.9737 21.8052V22.618H38.9636V20.784H45.188C45.188 20.358 45.0954 19.9805 44.9101 19.6517C44.7249 19.3229 44.4678 19.0658 44.139 18.8806C43.8148 18.6907 43.4374 18.5958 43.0067 18.5958C42.5574 18.5958 42.1592 18.7 41.8118 18.9084C41.4691 19.1122 41.2005 19.3877 41.006 19.7351C40.8115 20.0778 40.7119 20.4599 40.7072 20.8813V22.625C40.7072 23.1529 40.8045 23.6091 40.999 23.9935C41.1982 24.3779 41.4784 24.6743 41.8396 24.8827C42.2008 25.0911 42.6292 25.1953 43.1248 25.1953C43.4536 25.1953 43.7546 25.149 44.0279 25.0564C44.3011 24.9638 44.535 24.8248 44.7295 24.6396C44.924 24.4543 45.0722 24.2274 45.1741 23.9588L47.9112 24.1394C47.7723 24.797 47.4874 25.3713 47.0567 25.8622C46.6306 26.3485 46.0795 26.7283 45.4034 27.0015C44.7318 27.2701 43.9561 27.4045 43.0761 27.4045ZM50.5474 27.196V12.9688H53.5554V18.8389H59.6618V12.9688H62.6628V27.196H59.6618V21.319H53.5554V27.196H50.5474ZM68.7169 27.3975C68.0361 27.3975 67.4294 27.2794 66.8968 27.0432C66.3642 26.8024 65.9428 26.4481 65.6325 25.9803C65.3268 25.5079 65.174 24.9198 65.174 24.2158C65.174 23.623 65.2828 23.1252 65.5005 22.7222C65.7182 22.3193 66.0146 21.9951 66.3897 21.7497C66.7648 21.5042 67.1909 21.319 67.6679 21.1939C68.1496 21.0689 68.6544 20.9809 69.1824 20.9299C69.8029 20.8651 70.3031 20.8049 70.6829 20.7493C71.0627 20.6891 71.3382 20.6011 71.5096 20.4853C71.6809 20.3695 71.7666 20.1982 71.7666 19.9713V19.9296C71.7666 19.4896 71.6277 19.1492 71.3498 18.9084C71.0765 18.6676 70.6875 18.5471 70.1827 18.5471C69.6501 18.5471 69.2264 18.6652 68.9114 18.9014C68.5965 19.133 68.3881 19.4248 68.2862 19.7767L65.5491 19.5544C65.6881 18.9061 65.9613 18.3457 66.3689 17.8733C66.7764 17.3963 67.3021 17.0304 67.9458 16.7757C68.5942 16.5163 69.3445 16.3867 70.1966 16.3867C70.7894 16.3867 71.3567 16.4561 71.8986 16.5951C72.4451 16.734 72.9291 16.9494 73.3505 17.2411C73.7766 17.5329 74.1123 17.908 74.3578 18.3665C74.6033 18.8204 74.726 19.3646 74.726 19.999V27.196H71.9194V25.7164H71.8361C71.6647 26.0498 71.4355 26.3439 71.1483 26.5986C70.8612 26.8487 70.5162 27.0455 70.1132 27.1891C69.7103 27.328 69.2449 27.3975 68.7169 27.3975ZM69.5644 25.3551C69.9998 25.3551 70.3842 25.2694 70.7176 25.0981C71.0511 24.9221 71.3127 24.6859 71.5026 24.3895C71.6925 24.0931 71.7874 23.7573 71.7874 23.3822V22.2498C71.6948 22.3101 71.5675 22.3656 71.4054 22.4166C71.2479 22.4629 71.0696 22.5069 70.8705 22.5486C70.6713 22.5856 70.4722 22.6203 70.273 22.6528C70.0739 22.6806 69.8933 22.706 69.7312 22.7292C69.3838 22.7801 69.0805 22.8612 68.8211 22.9723C68.5618 23.0835 68.3603 23.234 68.2167 23.4239C68.0732 23.6091 68.0014 23.8407 68.0014 24.1186C68.0014 24.5215 68.1473 24.8295 68.439 25.0425C68.7354 25.2509 69.1106 25.3551 69.5644 25.3551ZM77.6088 27.196V16.5256H80.4293V18.4082H80.5543C80.7766 17.783 81.1471 17.2898 81.6658 16.9285C82.1845 16.5673 82.8051 16.3867 83.5276 16.3867C84.2593 16.3867 84.8822 16.5696 85.3963 16.9355C85.9104 17.2967 86.2531 17.7876 86.4244 18.4082H86.5356C86.7533 17.7969 87.1469 17.3083 87.7166 16.9424C88.2908 16.5719 88.9693 16.3867 89.752 16.3867C90.7477 16.3867 91.5559 16.7039 92.1765 17.3384C92.8017 17.9682 93.1143 18.8621 93.1143 20.0199V27.196H90.1619V20.6034C90.1619 20.0106 90.0044 19.566 89.6895 19.2696C89.3746 18.9732 88.9809 18.825 88.5085 18.825C87.9713 18.825 87.5522 18.9964 87.2511 19.3391C86.9501 19.6772 86.7996 20.1241 86.7996 20.6798V27.196H83.9305V20.5409C83.9305 20.0176 83.78 19.6008 83.479 19.2905C83.1826 18.9802 82.7912 18.825 82.3049 18.825C81.9761 18.825 81.6797 18.9084 81.4157 19.0751C81.1564 19.2372 80.9503 19.4664 80.7974 19.7629C80.6446 20.0546 80.5682 20.3973 80.5682 20.791V27.196H77.6088ZM96.0388 27.196V16.5256H98.9079V18.3874H99.0191C99.2136 17.7251 99.5401 17.2249 99.9986 16.8868C100.457 16.5441 100.985 16.3728 101.582 16.3728C101.731 16.3728 101.89 16.382 102.062 16.4005C102.233 16.4191 102.384 16.4445 102.513 16.477V19.1029C102.374 19.0612 102.182 19.0242 101.937 18.9917C101.691 18.9593 101.467 18.9431 101.263 18.9431C100.828 18.9431 100.439 19.0381 100.096 19.2279C99.7577 19.4132 99.4891 19.6725 99.29 20.006C99.0955 20.3394 98.9982 20.7238 98.9982 21.1592V27.196H96.0388ZM108.955 27.4045C107.876 27.4045 106.942 27.1752 106.155 26.7167C105.372 26.2536 104.768 25.6098 104.342 24.7855C103.916 23.9565 103.703 22.9955 103.703 21.9025C103.703 20.8003 103.916 19.837 104.342 19.0126C104.768 18.1836 105.372 17.5398 106.155 17.0813C106.942 16.6182 107.876 16.3867 108.955 16.3867C110.034 16.3867 110.965 16.6182 111.747 17.0813C112.535 17.5398 113.141 18.1836 113.567 19.0126C113.994 19.837 114.207 20.8003 114.207 21.9025C114.207 22.9955 113.994 23.9565 113.567 24.7855C113.141 25.6098 112.535 26.2536 111.747 26.7167C110.965 27.1752 110.034 27.4045 108.955 27.4045ZM108.969 25.112C109.46 25.112 109.869 24.973 110.198 24.6952C110.527 24.4126 110.775 24.0283 110.942 23.542C111.113 23.0557 111.199 22.5022 111.199 21.8817C111.199 21.2611 111.113 20.7076 110.942 20.2213C110.775 19.7351 110.527 19.3507 110.198 19.0682C109.869 18.7857 109.46 18.6444 108.969 18.6444C108.473 18.6444 108.056 18.7857 107.718 19.0682C107.385 19.3507 107.132 19.7351 106.961 20.2213C106.794 20.7076 106.711 21.2611 106.711 21.8817C106.711 22.5022 106.794 23.0557 106.961 23.542C107.132 24.0283 107.385 24.4126 107.718 24.6952C108.056 24.973 108.473 25.112 108.969 25.112Z" fill="#F3F5FF"/>
</svg>
