<svg width="489" height="20" viewBox="0 0 489 20" fill="none" xmlns="http://www.w3.org/2000/svg">
<path d="M371.653 1.78816C373.503 2.43602 375.304 3.06074 377.305 3.75487C378.655 3.38467 380.106 3.17645 380.806 2.73683C385.058 0.122258 390.96 -0.340533 396.913 0.561843C403.215 1.51049 409.218 1.0015 415.47 1.0015C422.923 1.0015 430.526 0.538739 438.029 1.92701C443.482 2.94507 449.884 3.47724 453.986 0.538739C457.137 1.07091 459.838 1.97326 462.539 1.90385C466.341 1.83443 467.141 3.54667 469.892 3.84746C472.643 4.14825 475.495 4.31022 479.996 4.65728C477.745 3.54667 476.745 3.03762 475.695 2.50545C480.797 2.0427 484.248 3.66232 489 4.5647C487.749 5.05059 487.149 5.51336 486.399 5.55964C481.397 5.86043 476.595 6.43887 472.343 7.75773C469.942 8.49814 467.341 8.5444 464.69 8.15106C460.789 7.57262 457.037 7.75773 452.935 7.98911C446.433 8.35931 439.78 8.17423 433.177 8.12796C429.926 8.10482 426.675 7.82717 423.523 7.6652C423.223 7.31813 423.073 7.04045 422.823 6.76279C421.873 5.83728 420.272 5.58279 419.422 6.20751C418.572 6.83223 418.021 7.54951 417.221 8.35934C410.068 8.42875 403.115 8.49812 396.162 8.54439C392.161 8.56753 388.159 8.47498 384.208 8.66008C380.256 8.84519 377.005 8.3362 374.204 7.08676C375.004 7.15617 375.804 7.22556 376.605 7.29497C376.605 7.27184 376.605 7.27185 376.605 7.24871C375.804 7.1793 375.004 7.13301 374.254 7.06359C374.154 7.85028 372.753 8.26678 371.553 8.01227C367.601 7.22558 363.849 7.64206 359.948 8.01227C355.096 8.45189 350.094 8.72951 345.142 8.8452C335.188 9.12285 325.234 9.23856 315.23 9.4468C312.679 9.49308 310.628 9.12286 309.477 7.64204C305.926 9.12286 302.075 9.35425 298.023 9.21542C290.72 8.93777 283.417 8.93775 276.214 10.1178C275.314 9.49306 274.563 9.00718 273.663 8.4056C271.112 8.77581 268.411 9.30797 265.66 9.49307C263.059 9.67817 260.208 9.23854 257.757 9.53933C248.003 10.7888 237.899 10.0484 228.045 10.8582C226.444 10.997 224.743 10.835 223.093 10.7425C220.091 10.5574 217.29 10.8119 214.289 11.0665C207.787 11.6449 201.134 11.8068 194.531 12.1308C189.929 12.339 185.277 12.5241 180.676 12.7092C180.025 12.7323 179.325 12.8712 178.725 12.8249C164.769 11.8762 151.114 14.2363 137.158 13.681C123.903 15.2081 110.047 14.0512 96.7917 15.5321C96.1415 15.6015 95.4412 15.6014 94.7909 15.6014C88.7885 15.4395 83.0361 15.9254 77.1338 16.3882C54.2245 18.1698 31.0652 18.9796 7.85588 19.1878C6.85548 19.1878 5.85506 19.2803 4.90468 19.1878C2.10355 18.9564 -0.397436 17.4525 0.0527455 16.1568C0.602967 14.4908 1.35323 12.848 1.95348 11.3209C2.80382 11.0201 3.30404 10.7194 3.85427 10.6962C12.4577 10.2797 21.1612 9.35422 29.6147 9.70129C37.4178 10.0252 44.7207 9.53935 52.1737 8.98405C54.1245 8.84522 56.1253 8.96087 58.1261 8.89146C60.7271 8.82205 63.4783 8.89146 65.9293 8.54439C75.4331 7.13299 84.1866 7.91968 93.2903 10.2335C98.6925 8.15106 104.845 6.32318 112.848 8.1048C114.749 7.17928 116.5 6.32316 118.601 5.3051C120.201 5.62903 121.702 5.88358 123.052 6.20751C126.804 7.13302 130.105 6.85537 132.906 5.39768L132.806 5.37452C136.208 5.86042 139.609 6.32318 143.16 6.83222C143.811 6.02239 144.361 5.32827 145.161 4.35648C147.812 4.51845 150.713 4.56473 153.415 4.88866C156.566 5.25887 159.217 5.25884 161.318 3.93999C161.318 3.91685 162.168 4.17136 162.618 4.33332C162.718 4.49528 162.818 4.65725 162.918 4.79608C163.018 4.91177 163.118 5.02745 163.219 5.14314C163.018 4.84235 162.818 4.56469 162.618 4.2639C166.52 4.84234 169.721 4.28708 171.872 2.80626C175.774 3.24588 175.123 4.81923 176.424 5.79101C178.225 7.13301 180.525 7.71147 184.327 7.24871C183.127 6.78595 182.076 6.48517 181.326 6.04555C180.175 5.35142 180.676 4.24079 182.176 4.1251C186.078 3.80117 189.979 3.56981 193.931 3.3847C197.182 3.22274 200.934 3.61604 203.685 2.99131C207.786 2.04266 211.488 2.20467 215.089 2.92195C218.341 3.56981 221.392 3.63922 224.743 3.3847C227.344 3.1996 230.095 3.19957 232.697 3.40781C236.448 3.68546 239.849 3.70863 243.301 2.80626C244.902 2.41291 247.152 2.57484 249.103 2.48229C250.704 2.38974 252.505 2.43604 253.955 2.15839C258.057 1.34856 262.409 1.51053 266.56 1.11718C275.464 0.261085 283.367 1.51049 291.57 2.52856C293.721 2.78307 296.622 2.99134 298.273 2.55172C301.174 1.76503 304.025 2.45918 306.776 2.0427C309.227 1.67249 311.879 1.60309 314.279 1.41799C316.08 2.38978 317.531 3.40781 319.482 4.10194C320.532 4.47215 322.933 4.51846 323.983 4.19453C324.784 3.94001 324.434 2.87567 324.634 2.11212C330.936 1.32544 335.638 3.96313 341.44 4.40274C342.291 3.29213 340.64 3.24583 339.69 2.87563C339.039 2.62111 338.589 2.2278 338.139 1.92701C338.489 1.69563 338.639 1.51053 338.839 1.46425C341.891 0.723841 344.592 1.76504 347.493 1.81132C350.344 1.85759 353.345 1.09404 356.096 1.27914C360.098 1.55679 363.749 1.83445 367.651 1.04776C368.601 0.862657 370.502 1.62621 372.003 1.97327L371.653 1.78816ZM267.01 6.30004C269.161 5.69845 271.362 5.12003 273.463 4.47217C273.813 4.35648 273.813 3.98624 274.113 3.56976C272.313 3.06073 270.762 2.15835 268.111 3.22269C267.811 4.17134 267.461 5.18944 267.11 6.20751C266.86 6.23064 266.56 6.30004 266.31 6.30004C266.11 6.2769 265.96 6.16123 265.76 6.09182C266.21 6.13809 266.61 6.20748 267.01 6.30004ZM388.359 3.31528C394.612 6.13809 395.212 6.34634 401.115 7.31813C401.615 7.41069 402.465 7.01731 404.116 6.6471C401.265 6.25376 399.264 6.1381 397.713 5.69849C396.113 5.21259 395.062 4.35646 393.561 3.75487C392.111 3.15329 390.46 2.52859 388.359 3.31528ZM235.598 6.11492C228.195 4.65724 228.045 4.65724 220.342 6.11492C223.843 6.11492 225.994 6.11492 228.095 6.11492C230.596 6.11492 233.097 6.11492 235.598 6.11492ZM456.537 6.50831C461.789 6.64714 459.238 4.63413 460.889 4.00941C460.939 3.98628 460.338 3.61608 459.588 3.03764C458.488 4.26394 457.637 5.25887 456.537 6.50831ZM415.62 3.15332C415.57 3.29215 415.47 3.45409 415.42 3.59292C416.871 3.80116 418.271 4.03253 419.772 4.21763C419.872 4.24077 420.272 4.00941 420.322 3.89372C420.372 3.77803 420.272 3.50039 420.122 3.50039C418.622 3.36157 417.121 3.26901 415.62 3.15332ZM198.383 5.5828C197.532 6.32321 196.682 6.71652 196.832 6.99417C197.082 7.36438 197.983 7.82714 198.733 7.87342C199.283 7.91969 200.634 7.31813 200.534 7.08676C200.384 6.64714 199.483 6.27693 198.383 5.5828ZM390.21 1.67247C392.211 1.88071 393.111 2.04266 394.012 2.0658C394.462 2.08894 394.962 1.85761 395.462 1.76505C394.912 1.64937 394.412 1.41799 393.862 1.41799C393.011 1.37171 392.161 1.5105 390.21 1.67247ZM359.948 4.28706C360.198 4.21764 360.448 4.14823 360.698 4.05568C360.348 3.84744 360.048 3.6392 359.698 3.47723C359.648 3.45409 359.198 3.61604 358.948 3.68545C359.298 3.89369 359.648 4.10195 359.948 4.28706ZM447.883 5.65216C447.583 5.6753 447.283 5.67535 446.983 5.69849C447.133 5.90673 447.283 6.09179 447.433 6.30004C447.683 6.20748 448.033 6.1381 448.083 6.04555C448.234 5.92986 447.983 5.79099 447.883 5.65216ZM69.8309 12.9175L69.8808 12.6398L69.1806 12.7555L69.8309 12.9175Z" fill="#EF3934"/>
</svg>
