<svg width="208" height="41" viewBox="0 0 208 41" fill="none" xmlns="http://www.w3.org/2000/svg">
<rect y="0.624023" width="208" height="40" rx="6.26" fill="#530229"/>
<path d="M21.1409 13.5928L24.5796 24.4022H24.7116L28.1573 13.5928H31.4918L26.5873 27.8201H22.7109L17.7994 13.5928H21.1409ZM37.3531 28.0285C36.274 28.0285 35.3408 27.7992 34.5535 27.3407C33.7708 26.8776 33.1664 26.2339 32.7404 25.4095C32.3143 24.5805 32.1012 23.6195 32.1012 22.5265C32.1012 21.4243 32.3143 20.461 32.7404 19.6366C33.1664 18.8076 33.7708 18.1639 34.5535 17.7054C35.3408 17.2422 36.274 17.0107 37.3531 17.0107C38.4322 17.0107 39.3631 17.2422 40.1458 17.7054C40.9331 18.1639 41.5398 18.8076 41.9659 19.6366C42.3919 20.461 42.605 21.4243 42.605 22.5265C42.605 23.6195 42.3919 24.5805 41.9659 25.4095C41.5398 26.2339 40.9331 26.8776 40.1458 27.3407C39.3631 27.7992 38.4322 28.0285 37.3531 28.0285ZM37.367 25.736C37.8579 25.736 38.2678 25.5971 38.5966 25.3192C38.9254 25.0367 39.1732 24.6523 39.3399 24.166C39.5113 23.6797 39.597 23.1263 39.597 22.5057C39.597 21.8851 39.5113 21.3317 39.3399 20.8454C39.1732 20.3591 38.9254 19.9747 38.5966 19.6922C38.2678 19.4097 37.8579 19.2684 37.367 19.2684C36.8715 19.2684 36.4546 19.4097 36.1166 19.6922C35.7831 19.9747 35.5307 20.3591 35.3593 20.8454C35.1926 21.3317 35.1093 21.8851 35.1093 22.5057C35.1093 23.1263 35.1926 23.6797 35.3593 24.166C35.5307 24.6523 35.7831 25.0367 36.1166 25.3192C36.4546 25.5971 36.8715 25.736 37.367 25.736ZM48.0755 13.5928V27.8201H45.1161V13.5928H48.0755ZM57.8757 23.2768V17.1496H60.8351V27.8201H57.9938V25.8819H57.8827C57.6419 26.5071 57.2413 27.0096 56.6809 27.3894C56.1251 27.7691 55.4466 27.959 54.6454 27.959C53.9322 27.959 53.3047 27.7969 52.7628 27.4727C52.221 27.1485 51.7972 26.6877 51.4915 26.0903C51.1905 25.4929 51.0377 24.7773 51.033 23.9437V17.1496H53.9924V23.4157C53.997 24.0456 54.1661 24.5434 54.4995 24.9093C54.833 25.2752 55.2799 25.4581 55.8403 25.4581C56.1969 25.4581 56.5304 25.3771 56.8406 25.215C57.1509 25.0483 57.401 24.8028 57.5909 24.4786C57.7854 24.1544 57.8804 23.7538 57.8757 23.2768ZM69.4648 17.1496V19.3726H63.0389V17.1496H69.4648ZM64.4977 14.5932H67.4571V24.5411C67.4571 24.8144 67.4988 25.0274 67.5822 25.1802C67.6655 25.3284 67.7813 25.4326 67.9295 25.4929C68.0823 25.5531 68.2583 25.5832 68.4575 25.5832C68.5964 25.5832 68.7354 25.5716 68.8743 25.5484C69.0132 25.5206 69.1198 25.4998 69.1939 25.4859L69.6593 27.6881C69.5111 27.7344 69.3027 27.7876 69.0341 27.8479C68.7655 27.9127 68.439 27.9521 68.0546 27.966C67.3413 27.9937 66.7161 27.8988 66.1789 27.6811C65.6463 27.4635 65.2318 27.1254 64.9354 26.6669C64.639 26.2084 64.4931 25.6295 64.4977 24.9302V14.5932ZM76.7276 28.0285C75.63 28.0285 74.6852 27.8062 73.8933 27.3616C73.106 26.9123 72.4993 26.2779 72.0732 25.4581C71.6471 24.6338 71.4341 23.6589 71.4341 22.5335C71.4341 21.4359 71.6471 20.4726 72.0732 19.6436C72.4993 18.8146 73.099 18.1685 73.8725 17.7054C74.6505 17.2422 75.5629 17.0107 76.6095 17.0107C77.3135 17.0107 77.9688 17.1241 78.5755 17.3511C79.1868 17.5734 79.7194 17.9091 80.1733 18.3584C80.6318 18.8076 80.9884 19.3726 81.2431 20.0534C81.4979 20.7296 81.6252 21.5215 81.6252 22.4293V23.2421H72.6151V21.4081H78.8395C78.8395 20.982 78.7469 20.6045 78.5616 20.2757C78.3764 19.9469 78.1193 19.6899 77.7905 19.5046C77.4663 19.3147 77.0889 19.2198 76.6582 19.2198C76.2089 19.2198 75.8106 19.324 75.4633 19.5324C75.1206 19.7362 74.852 20.0117 74.6575 20.3591C74.4629 20.7018 74.3634 21.0839 74.3587 21.5053V23.249C74.3587 23.777 74.456 24.2331 74.6505 24.6175C74.8497 25.0019 75.1298 25.2983 75.4911 25.5067C75.8523 25.7152 76.2807 25.8194 76.7763 25.8194C77.1051 25.8194 77.4061 25.773 77.6794 25.6804C77.9526 25.5878 78.1865 25.4489 78.381 25.2636C78.5755 25.0784 78.7237 24.8514 78.8256 24.5828L81.5627 24.7634C81.4238 25.4211 81.1389 25.9953 80.7082 26.4863C80.2821 26.9725 79.731 27.3523 79.0549 27.6256C78.3833 27.8942 77.6076 28.0285 76.7276 28.0285ZM86.6512 27.8201H83.4278L88.3393 13.5928H92.2156L97.1202 27.8201H93.8968L90.333 16.8439H90.2219L86.6512 27.8201ZM86.4497 22.2278H94.0635V24.5759H86.4497V22.2278ZM99.3639 27.8201V17.1496H102.233V19.0114H102.344C102.539 18.3491 102.865 17.8489 103.324 17.5109C103.782 17.1681 104.31 16.9968 104.908 16.9968C105.056 16.9968 105.215 17.006 105.387 17.0246C105.558 17.0431 105.709 17.0686 105.838 17.101V19.7269C105.699 19.6852 105.507 19.6482 105.262 19.6158C105.016 19.5833 104.792 19.5671 104.588 19.5671C104.153 19.5671 103.764 19.6621 103.421 19.852C103.083 20.0372 102.814 20.2966 102.615 20.63C102.421 20.9635 102.323 21.3479 102.323 21.7832V27.8201H99.3639ZM112.28 28.0285C111.187 28.0285 110.247 27.7969 109.459 27.3338C108.677 26.866 108.075 26.2176 107.653 25.3886C107.236 24.5597 107.028 23.6056 107.028 22.5265C107.028 21.4335 107.239 20.4749 107.66 19.6505C108.086 18.8215 108.691 18.1754 109.473 17.7123C110.256 17.2446 111.187 17.0107 112.266 17.0107C113.197 17.0107 114.012 17.1797 114.711 17.5178C115.411 17.8559 115.964 18.3306 116.372 18.9419C116.779 19.5532 117.004 20.2711 117.045 21.0955H114.253C114.174 20.5629 113.966 20.1345 113.627 19.8103C113.294 19.4815 112.856 19.317 112.315 19.317C111.856 19.317 111.455 19.4421 111.113 19.6922C110.775 19.9376 110.511 20.2966 110.321 20.769C110.131 21.2413 110.036 21.8133 110.036 22.4848C110.036 23.1656 110.129 23.7445 110.314 24.2216C110.504 24.6986 110.77 25.0621 111.113 25.3122C111.455 25.5623 111.856 25.6874 112.315 25.6874C112.653 25.6874 112.956 25.6179 113.225 25.479C113.498 25.34 113.722 25.1386 113.898 24.8746C114.079 24.606 114.197 24.2841 114.253 23.909H117.045C116.999 24.7241 116.777 25.4419 116.378 26.0625C115.985 26.6785 115.441 27.1601 114.746 27.5075C114.051 27.8548 113.229 28.0285 112.28 28.0285ZM122.486 21.6512V27.8201H119.527V13.5928H122.403V19.0322H122.528C122.769 18.4024 123.158 17.9091 123.695 17.5525C124.232 17.1913 124.906 17.0107 125.717 17.0107C126.458 17.0107 127.104 17.1728 127.655 17.497C128.211 17.8165 128.641 18.2773 128.947 18.8794C129.257 19.4768 129.41 20.1924 129.406 21.026V27.8201H126.446V21.554C126.451 20.8963 126.284 20.3846 125.946 20.0187C125.612 19.6528 125.145 19.4699 124.543 19.4699C124.14 19.4699 123.783 19.5556 123.473 19.7269C123.167 19.8983 122.926 20.1484 122.75 20.4772C122.579 20.8014 122.491 21.1927 122.486 21.6512ZM132.321 27.8201V17.1496H135.281V27.8201H132.321ZM133.808 15.7741C133.368 15.7741 132.991 15.6282 132.676 15.3365C132.365 15.0401 132.21 14.6858 132.21 14.2736C132.21 13.866 132.365 13.5164 132.676 13.2246C132.991 12.9282 133.368 12.78 133.808 12.78C134.248 12.78 134.623 12.9282 134.933 13.2246C135.248 13.5164 135.406 13.866 135.406 14.2736C135.406 14.6858 135.248 15.0401 134.933 15.3365C134.623 15.6282 134.248 15.7741 133.808 15.7741ZM143.914 17.1496V19.3726H137.488V17.1496H143.914ZM138.947 14.5932H141.906V24.5411C141.906 24.8144 141.948 25.0274 142.031 25.1802C142.115 25.3284 142.23 25.4326 142.379 25.4929C142.531 25.5531 142.707 25.5832 142.907 25.5832C143.045 25.5832 143.184 25.5716 143.323 25.5484C143.462 25.5206 143.569 25.4998 143.643 25.4859L144.108 27.6881C143.96 27.7344 143.752 27.7876 143.483 27.8479C143.215 27.9127 142.888 27.9521 142.504 27.966C141.79 27.9937 141.165 27.8988 140.628 27.6811C140.095 27.4635 139.681 27.1254 139.384 26.6669C139.088 26.2084 138.942 25.6295 138.947 24.9302V14.5932ZM151.177 28.0285C150.079 28.0285 149.134 27.8062 148.342 27.3616C147.555 26.9123 146.948 26.2779 146.522 25.4581C146.096 24.6338 145.883 23.6589 145.883 22.5335C145.883 21.4359 146.096 20.4726 146.522 19.6436C146.948 18.8146 147.548 18.1685 148.322 17.7054C149.1 17.2422 150.012 17.0107 151.059 17.0107C151.763 17.0107 152.418 17.1241 153.025 17.3511C153.636 17.5734 154.169 17.9091 154.622 18.3584C155.081 18.8076 155.437 19.3726 155.692 20.0534C155.947 20.7296 156.074 21.5215 156.074 22.4293V23.2421H147.064V21.4081H153.289C153.289 20.982 153.196 20.6045 153.011 20.2757C152.825 19.9469 152.568 19.6899 152.24 19.5046C151.915 19.3147 151.538 19.2198 151.107 19.2198C150.658 19.2198 150.26 19.324 149.912 19.5324C149.57 19.7362 149.301 20.0117 149.107 20.3591C148.912 20.7018 148.812 21.0839 148.808 21.5053V23.249C148.808 23.777 148.905 24.2331 149.1 24.6175C149.299 25.0019 149.579 25.2983 149.94 25.5067C150.301 25.7152 150.73 25.8194 151.225 25.8194C151.554 25.8194 151.855 25.773 152.128 25.6804C152.402 25.5878 152.636 25.4489 152.83 25.2636C153.025 25.0784 153.173 24.8514 153.275 24.5828L156.012 24.7634C155.873 25.4211 155.588 25.9953 155.157 26.4863C154.731 26.9725 154.18 27.3523 153.504 27.6256C152.832 27.8942 152.057 28.0285 151.177 28.0285ZM163.414 28.0285C162.321 28.0285 161.38 27.7969 160.593 27.3338C159.81 26.866 159.208 26.2176 158.787 25.3886C158.37 24.5597 158.162 23.6056 158.162 22.5265C158.162 21.4335 158.372 20.4749 158.794 19.6505C159.22 18.8215 159.824 18.1754 160.607 17.7123C161.39 17.2446 162.321 17.0107 163.4 17.0107C164.331 17.0107 165.146 17.1797 165.845 17.5178C166.544 17.8559 167.098 18.3306 167.505 18.9419C167.913 19.5532 168.137 20.2711 168.179 21.0955H165.386C165.308 20.5629 165.099 20.1345 164.761 19.8103C164.428 19.4815 163.99 19.317 163.448 19.317C162.99 19.317 162.589 19.4421 162.246 19.6922C161.908 19.9376 161.644 20.2966 161.455 20.769C161.265 21.2413 161.17 21.8133 161.17 22.4848C161.17 23.1656 161.262 23.7445 161.448 24.2216C161.637 24.6986 161.904 25.0621 162.246 25.3122C162.589 25.5623 162.99 25.6874 163.448 25.6874C163.786 25.6874 164.09 25.6179 164.358 25.479C164.632 25.34 164.856 25.1386 165.032 24.8746C165.213 24.606 165.331 24.2841 165.386 23.909H168.179C168.133 24.7241 167.911 25.4419 167.512 26.0625C167.119 26.6785 166.574 27.1601 165.88 27.5075C165.185 27.8548 164.363 28.0285 163.414 28.0285ZM176.336 17.1496V19.3726H169.911V17.1496H176.336ZM171.369 14.5932H174.329V24.5411C174.329 24.8144 174.37 25.0274 174.454 25.1802C174.537 25.3284 174.653 25.4326 174.801 25.4929C174.954 25.5531 175.13 25.5832 175.329 25.5832C175.468 25.5832 175.607 25.5716 175.746 25.5484C175.885 25.5206 175.991 25.4998 176.065 25.4859L176.531 27.6881C176.383 27.7344 176.174 27.7876 175.906 27.8479C175.637 27.9127 175.311 27.9521 174.926 27.966C174.213 27.9937 173.588 27.8988 173.051 27.6811C172.518 27.4635 172.103 27.1254 171.807 26.6669C171.511 26.2084 171.365 25.6295 171.369 24.9302V14.5932ZM187.595 20.1924L184.886 20.3591C184.84 20.1275 184.74 19.9191 184.587 19.7339C184.435 19.544 184.233 19.3935 183.983 19.2823C183.738 19.1665 183.444 19.1086 183.101 19.1086C182.642 19.1086 182.256 19.2059 181.941 19.4004C181.626 19.5903 181.468 19.845 181.468 20.1646C181.468 20.4193 181.57 20.6346 181.774 20.8106C181.978 20.9866 182.327 21.1279 182.823 21.2344L184.754 21.6234C185.792 21.8365 186.565 22.1792 187.074 22.6516C187.584 23.124 187.839 23.7445 187.839 24.5133C187.839 25.2127 187.633 25.8263 187.22 26.3543C186.813 26.8822 186.252 27.2944 185.539 27.5908C184.831 27.8826 184.013 28.0285 183.087 28.0285C181.674 28.0285 180.549 27.7344 179.711 27.1462C178.877 26.5534 178.389 25.7476 178.245 24.7287L181.156 24.5759C181.244 25.0066 181.457 25.3354 181.795 25.5623C182.133 25.7846 182.566 25.8958 183.094 25.8958C183.613 25.8958 184.029 25.7962 184.344 25.5971C184.664 25.3933 184.826 25.1316 184.831 24.8121C184.826 24.5434 184.713 24.3235 184.49 24.1521C184.268 23.9761 183.925 23.8418 183.462 23.7492L181.614 23.381C180.572 23.1726 179.796 22.8113 179.287 22.2973C178.782 21.7832 178.53 21.1279 178.53 20.3313C178.53 19.6459 178.715 19.0554 179.086 18.5598C179.461 18.0643 179.986 17.6822 180.662 17.4136C181.343 17.145 182.14 17.0107 183.052 17.0107C184.4 17.0107 185.46 17.2955 186.234 17.8651C187.012 18.4348 187.466 19.2105 187.595 20.1924Z" fill="#F3F5FF"/>
</svg>
