<svg width="322" height="13" viewBox="0 0 322 13" fill="none" xmlns="http://www.w3.org/2000/svg">
<path d="M244.728 1.12277C245.947 1.56396 247.133 1.9894 248.45 2.46211C249.34 2.21 250.295 2.0682 250.756 1.76882C253.556 -0.0117185 257.442 -0.326881 261.362 0.287641C265.512 0.933676 269.464 0.587046 273.582 0.587046C278.489 0.587046 283.496 0.271907 288.437 1.21732C292.027 1.91063 296.243 2.27304 298.944 0.271907C301.019 0.634317 302.797 1.24882 304.576 1.20155C307.079 1.15428 307.606 2.32032 309.418 2.52516C311.229 2.73 313.107 2.8403 316.071 3.07665C314.589 2.32032 313.93 1.97366 313.239 1.61125C316.598 1.29611 318.871 2.39908 322 3.0136C321.177 3.3445 320.781 3.65964 320.287 3.69116C316.993 3.896 313.831 4.28992 311.032 5.18807C309.451 5.69229 307.738 5.7238 305.992 5.45593C303.423 5.06201 300.953 5.18807 298.252 5.34564C293.97 5.59775 289.589 5.47171 285.242 5.4402C283.101 5.42444 280.96 5.23536 278.885 5.12506C278.687 4.8887 278.588 4.6996 278.423 4.51051C277.798 3.88023 276.744 3.70692 276.184 4.13236C275.624 4.5578 275.262 5.04627 274.734 5.59777C270.024 5.64504 265.446 5.69228 260.868 5.72379C258.233 5.73955 255.598 5.67652 252.996 5.80257C250.394 5.92863 248.253 5.58201 246.408 4.73113C246.935 4.7784 247.462 4.82566 247.989 4.87293C247.989 4.85717 247.989 4.85718 247.989 4.84142C247.462 4.79415 246.935 4.76263 246.441 4.71536C246.375 5.2511 245.453 5.53474 244.662 5.36141C242.06 4.82567 239.59 5.1093 237.021 5.36141C233.826 5.66079 230.532 5.84985 227.271 5.92864C220.717 6.11772 214.162 6.19652 207.575 6.33833C205.895 6.36985 204.544 6.11773 203.787 5.10928C201.448 6.11773 198.912 6.27531 196.244 6.18076C191.435 5.99168 186.626 5.99167 181.883 6.79527C181.29 6.36983 180.796 6.03895 180.204 5.62927C178.524 5.88138 176.745 6.24378 174.934 6.36984C173.221 6.4959 171.343 6.19651 169.729 6.40135C163.307 7.25222 156.653 6.74799 150.164 7.29949C149.11 7.39403 147.99 7.28373 146.904 7.2207C144.927 7.09465 143.083 7.26799 141.107 7.44132C136.825 7.83525 132.444 7.94552 128.096 8.16612C125.066 8.30793 122.003 8.43399 118.972 8.56004C118.544 8.5758 118.083 8.67034 117.688 8.63883C108.498 7.99279 99.5063 9.60003 90.3167 9.22186C81.5882 10.2618 72.4645 9.47398 63.7361 10.4824C63.3079 10.5297 62.8467 10.5297 62.4186 10.5297C58.466 10.4194 54.6782 10.7503 50.7916 11.0654C35.7061 12.2787 20.4561 12.8302 5.17299 12.972C4.51424 12.972 3.85548 13.035 3.22967 12.972C1.38516 12.8144 -0.261706 11.7902 0.0347322 10.9079C0.397046 9.77335 0.891086 8.65458 1.28634 7.61462C1.84628 7.40978 2.17567 7.20495 2.53798 7.18919C8.20325 6.90557 13.9344 6.27528 19.5009 6.51164C24.6391 6.73223 29.448 6.40136 34.3557 6.0232C35.6403 5.92865 36.9578 6.00742 38.2753 5.96014C39.988 5.91287 41.7996 5.96014 43.4136 5.72379C49.6717 4.76262 55.4358 5.29836 61.4304 6.87406C64.9877 5.45593 69.0391 4.21114 74.3091 5.42442C75.5607 4.79415 76.7135 4.21112 78.0969 3.51782C79.1509 3.73841 80.139 3.91176 81.0283 4.13236C83.4986 4.76264 85.6725 4.57356 87.517 3.58087L87.4511 3.56509C89.6909 3.89599 91.9306 4.21114 94.2692 4.55779C94.6974 4.0063 95.0597 3.5336 95.5867 2.8718C97.3324 2.9821 99.2428 3.01362 101.021 3.23422C103.096 3.48633 104.842 3.48632 106.226 2.58817C106.226 2.57241 106.786 2.74573 107.082 2.85603C107.148 2.96633 107.214 3.07663 107.28 3.17117C107.345 3.24996 107.411 3.32874 107.477 3.40753C107.345 3.20268 107.214 3.01359 107.082 2.80875C109.651 3.20268 111.759 2.82454 113.175 1.8161C115.745 2.11548 115.316 3.18694 116.173 3.84873C117.358 4.76263 118.874 5.15656 121.377 4.84142C120.586 4.52628 119.895 4.32145 119.401 4.02207C118.643 3.54936 118.972 2.79302 119.961 2.71423C122.53 2.49364 125.099 2.33608 127.701 2.21002C129.842 2.09972 132.312 2.36756 134.124 1.94212C136.825 1.29609 139.262 1.40642 141.634 1.89488C143.774 2.33608 145.784 2.38335 147.991 2.21002C149.703 2.08396 151.515 2.08394 153.228 2.22575C155.698 2.41484 157.938 2.43062 160.21 1.8161C161.264 1.54823 162.747 1.6585 164.031 1.59548C165.085 1.53245 166.271 1.56398 167.226 1.37489C169.927 0.8234 172.793 0.933699 175.526 0.665831C181.389 0.0828232 186.593 0.933676 191.995 1.62698C193.412 1.80031 195.322 1.94214 196.409 1.64275C198.319 1.10702 200.197 1.57973 202.008 1.29611C203.622 1.044 205.368 0.996734 206.949 0.870679C208.135 1.53247 209.09 2.22575 210.374 2.69846C211.066 2.95057 212.647 2.98211 213.339 2.76151C213.866 2.58819 213.635 1.86337 213.767 1.34339C217.917 0.807651 221.013 2.60393 224.834 2.90331C225.394 2.14698 224.307 2.11545 223.681 1.86334C223.253 1.69001 222.957 1.42216 222.66 1.21732C222.891 1.05975 222.99 0.933699 223.121 0.902185C225.13 0.397962 226.909 1.10703 228.819 1.13854C230.697 1.17005 232.673 0.650066 234.485 0.776122C237.12 0.965205 239.524 1.15429 242.093 0.618552C242.719 0.492496 243.971 1.01248 244.959 1.24883L244.728 1.12277ZM175.823 4.19537C177.239 3.78569 178.688 3.39178 180.072 2.95059C180.302 2.8718 180.302 2.61967 180.5 2.33604C179.314 1.98939 178.293 1.37487 176.547 2.09969C176.35 2.74573 176.119 3.43905 175.889 4.13236C175.724 4.14812 175.526 4.19537 175.362 4.19537C175.23 4.17962 175.131 4.10085 174.999 4.05358C175.296 4.08509 175.559 4.13235 175.823 4.19537ZM255.73 2.16274C259.847 4.08509 260.242 4.22691 264.129 4.8887C264.458 4.95173 265.018 4.68384 266.105 4.43173C264.227 4.16386 262.91 4.0851 261.889 3.78572C260.835 3.45482 260.143 2.87179 259.155 2.46211C258.2 2.05243 257.113 1.627 255.73 2.16274ZM155.138 4.06931C150.263 3.07662 150.164 3.07662 145.092 4.06931C147.398 4.06931 148.814 4.06931 150.197 4.06931C151.844 4.06931 153.491 4.06931 155.138 4.06931ZM300.623 4.33721C304.082 4.43175 302.402 3.06089 303.489 2.63545C303.522 2.61969 303.127 2.36759 302.633 1.97367C301.908 2.80878 301.348 3.48633 300.623 4.33721ZM273.681 2.05245C273.648 2.14699 273.582 2.25728 273.549 2.35182C274.504 2.49363 275.426 2.65119 276.414 2.77725C276.48 2.793 276.744 2.63545 276.777 2.55667C276.81 2.47788 276.744 2.2888 276.645 2.2888C275.657 2.19426 274.669 2.13123 273.681 2.05245ZM130.632 3.70693C130.072 4.21115 129.512 4.479 129.611 4.66808C129.776 4.92019 130.369 5.23534 130.863 5.26685C131.225 5.29837 132.115 4.8887 132.049 4.73113C131.95 4.43175 131.357 4.17964 130.632 3.70693ZM256.948 1.04398C258.266 1.18579 258.859 1.29609 259.451 1.31184C259.748 1.3276 260.077 1.17006 260.407 1.10703C260.044 1.02825 259.715 0.870679 259.353 0.870679C258.793 0.839165 258.233 0.933683 256.948 1.04398ZM237.021 2.82453C237.186 2.77725 237.35 2.72998 237.515 2.66696C237.284 2.52514 237.087 2.38333 236.856 2.27303C236.823 2.25728 236.527 2.36756 236.362 2.41483C236.593 2.55664 236.823 2.69847 237.021 2.82453ZM294.925 3.75417C294.728 3.76993 294.53 3.76996 294.332 3.78572C294.431 3.92753 294.53 4.05356 294.629 4.19537C294.793 4.13235 295.024 4.0851 295.057 4.02207C295.156 3.94328 294.991 3.84871 294.925 3.75417ZM45.9827 8.70188L46.0156 8.5128L45.5545 8.59159L45.9827 8.70188Z" fill="#FFB400"/>
</svg>
