<svg width="154" height="40" viewBox="0 0 154 40" fill="none" xmlns="http://www.w3.org/2000/svg">
<rect width="154" height="40" rx="6.26" fill="#2E3092"/>
<path d="M16.5228 27.1963H13.2994L18.2109 12.969H22.0873L26.9918 27.1963H23.7684L20.2047 16.2202H20.0935L16.5228 27.1963ZM16.3213 21.604H23.9351V23.9521H16.3213V21.604ZM32.1949 12.969V27.1963H29.2355V12.969H32.1949ZM39.9735 27.4047C38.8945 27.4047 37.9613 27.1754 37.1739 26.717C36.3913 26.2538 35.7869 25.6101 35.3608 24.7857C34.9347 23.9567 34.7217 22.9957 34.7217 21.9027C34.7217 20.8005 34.9347 19.8372 35.3608 19.0128C35.7869 18.1838 36.3913 17.5401 37.1739 17.0816C37.9613 16.6185 38.8945 16.3869 39.9735 16.3869C41.0526 16.3869 41.9835 16.6185 42.7662 17.0816C43.5535 17.5401 44.1602 18.1838 44.5863 19.0128C45.0124 19.8372 45.2254 20.8005 45.2254 21.9027C45.2254 22.9957 45.0124 23.9567 44.5863 24.7857C44.1602 25.6101 43.5535 26.2538 42.7662 26.717C41.9835 27.1754 41.0526 27.4047 39.9735 27.4047ZM39.9874 25.1122C40.4784 25.1122 40.8882 24.9733 41.217 24.6954C41.5459 24.4129 41.7936 24.0285 41.9604 23.5422C42.1317 23.0559 42.2174 22.5025 42.2174 21.8819C42.2174 21.2613 42.1317 20.7079 41.9604 20.2216C41.7936 19.7353 41.5459 19.3509 41.217 19.0684C40.8882 18.7859 40.4784 18.6446 39.9874 18.6446C39.4919 18.6446 39.0751 18.7859 38.737 19.0684C38.4035 19.3509 38.1511 19.7353 37.9798 20.2216C37.8131 20.7079 37.7297 21.2613 37.7297 21.8819C37.7297 22.5025 37.8131 23.0559 37.9798 23.5422C38.1511 24.0285 38.4035 24.4129 38.737 24.6954C39.0751 24.9733 39.4919 25.1122 39.9874 25.1122ZM50.4181 24.1258L50.425 20.5759H50.8557L54.2736 16.5258H57.6707L53.0788 21.8888H52.3771L50.4181 24.1258ZM47.7366 27.1963V12.969H50.696V27.1963H47.7366ZM54.4056 27.1963L51.2656 22.5488L53.2385 20.4578L57.8721 27.1963H54.4056ZM61.7084 31.1977C61.3333 31.1977 60.9813 31.1676 60.6525 31.1074C60.3283 31.0518 60.0597 30.98 59.8466 30.892L60.5135 28.6829C60.8609 28.7894 61.1735 28.8473 61.4514 28.8566C61.7339 28.8659 61.977 28.801 62.1808 28.6621C62.3892 28.5231 62.5583 28.287 62.6879 27.9535L62.8616 27.502L59.0339 16.5258H62.1461L64.3552 24.3619H64.4663L66.6963 16.5258H69.8294L65.6821 28.3495C65.4829 28.9238 65.212 29.4239 64.8693 29.85C64.5312 30.2807 64.1028 30.6119 63.5841 30.8434C63.0654 31.0796 62.4402 31.1977 61.7084 31.1977ZM74.6868 27.3977C74.006 27.3977 73.3994 27.2797 72.8668 27.0435C72.3342 26.8026 71.9127 26.4483 71.6024 25.9806C71.2968 25.5082 71.1439 24.92 71.1439 24.2161C71.1439 23.6233 71.2528 23.1254 71.4704 22.7225C71.6881 22.3196 71.9845 21.9954 72.3596 21.7499C72.7348 21.5045 73.1608 21.3192 73.6379 21.1942C74.1195 21.0691 74.6243 20.9811 75.1523 20.9302C75.7729 20.8653 76.2731 20.8051 76.6528 20.7496C77.0326 20.6893 77.3081 20.6014 77.4795 20.4856C77.6509 20.3698 77.7365 20.1984 77.7365 19.9715V19.9298C77.7365 19.4898 77.5976 19.1495 77.3197 18.9086C77.0465 18.6678 76.6575 18.5474 76.1526 18.5474C75.62 18.5474 75.1963 18.6655 74.8814 18.9017C74.5664 19.1332 74.358 19.425 74.2561 19.777L71.5191 19.5547C71.658 18.9063 71.9312 18.3459 72.3388 17.8735C72.7463 17.3965 73.272 17.0306 73.9157 16.7759C74.5641 16.5166 75.3144 16.3869 76.1665 16.3869C76.7593 16.3869 77.3267 16.4564 77.8685 16.5953C78.415 16.7342 78.899 16.9496 79.3204 17.2414C79.7465 17.5331 80.0823 17.9083 80.3277 18.3668C80.5732 18.8206 80.6959 19.3648 80.6959 19.9993V27.1963H77.8894V25.7166H77.806C77.6347 26.05 77.4054 26.3441 77.1183 26.5989C76.8311 26.8489 76.4861 27.0458 76.0832 27.1893C75.6803 27.3283 75.2148 27.3977 74.6868 27.3977ZM75.5344 25.3554C75.9697 25.3554 76.3541 25.2697 76.6876 25.0983C77.021 24.9223 77.2827 24.6861 77.4726 24.3897C77.6624 24.0933 77.7574 23.7576 77.7574 23.3824V22.2501C77.6648 22.3103 77.5374 22.3659 77.3753 22.4168C77.2178 22.4631 77.0395 22.5071 76.8404 22.5488C76.6412 22.5859 76.4421 22.6206 76.243 22.653C76.0438 22.6808 75.8632 22.7063 75.7011 22.7294C75.3537 22.7804 75.0504 22.8614 74.791 22.9726C74.5317 23.0837 74.3302 23.2342 74.1867 23.4241C74.0431 23.6094 73.9713 23.8409 73.9713 24.1188C73.9713 24.5217 74.1172 24.8297 74.409 25.0427C74.7054 25.2512 75.0805 25.3554 75.5344 25.3554ZM93.7923 27.1963H88.7488V12.969H93.834C95.2651 12.969 96.497 13.2538 97.5297 13.8235C98.5625 14.3885 99.3568 15.2013 99.9125 16.2619C100.473 17.3224 100.753 18.5914 100.753 20.0688C100.753 21.5508 100.473 22.8244 99.9125 23.8896C99.3568 24.9548 98.5579 25.7722 97.5158 26.3418C96.4784 26.9115 95.2373 27.1963 93.7923 27.1963ZM91.7569 24.619H93.6673C94.5565 24.619 95.3044 24.4615 95.9111 24.1466C96.5224 23.827 96.9809 23.3338 97.2866 22.6669C97.5969 21.9954 97.752 21.1293 97.752 20.0688C97.752 19.0175 97.5969 18.1584 97.2866 17.4915C96.9809 16.8246 96.5248 16.3336 95.9181 16.0187C95.3114 15.7038 94.5634 15.5463 93.6742 15.5463H91.7569V24.619ZM108.375 27.4047C107.278 27.4047 106.333 27.1824 105.541 26.7378C104.754 26.2886 104.147 25.6541 103.721 24.8343C103.295 24.01 103.082 23.0351 103.082 21.9097C103.082 20.8121 103.295 19.8488 103.721 19.0198C104.147 18.1908 104.747 17.5447 105.52 17.0816C106.298 16.6185 107.211 16.3869 108.257 16.3869C108.961 16.3869 109.617 16.5004 110.223 16.7273C110.835 16.9496 111.367 17.2854 111.821 17.7346C112.28 18.1838 112.636 18.7488 112.891 19.4296C113.146 20.1058 113.273 20.8978 113.273 21.8055V22.6183H104.263V20.7843H110.487C110.487 20.3582 110.395 19.9808 110.209 19.6519C110.024 19.3231 109.767 19.0661 109.438 18.8808C109.114 18.691 108.737 18.596 108.306 18.596C107.857 18.596 107.458 18.7002 107.111 18.9086C106.768 19.1124 106.5 19.388 106.305 19.7353C106.111 20.078 106.011 20.4601 106.007 20.8815V22.6252C106.007 23.1532 106.104 23.6094 106.298 23.9938C106.497 24.3782 106.778 24.6746 107.139 24.883C107.5 25.0914 107.929 25.1956 108.424 25.1956C108.753 25.1956 109.054 25.1493 109.327 25.0566C109.6 24.964 109.834 24.8251 110.029 24.6398C110.223 24.4546 110.372 24.2276 110.473 23.959L113.211 24.1396C113.072 24.7973 112.787 25.3716 112.356 25.8625C111.93 26.3488 111.379 26.7285 110.703 27.0018C110.031 27.2704 109.255 27.4047 108.375 27.4047ZM120.654 27.4047C119.556 27.4047 118.612 27.1824 117.82 26.7378C117.032 26.2886 116.426 25.6541 116 24.8343C115.573 24.01 115.36 23.0351 115.36 21.9097C115.36 20.8121 115.573 19.8488 116 19.0198C116.426 18.1908 117.025 17.5447 117.799 17.0816C118.577 16.6185 119.489 16.3869 120.536 16.3869C121.24 16.3869 121.895 16.5004 122.502 16.7273C123.113 16.9496 123.646 17.2854 124.1 17.7346C124.558 18.1838 124.915 18.7488 125.169 19.4296C125.424 20.1058 125.552 20.8978 125.552 21.8055V22.6183H116.541V20.7843H122.766C122.766 20.3582 122.673 19.9808 122.488 19.6519C122.303 19.3231 122.046 19.0661 121.717 18.8808C121.393 18.691 121.015 18.596 120.585 18.596C120.135 18.596 119.737 18.7002 119.39 18.9086C119.047 19.1124 118.778 19.388 118.584 19.7353C118.389 20.078 118.29 20.4601 118.285 20.8815V22.6252C118.285 23.1532 118.382 23.6094 118.577 23.9938C118.776 24.3782 119.056 24.6746 119.417 24.883C119.779 25.0914 120.207 25.1956 120.703 25.1956C121.031 25.1956 121.332 25.1493 121.606 25.0566C121.879 24.964 122.113 24.8251 122.307 24.6398C122.502 24.4546 122.65 24.2276 122.752 23.959L125.489 24.1396C125.35 24.7973 125.065 25.3716 124.635 25.8625C124.208 26.3488 123.657 26.7285 122.981 27.0018C122.31 27.2704 121.534 27.4047 120.654 27.4047ZM128.07 31.1977V16.5258H130.987V18.3181H131.119C131.249 18.031 131.437 17.7392 131.682 17.4428C131.932 17.1418 132.256 16.8917 132.655 16.6926C133.058 16.4888 133.558 16.3869 134.155 16.3869C134.933 16.3869 135.651 16.5907 136.309 16.9982C136.966 17.4011 137.492 18.0102 137.886 18.8253C138.279 19.6357 138.476 20.6523 138.476 21.875C138.476 23.0652 138.284 24.0702 137.9 24.8899C137.52 25.705 137.001 26.3233 136.343 26.7447C135.69 27.1616 134.959 27.37 134.148 27.37C133.574 27.37 133.085 27.275 132.682 27.0851C132.284 26.8953 131.958 26.6567 131.703 26.3696C131.448 26.0778 131.254 25.7838 131.119 25.4873H131.029V31.1977H128.07ZM130.967 21.8611C130.967 22.4955 131.055 23.049 131.231 23.5214C131.407 23.9938 131.661 24.3619 131.995 24.6259C132.328 24.8853 132.733 25.015 133.21 25.015C133.692 25.015 134.1 24.883 134.433 24.619C134.767 24.3504 135.019 23.9799 135.19 23.5075C135.366 23.0305 135.454 22.4817 135.454 21.8611C135.454 21.2451 135.369 20.7032 135.197 20.2355C135.026 19.7677 134.773 19.4019 134.44 19.1379C134.107 18.8739 133.697 18.7419 133.21 18.7419C132.729 18.7419 132.321 18.8693 131.988 19.124C131.659 19.3787 131.407 19.7399 131.231 20.2077C131.055 20.6755 130.967 21.2266 130.967 21.8611Z" fill="#F3F5FF"/>
</svg>
