<svg width="273" height="12" viewBox="0 0 273 12" fill="none" xmlns="http://www.w3.org/2000/svg">
<path d="M207.487 1.21745C208.52 1.59252 209.526 1.9542 210.643 2.35607C211.397 2.14174 212.206 2.02119 212.597 1.76668C214.971 0.252977 218.266 -0.0149542 221.589 0.507474C225.108 1.05669 228.459 0.762009 231.95 0.762009C236.111 0.762009 240.355 0.494098 244.544 1.29783C247.588 1.88724 251.162 2.19534 253.452 0.494098C255.212 0.802196 256.719 1.32461 258.227 1.28442C260.35 1.24424 260.797 2.23553 262.333 2.40967C263.868 2.58382 265.46 2.67758 267.973 2.87852C266.717 2.23553 266.158 1.94082 265.572 1.63272C268.42 1.36481 270.347 2.30249 273 2.82492C272.302 3.10622 271.967 3.37414 271.548 3.40093C268.755 3.57508 266.074 3.90997 263.701 4.67351C262.36 5.10217 260.908 5.12896 259.428 4.90123C257.25 4.56634 255.156 4.67351 252.866 4.80747C249.235 5.0218 245.521 4.91465 241.835 4.88786C240.02 4.87446 238.205 4.71371 236.446 4.61994C236.278 4.41901 236.194 4.25824 236.055 4.0975C235.524 3.56167 234.631 3.41434 234.156 3.77602C233.681 4.1377 233.374 4.55297 232.927 5.02181C228.934 5.062 225.052 5.10216 221.17 5.12895C218.936 5.14235 216.702 5.08876 214.496 5.19593C212.29 5.30309 210.475 5.00842 208.911 4.28505C209.358 4.32524 209.805 4.36542 210.252 4.4056C210.252 4.39221 210.252 4.39221 210.252 4.37882C209.805 4.33863 209.358 4.31183 208.939 4.27165C208.883 4.7271 208.101 4.96823 207.431 4.82088C205.225 4.36543 203.131 4.60655 200.953 4.82088C198.244 5.07539 195.451 5.23612 192.687 5.3031C187.129 5.46385 181.572 5.53084 175.987 5.6514C174.563 5.67819 173.418 5.46385 172.776 4.60654C170.793 5.46385 168.643 5.59782 166.381 5.51744C162.304 5.3567 158.227 5.35668 154.205 6.03986C153.703 5.67818 153.284 5.39688 152.781 5.0486C151.357 5.26293 149.849 5.57102 148.313 5.67818C146.861 5.78535 145.269 5.53082 143.901 5.70497C138.456 6.42833 132.815 5.99966 127.313 6.46851C126.42 6.54888 125.47 6.45511 124.549 6.40153C122.873 6.29437 121.309 6.44174 119.634 6.58909C116.004 6.92398 112.289 7.01773 108.603 7.20527C106.034 7.32583 103.437 7.43299 100.868 7.54016C100.505 7.55355 100.114 7.63392 99.7789 7.60713C91.9877 7.05792 84.364 8.42429 76.5729 8.1028C69.1726 8.98691 61.4373 8.31713 54.0371 9.17444C53.6741 9.21463 53.2831 9.2146 52.9201 9.2146C49.569 9.12084 46.3576 9.40216 43.0624 9.67007C30.2726 10.7015 17.3432 11.1704 4.3858 11.2909C3.82729 11.2909 3.26878 11.3445 2.73819 11.2909C1.17437 11.157 -0.221882 10.2863 0.0294469 9.53612C0.336626 8.57164 0.755486 7.62053 1.09059 6.73642C1.56532 6.56228 1.84459 6.38814 2.15177 6.37475C6.95493 6.13363 11.8139 5.5978 16.5333 5.79873C20.8897 5.98627 24.9668 5.70498 29.1277 5.38349C30.2168 5.30311 31.3338 5.37007 32.4508 5.32988C33.9029 5.2897 35.4388 5.32988 36.8072 5.12895C42.113 4.31182 46.9999 4.76728 52.0823 6.10683C55.0983 4.90123 58.5331 3.84299 63.0012 4.87445C64.0623 4.33862 65.0397 3.84297 66.2126 3.25357C67.1062 3.44111 67.9439 3.58848 68.6979 3.77602C70.7923 4.31184 72.6354 4.15109 74.1992 3.30717L74.1434 3.29376C76.0423 3.57507 77.9412 3.84299 79.9239 4.13769C80.2869 3.66884 80.5941 3.26698 81.0409 2.70437C82.521 2.79814 84.1406 2.82494 85.6486 3.01247C87.4079 3.2268 88.888 3.22679 90.0608 2.46324C90.0608 2.44985 90.5356 2.59719 90.7869 2.69096C90.8428 2.78473 90.8986 2.8785 90.9544 2.95887C91.0103 3.02585 91.0662 3.09283 91.122 3.15981C91.0103 2.98566 90.8986 2.82491 90.7869 2.65077C92.9651 2.98566 94.7523 2.66419 95.9531 1.80687C98.1313 2.06139 97.7682 2.97227 98.4943 3.53489C99.4996 4.31183 100.784 4.64673 102.907 4.37882C102.236 4.11091 101.65 3.93677 101.231 3.68225C100.589 3.28039 100.868 2.63739 101.706 2.57041C103.884 2.38288 106.062 2.24893 108.268 2.14176C110.083 2.04799 112.178 2.27569 113.714 1.91401C116.003 1.36479 118.07 1.45859 120.081 1.87385C121.896 2.24893 123.599 2.28911 125.47 2.14176C126.922 2.0346 128.458 2.03458 129.91 2.15514C132.005 2.31588 133.904 2.3293 135.831 1.80687C136.724 1.57915 137.981 1.6729 139.07 1.61931C139.963 1.56573 140.969 1.59254 141.779 1.43179C144.068 0.962943 146.498 1.05671 148.816 0.828987C153.787 0.333351 158.199 1.05669 162.779 1.6461C163.979 1.79345 165.599 1.91402 166.521 1.65951C168.14 1.20406 169.732 1.60593 171.268 1.36481C172.636 1.15048 174.116 1.1103 175.457 1.00314C176.462 1.56575 177.272 2.15514 178.361 2.557C178.947 2.77133 180.288 2.79814 180.874 2.61061C181.321 2.46326 181.125 1.84706 181.237 1.405C184.756 0.949554 187.381 2.47664 190.62 2.73115C191.095 2.08817 190.173 2.06136 189.643 1.84703C189.28 1.69968 189.028 1.47198 188.777 1.29783C188.973 1.16388 189.056 1.05671 189.168 1.02992C190.871 0.601262 192.379 1.20406 193.999 1.23085C195.591 1.25765 197.266 0.815585 198.802 0.92275C201.036 1.0835 203.075 1.24424 205.253 0.788794C205.784 0.681629 206.845 1.12368 207.682 1.32462L207.487 1.21745ZM149.067 3.82959C150.268 3.4813 151.497 3.14642 152.67 2.77135C152.865 2.70437 152.865 2.49002 153.033 2.2489C152.027 1.9542 151.162 1.43177 149.682 2.04797C149.514 2.59718 149.318 3.18661 149.123 3.77602C148.983 3.78941 148.816 3.82959 148.676 3.82959C148.565 3.81619 148.481 3.74922 148.369 3.70904C148.62 3.73583 148.844 3.776 149.067 3.82959ZM216.814 2.10157C220.305 3.73583 220.64 3.8564 223.935 4.41901C224.214 4.47259 224.689 4.24485 225.611 4.03052C224.019 3.80279 222.902 3.73584 222.036 3.48132C221.143 3.20001 220.556 2.70436 219.718 2.35607C218.909 2.00779 217.987 1.64612 216.814 2.10157ZM131.53 3.72241C127.397 2.87849 127.313 2.87849 123.013 3.72241C124.968 3.72241 126.168 3.72241 127.341 3.72241C128.737 3.72241 130.134 3.72241 131.53 3.72241ZM254.876 3.95017C257.809 4.03054 256.384 2.86512 257.306 2.50344C257.334 2.49004 256.999 2.27572 256.58 1.94083C255.965 2.65079 255.491 3.2268 254.876 3.95017ZM232.033 2.00781C232.006 2.08818 231.95 2.18193 231.922 2.26231C232.732 2.38287 233.513 2.51682 234.351 2.62398C234.407 2.63738 234.631 2.50344 234.658 2.43646C234.686 2.36948 234.631 2.20874 234.547 2.20874C233.709 2.12837 232.871 2.07478 232.033 2.00781ZM110.754 3.41434C110.279 3.843 109.804 4.07071 109.888 4.23145C110.027 4.44578 110.53 4.7137 110.949 4.74049C111.256 4.76728 112.01 4.41901 111.954 4.28505C111.871 4.03054 111.368 3.81621 110.754 3.41434ZM217.847 1.15047C218.964 1.27103 219.467 1.36479 219.97 1.37819C220.221 1.39158 220.5 1.25765 220.78 1.20407C220.472 1.13709 220.193 1.00314 219.886 1.00314C219.411 0.976345 218.936 1.0567 217.847 1.15047ZM200.953 2.66418C201.092 2.62399 201.232 2.5838 201.371 2.53022C201.176 2.40966 201.008 2.2891 200.813 2.19533C200.785 2.18193 200.534 2.27569 200.394 2.31588C200.589 2.43644 200.785 2.55701 200.953 2.66418ZM250.045 3.4545C249.878 3.4679 249.71 3.46792 249.543 3.48132C249.626 3.60188 249.71 3.70902 249.794 3.82959C249.934 3.776 250.129 3.73584 250.157 3.68225C250.241 3.61528 250.101 3.53488 250.045 3.4545ZM38.9853 7.66074L39.0132 7.5L38.6223 7.56697L38.9853 7.66074Z" fill="#44C95B"/>
</svg>
