<svg width="240" height="20" viewBox="0 0 240 20" fill="none" xmlns="http://www.w3.org/2000/svg">
<path d="M28.665 14.9998L26.0968 6.27248H27.8525L29.5627 12.6816H29.6479L31.3638 6.27248H33.1195L34.824 12.6532H34.9093L36.6081 6.27248H38.3638L35.8013 14.9998H34.0684L32.2956 8.69862H32.165L30.3922 14.9998H28.665ZM41.8681 14.9998L39.2999 6.27248H41.0556L42.7658 12.6816H42.851L44.5669 6.27248H46.3226L48.0272 12.6532H48.1124L49.8113 6.27248H51.5669L49.0044 14.9998H47.2715L45.4988 8.69862H45.3681L43.5953 14.9998H41.8681ZM55.0712 14.9998L52.503 6.27248H54.2587L55.9689 12.6816H56.0542L57.7701 6.27248H59.5257L61.2303 12.6532H61.3155L63.0144 6.27248H64.7701L62.2076 14.9998H60.4746L58.7019 8.69862H58.5712L56.7985 14.9998H55.0712ZM66.3141 15.1077C66.0035 15.1077 65.7364 14.9979 65.513 14.7782C65.2895 14.5547 65.1777 14.2857 65.1777 13.9713C65.1777 13.6607 65.2895 13.3956 65.513 13.1759C65.7364 12.9524 66.0035 12.8407 66.3141 12.8407C66.6247 12.8407 66.8917 12.9524 67.1152 13.1759C67.3387 13.3956 67.4505 13.6607 67.4505 13.9713C67.4505 14.1797 67.3974 14.371 67.2914 14.5452C67.1891 14.7157 67.0527 14.852 66.8823 14.9543C66.7118 15.0566 66.5224 15.1077 66.3141 15.1077ZM73.7999 6.27248V7.63612H69.0328V6.27248H73.7999ZM70.3113 4.18157H72.0101V12.4373C72.0101 12.7668 72.0594 13.0149 72.1578 13.1816C72.2563 13.3445 72.3832 13.4562 72.5385 13.5168C72.6976 13.5736 72.87 13.602 73.0556 13.602C73.1919 13.602 73.3113 13.5926 73.4135 13.5736C73.5158 13.5547 73.5953 13.5395 73.6522 13.5282L73.959 14.9316C73.8605 14.9695 73.7203 15.0073 73.5385 15.0452C73.3567 15.0869 73.1294 15.1096 72.8567 15.1134C72.4097 15.121 71.9931 15.0414 71.6067 14.8748C71.2203 14.7081 70.9078 14.4505 70.6692 14.102C70.4306 13.7535 70.3113 13.316 70.3113 12.7895V4.18157ZM77.5655 9.81794V14.9998H75.8667V3.36339H77.5428V7.69294H77.6507C77.8553 7.22324 78.1678 6.85013 78.5882 6.57362C79.0087 6.2971 79.5579 6.15885 80.236 6.15885C80.8345 6.15885 81.3572 6.28195 81.8042 6.52816C82.2549 6.77438 82.6034 7.1418 82.8496 7.63044C83.0996 8.11529 83.2246 8.72135 83.2246 9.44862V14.9998H81.5257V9.65316C81.5257 9.01301 81.361 8.5168 81.0314 8.16453C80.7019 7.80847 80.2435 7.63044 79.6564 7.63044C79.2549 7.63044 78.8951 7.71566 78.5769 7.88612C78.2625 8.05657 78.0144 8.30657 77.8326 8.63612C77.6545 8.96188 77.5655 9.35582 77.5655 9.81794ZM89.253 15.1759C88.3932 15.1759 87.6526 14.9922 87.0314 14.6248C86.414 14.2535 85.9367 13.7327 85.5996 13.0623C85.2663 12.388 85.0996 11.5982 85.0996 10.6929C85.0996 9.799 85.2663 9.01112 85.5996 8.3293C85.9367 7.64748 86.4064 7.11529 87.0087 6.73271C87.6148 6.35013 88.3231 6.15885 89.1337 6.15885C89.6261 6.15885 90.1034 6.24029 90.5655 6.40316C91.0276 6.56604 91.4424 6.82173 91.8098 7.17021C92.1773 7.5187 92.467 7.97135 92.6792 8.52816C92.8913 9.0812 92.9973 9.75354 92.9973 10.5452V11.1475H86.0598V9.87476H91.3326C91.3326 9.42779 91.2417 9.03195 91.0598 8.68726C90.878 8.33877 90.6223 8.06415 90.2928 7.86339C89.967 7.66263 89.5845 7.56226 89.1451 7.56226C88.6678 7.56226 88.2511 7.67968 87.8951 7.91453C87.5428 8.14559 87.2701 8.44862 87.0769 8.82362C86.8875 9.19483 86.7928 9.59824 86.7928 10.0338V11.0282C86.7928 11.6115 86.8951 12.1077 87.0996 12.5168C87.3079 12.9259 87.5977 13.2384 87.9689 13.4543C88.3401 13.6664 88.7739 13.7725 89.2701 13.7725C89.592 13.7725 89.8856 13.727 90.1507 13.6361C90.4159 13.5414 90.6451 13.4013 90.8382 13.2157C91.0314 13.0301 91.1792 12.8009 91.2814 12.5282L92.8894 12.8179C92.7606 13.2914 92.5295 13.7062 92.1962 14.0623C91.8667 14.4145 91.4519 14.6891 90.9519 14.8861C90.4557 15.0793 89.8894 15.1759 89.253 15.1759ZM96.5811 9.81794V14.9998H94.8823V3.36339H96.5584V7.69294H96.6664C96.8709 7.22324 97.1834 6.85013 97.6039 6.57362C98.0243 6.2971 98.5736 6.15885 99.2516 6.15885C99.8501 6.15885 100.373 6.28195 100.82 6.52816C101.271 6.77438 101.619 7.1418 101.865 7.63044C102.115 8.11529 102.24 8.72135 102.24 9.44862V14.9998H100.541V9.65316C100.541 9.01301 100.377 8.5168 100.047 8.16453C99.7175 7.80847 99.2592 7.63044 98.6721 7.63044C98.2705 7.63044 97.9107 7.71566 97.5925 7.88612C97.2781 8.05657 97.03 8.30657 96.8482 8.63612C96.6702 8.96188 96.5811 9.35582 96.5811 9.81794ZM107.047 15.1929C106.494 15.1929 105.994 15.0907 105.547 14.8861C105.1 14.6778 104.746 14.3766 104.485 13.9827C104.227 13.5888 104.098 13.1058 104.098 12.5338C104.098 12.0414 104.193 11.6361 104.382 11.3179C104.572 10.9998 104.827 10.7479 105.149 10.5623C105.471 10.3766 105.831 10.2365 106.229 10.1418C106.627 10.0471 107.032 9.97513 107.445 9.92589C107.968 9.86529 108.392 9.81604 108.718 9.77816C109.043 9.7365 109.28 9.67021 109.428 9.5793C109.575 9.48839 109.649 9.34066 109.649 9.13612V9.09635C109.649 8.60013 109.509 8.21566 109.229 7.94294C108.952 7.67021 108.539 7.53385 107.99 7.53385C107.418 7.53385 106.968 7.66074 106.638 7.91453C106.312 8.16453 106.087 8.44294 105.962 8.74976L104.365 8.38612C104.555 7.85582 104.831 7.42779 105.195 7.10203C105.562 6.77248 105.985 6.53385 106.462 6.38612C106.939 6.2346 107.441 6.15885 107.968 6.15885C108.316 6.15885 108.685 6.20051 109.075 6.28385C109.469 6.36339 109.837 6.51112 110.178 6.72703C110.522 6.94294 110.805 7.25165 111.024 7.65316C111.244 8.05089 111.354 8.56794 111.354 9.2043V14.9998H109.695V13.8066H109.627C109.517 14.0263 109.352 14.2422 109.132 14.4543C108.913 14.6664 108.63 14.8426 108.286 14.9827C107.941 15.1229 107.528 15.1929 107.047 15.1929ZM107.416 13.8293C107.886 13.8293 108.288 13.7365 108.621 13.5509C108.958 13.3653 109.214 13.1229 109.388 12.8236C109.566 12.5206 109.655 12.1967 109.655 11.852V10.727C109.594 10.7876 109.477 10.8445 109.303 10.8975C109.132 10.9467 108.937 10.9903 108.718 11.0282C108.498 11.0623 108.284 11.0945 108.075 11.1248C107.867 11.1513 107.693 11.174 107.553 11.1929C107.223 11.2346 106.922 11.3047 106.649 11.4032C106.38 11.5016 106.164 11.6437 106.002 11.8293C105.843 12.0111 105.763 12.2535 105.763 12.5566C105.763 12.977 105.918 13.2952 106.229 13.5111C106.539 13.7232 106.935 13.8293 107.416 13.8293ZM113.617 14.9998V6.27248H115.247V7.69294H115.355C115.537 7.21188 115.834 6.83688 116.247 6.56794C116.66 6.29521 117.155 6.15885 117.73 6.15885C118.314 6.15885 118.802 6.29521 119.196 6.56794C119.594 6.84066 119.887 7.21566 120.077 7.69294H120.168C120.376 7.22703 120.708 6.85582 121.162 6.5793C121.617 6.299 122.158 6.15885 122.787 6.15885C123.579 6.15885 124.225 6.40695 124.725 6.90316C125.228 7.39938 125.48 8.14748 125.48 9.14748V14.9998H123.781V9.30657C123.781 8.71566 123.62 8.28763 123.298 8.02248C122.977 7.75733 122.592 7.62476 122.145 7.62476C121.592 7.62476 121.162 7.79521 120.855 8.13612C120.548 8.47324 120.395 8.90695 120.395 9.43726V14.9998H118.702V9.19862C118.702 8.72513 118.554 8.34445 118.259 8.05657C117.963 7.7687 117.579 7.62476 117.105 7.62476C116.783 7.62476 116.486 7.70998 116.213 7.88044C115.944 8.0471 115.727 8.28006 115.56 8.5793C115.397 8.87854 115.316 9.22513 115.316 9.61907V14.9998H113.617ZM127.757 14.9998V6.27248H129.399V7.65885H129.49C129.649 7.18915 129.93 6.81983 130.331 6.55089C130.736 6.27816 131.195 6.1418 131.706 6.1418C131.812 6.1418 131.937 6.14559 132.081 6.15316C132.229 6.16074 132.344 6.17021 132.428 6.18157V7.80657C132.36 7.78763 132.238 7.7668 132.064 7.74407C131.89 7.71756 131.716 7.7043 131.541 7.7043C131.14 7.7043 130.782 7.78953 130.468 7.95998C130.157 8.12665 129.911 8.3596 129.729 8.65885C129.547 8.9543 129.456 9.29142 129.456 9.67021V14.9998H127.757ZM137.262 15.1759C136.443 15.1759 135.729 14.9884 135.119 14.6134C134.51 14.2384 134.036 13.7138 133.699 13.0395C133.362 12.3653 133.193 11.5774 133.193 10.6759C133.193 9.77059 133.362 8.97892 133.699 8.30089C134.036 7.62286 134.51 7.09635 135.119 6.72135C135.729 6.34635 136.443 6.15885 137.262 6.15885C138.08 6.15885 138.794 6.34635 139.404 6.72135C140.013 7.09635 140.487 7.62286 140.824 8.30089C141.161 8.97892 141.33 9.77059 141.33 10.6759C141.33 11.5774 141.161 12.3653 140.824 13.0395C140.487 13.7138 140.013 14.2384 139.404 14.6134C138.794 14.9884 138.08 15.1759 137.262 15.1759ZM137.267 13.7498C137.798 13.7498 138.237 13.6096 138.585 13.3293C138.934 13.049 139.191 12.6759 139.358 12.21C139.529 11.7441 139.614 11.2308 139.614 10.6702C139.614 10.1134 139.529 9.60203 139.358 9.13612C139.191 8.66642 138.934 8.28953 138.585 8.00544C138.237 7.72135 137.798 7.5793 137.267 7.5793C136.733 7.5793 136.29 7.72135 135.938 8.00544C135.589 8.28953 135.33 8.66642 135.159 9.13612C134.993 9.60203 134.909 10.1134 134.909 10.6702C134.909 11.2308 134.993 11.7441 135.159 12.21C135.33 12.6759 135.589 13.049 135.938 13.3293C136.29 13.6096 136.733 13.7498 137.267 13.7498ZM144.345 15.1077C144.035 15.1077 143.768 14.9979 143.544 14.7782C143.321 14.5547 143.209 14.2857 143.209 13.9713C143.209 13.6607 143.321 13.3956 143.544 13.1759C143.768 12.9524 144.035 12.8407 144.345 12.8407C144.656 12.8407 144.923 12.9524 145.146 13.1759C145.37 13.3956 145.482 13.6607 145.482 13.9713C145.482 14.1797 145.429 14.371 145.323 14.5452C145.22 14.7157 145.084 14.852 144.914 14.9543C144.743 15.0566 144.554 15.1077 144.345 15.1077ZM151.433 15.1759C150.589 15.1759 149.861 14.9846 149.252 14.602C148.646 14.2157 148.18 13.6835 147.854 13.0054C147.528 12.3274 147.365 11.5509 147.365 10.6759C147.365 9.78953 147.532 9.00733 147.865 8.3293C148.199 7.64748 148.668 7.11529 149.274 6.73271C149.88 6.35013 150.594 6.15885 151.416 6.15885C152.079 6.15885 152.67 6.28195 153.189 6.52816C153.708 6.77059 154.127 7.1115 154.445 7.55089C154.767 7.99029 154.958 8.50354 155.019 9.09066H153.365C153.274 8.68157 153.066 8.3293 152.74 8.03385C152.418 7.73839 151.986 7.59066 151.445 7.59066C150.971 7.59066 150.557 7.71566 150.2 7.96566C149.848 8.21188 149.574 8.56415 149.377 9.02248C149.18 9.47703 149.081 10.0149 149.081 10.6361C149.081 11.2725 149.178 11.8217 149.371 12.2838C149.564 12.746 149.837 13.1039 150.189 13.3577C150.545 13.6115 150.964 13.7384 151.445 13.7384C151.767 13.7384 152.058 13.6797 152.32 13.5623C152.585 13.441 152.807 13.2687 152.985 13.0452C153.166 12.8217 153.293 12.5528 153.365 12.2384H155.019C154.958 12.8028 154.774 13.3066 154.468 13.7498C154.161 14.1929 153.75 14.5414 153.235 14.7952C152.723 15.049 152.123 15.1759 151.433 15.1759ZM160.512 15.1759C159.693 15.1759 158.979 14.9884 158.369 14.6134C157.76 14.2384 157.286 13.7138 156.949 13.0395C156.612 12.3653 156.443 11.5774 156.443 10.6759C156.443 9.77059 156.612 8.97892 156.949 8.30089C157.286 7.62286 157.76 7.09635 158.369 6.72135C158.979 6.34635 159.693 6.15885 160.512 6.15885C161.33 6.15885 162.044 6.34635 162.654 6.72135C163.263 7.09635 163.737 7.62286 164.074 8.30089C164.411 8.97892 164.58 9.77059 164.58 10.6759C164.58 11.5774 164.411 12.3653 164.074 13.0395C163.737 13.7138 163.263 14.2384 162.654 14.6134C162.044 14.9884 161.33 15.1759 160.512 15.1759ZM160.517 13.7498C161.048 13.7498 161.487 13.6096 161.835 13.3293C162.184 13.049 162.441 12.6759 162.608 12.21C162.779 11.7441 162.864 11.2308 162.864 10.6702C162.864 10.1134 162.779 9.60203 162.608 9.13612C162.441 8.66642 162.184 8.28953 161.835 8.00544C161.487 7.72135 161.048 7.5793 160.517 7.5793C159.983 7.5793 159.54 7.72135 159.188 8.00544C158.839 8.28953 158.58 8.66642 158.409 9.13612C158.243 9.60203 158.159 10.1134 158.159 10.6702C158.159 11.2308 158.243 11.7441 158.409 12.21C158.58 12.6759 158.839 13.049 159.188 13.3293C159.54 13.6096 159.983 13.7498 160.517 13.7498ZM166.476 14.9998V6.27248H168.107V7.69294H168.215C168.396 7.21188 168.694 6.83688 169.107 6.56794C169.52 6.29521 170.014 6.15885 170.59 6.15885C171.173 6.15885 171.662 6.29521 172.056 6.56794C172.453 6.84066 172.747 7.21566 172.936 7.69294H173.027C173.235 7.22703 173.567 6.85582 174.021 6.5793C174.476 6.299 175.018 6.15885 175.646 6.15885C176.438 6.15885 177.084 6.40695 177.584 6.90316C178.088 7.39938 178.34 8.14748 178.34 9.14748V14.9998H176.641V9.30657C176.641 8.71566 176.48 8.28763 176.158 8.02248C175.836 7.75733 175.451 7.62476 175.004 7.62476C174.451 7.62476 174.021 7.79521 173.715 8.13612C173.408 8.47324 173.254 8.90695 173.254 9.43726V14.9998H171.561V9.19862C171.561 8.72513 171.414 8.34445 171.118 8.05657C170.823 7.7687 170.438 7.62476 169.965 7.62476C169.643 7.62476 169.345 7.70998 169.073 7.88044C168.804 8.0471 168.586 8.28006 168.419 8.5793C168.256 8.87854 168.175 9.22513 168.175 9.61907V14.9998H166.476Z" fill="#DC143C"/>
<g clip-path="url(#clip0_1803_860)">
<path d="M10.6792 18.333C15.5944 18.333 19.579 14.6021 19.579 9.99971C19.579 5.39734 15.5944 1.66638 10.6792 1.66638C5.7639 1.66638 1.7793 5.39734 1.7793 9.99971C1.7793 14.6021 5.7639 18.333 10.6792 18.333Z" stroke="#DC143C" stroke-width="2" stroke-linecap="round" stroke-linejoin="round"/>
<path d="M1.7793 9.99976H19.579" stroke="#DC143C" stroke-width="2" stroke-linecap="round" stroke-linejoin="round"/>
<path d="M10.6791 1.66638C12.9052 3.94834 14.1703 6.90974 14.239 9.99971C14.1703 13.0897 12.9052 16.0511 10.6791 18.333C8.45298 16.0511 7.18789 13.0897 7.11914 9.99971C7.18789 6.90974 8.45298 3.94834 10.6791 1.66638Z" stroke="#DC143C" stroke-width="2" stroke-linecap="round" stroke-linejoin="round"/>
</g>
<defs>
<clipPath id="clip0_1803_860">
<rect width="21.3596" height="20" fill="white" transform="translate(0 -0.000244141)"/>
</clipPath>
</defs>
</svg>
