<svg width="161" height="41" viewBox="0 0 161 41" fill="none" xmlns="http://www.w3.org/2000/svg">
<rect y="0.625854" width="160.454" height="39.9075" rx="6.26" fill="#0063AE"/>
<path d="M14.6076 13.5711H18.3173L22.2354 23.13H22.4021L26.3201 13.5711H30.0298V27.7983H27.1121V18.5381H26.994L23.3121 27.7289H21.3253L17.6434 18.5034H17.5253V27.7983H14.6076V13.5711ZM37.9022 28.0067C36.8046 28.0067 35.8598 27.7844 35.0679 27.3398C34.2806 26.8906 33.6739 26.2561 33.2478 25.4364C32.8217 24.612 32.6087 23.6371 32.6087 22.5117C32.6087 21.4141 32.8217 20.4508 33.2478 19.6218C33.6739 18.7928 34.2736 18.1468 35.0471 17.6836C35.8251 17.2205 36.7375 16.9889 37.7841 16.9889C38.4881 16.9889 39.1434 17.1024 39.7501 17.3293C40.3614 17.5516 40.894 17.8874 41.3479 18.3366C41.8064 18.7859 42.163 19.3509 42.4177 20.0317C42.6724 20.7079 42.7998 21.4998 42.7998 22.4075V23.2203H33.7897V21.3863H40.0141C40.0141 20.9603 39.9215 20.5828 39.7362 20.254C39.551 19.9252 39.2939 19.6681 38.9651 19.4829C38.6409 19.293 38.2635 19.1981 37.8328 19.1981C37.3835 19.1981 36.9852 19.3023 36.6379 19.5107C36.2952 19.7145 36.0266 19.99 35.8321 20.3374C35.6375 20.6801 35.538 21.0622 35.5333 21.4836V23.2273C35.5333 23.7552 35.6306 24.2114 35.8251 24.5958C36.0243 24.9802 36.3044 25.2766 36.6657 25.485C37.0269 25.6934 37.4553 25.7976 37.9509 25.7976C38.2797 25.7976 38.5807 25.7513 38.854 25.6587C39.1272 25.5661 39.3611 25.4271 39.5556 25.2419C39.7501 25.0566 39.8983 24.8297 40.0002 24.5611L42.7373 24.7417C42.5983 25.3993 42.3135 25.9736 41.8828 26.4645C41.4567 26.9508 40.9056 27.3306 40.2294 27.6038C39.5579 27.8724 38.7822 28.0067 37.9022 28.0067ZM45.3179 27.7983V17.1279H48.187V18.9897H48.2981C48.4927 18.3274 48.8192 17.8272 49.2777 17.4891C49.7362 17.1464 50.2641 16.9751 50.8616 16.9751C51.0098 16.9751 51.1695 16.9843 51.3409 17.0028C51.5122 17.0214 51.6628 17.0468 51.7924 17.0793V19.7052C51.6535 19.6635 51.4613 19.6265 51.2158 19.594C50.9704 19.5616 50.7458 19.5454 50.542 19.5454C50.1067 19.5454 49.7176 19.6404 49.3749 19.8302C49.0368 20.0155 48.7682 20.2748 48.5691 20.6083C48.3746 20.9417 48.2773 21.3261 48.2773 21.7615V27.7983H45.3179ZM58.7861 27.9998C57.6653 27.9998 56.702 27.7706 55.8962 27.3121C55.095 26.8489 54.4767 26.2052 54.0414 25.3808C53.6107 24.5518 53.3953 23.5908 53.3953 22.4978C53.3953 21.4002 53.6107 20.4392 54.0414 19.6149C54.4767 18.7859 55.095 18.1421 55.8962 17.6836C56.702 17.2205 57.6653 16.9889 58.7861 16.9889C59.9069 16.9889 60.8679 17.2205 61.6691 17.6836C62.4749 18.1421 63.0932 18.7859 63.5239 19.6149C63.9592 20.4392 64.1769 21.4002 64.1769 22.4978C64.1769 23.5908 63.9592 24.5518 63.5239 25.3808C63.0932 26.2052 62.4749 26.8489 61.6691 27.3121C60.8679 27.7706 59.9069 27.9998 58.7861 27.9998ZM58.8069 25.4364C59.2145 25.4364 59.5595 25.3113 59.842 25.0613C60.1245 24.8112 60.3399 24.4638 60.4881 24.0192C60.6409 23.5746 60.7173 23.0605 60.7173 22.477C60.7173 21.8842 60.6409 21.3655 60.4881 20.9209C60.3399 20.4763 60.1245 20.129 59.842 19.8789C59.5595 19.6288 59.2145 19.5037 58.8069 19.5037C58.3855 19.5037 58.0289 19.6288 57.7371 19.8789C57.45 20.129 57.23 20.4763 57.0772 20.9209C56.929 21.3655 56.8549 21.8842 56.8549 22.477C56.8549 23.0605 56.929 23.5746 57.0772 24.0192C57.23 24.4638 57.45 24.8112 57.7371 25.0613C58.0289 25.3113 58.3855 25.4364 58.8069 25.4364ZM66.504 27.7983V13.5711H72.3811C73.4463 13.5711 74.3656 13.7795 75.139 14.1963C75.917 14.6085 76.5168 15.1851 76.9382 15.9261C77.3597 16.6624 77.5704 17.5192 77.5704 18.4964C77.5704 19.4783 77.3551 20.3374 76.9243 21.0737C76.4983 21.8055 75.8893 22.3728 75.0973 22.7757C74.3054 23.1786 73.3652 23.3801 72.2769 23.3801H68.6506V20.6708H71.6377C72.1565 20.6708 72.5895 20.5805 72.9368 20.3999C73.2888 20.2193 73.5551 19.9669 73.7357 19.6427C73.9163 19.3138 74.0066 18.9318 74.0066 18.4964C74.0066 18.0565 73.9163 17.6767 73.7357 17.3571C73.5551 17.0329 73.2888 16.7829 72.9368 16.6069C72.5848 16.4309 72.1518 16.3429 71.6377 16.3429H69.9427V27.7983H66.504ZM79.9565 27.7983V17.1279H82.8256V18.9897H82.9368C83.1313 18.3274 83.4578 17.8272 83.9163 17.4891C84.3748 17.1464 84.9027 16.9751 85.5002 16.9751C85.6484 16.9751 85.8081 16.9843 85.9795 17.0028C86.1509 17.0214 86.3014 17.0468 86.4311 17.0793V19.7052C86.2921 19.6635 86.0999 19.6265 85.8545 19.594C85.609 19.5616 85.3844 19.5454 85.1806 19.5454C84.7453 19.5454 84.3562 19.6404 84.0135 19.8302C83.6754 20.0155 83.4068 20.2748 83.2077 20.6083C83.0132 20.9417 82.9159 21.3261 82.9159 21.7615V27.7983H79.9565ZM92.8724 28.0067C91.7934 28.0067 90.8602 27.7775 90.0728 27.319C89.2901 26.8559 88.6858 26.2121 88.2597 25.3878C87.8336 24.5588 87.6206 23.5978 87.6206 22.5048C87.6206 21.4026 87.8336 20.4392 88.2597 19.6149C88.6858 18.7859 89.2901 18.1421 90.0728 17.6836C90.8602 17.2205 91.7934 16.9889 92.8724 16.9889C93.9515 16.9889 94.8824 17.2205 95.6651 17.6836C96.4524 18.1421 97.0591 18.7859 97.4852 19.6149C97.9113 20.4392 98.1243 21.4026 98.1243 22.5048C98.1243 23.5978 97.9113 24.5588 97.4852 25.3878C97.0591 26.2121 96.4524 26.8559 95.6651 27.319C94.8824 27.7775 93.9515 28.0067 92.8724 28.0067ZM92.8863 25.7143C93.3772 25.7143 93.7871 25.5753 94.1159 25.2975C94.4448 25.0149 94.6925 24.6305 94.8593 24.1443C95.0306 23.658 95.1163 23.1045 95.1163 22.484C95.1163 21.8634 95.0306 21.3099 94.8593 20.8236C94.6925 20.3374 94.4448 19.953 94.1159 19.6705C93.7871 19.3879 93.3772 19.2467 92.8863 19.2467C92.3908 19.2467 91.974 19.3879 91.6359 19.6705C91.3024 19.953 91.05 20.3374 90.8787 20.8236C90.7119 21.3099 90.6286 21.8634 90.6286 22.484C90.6286 23.1045 90.7119 23.658 90.8787 24.1443C91.05 24.6305 91.3024 25.0149 91.6359 25.2975C91.974 25.5753 92.3908 25.7143 92.8863 25.7143ZM100.635 17.1279H103.595V28.3263C103.595 29.1507 103.433 29.8176 103.109 30.327C102.784 30.8365 102.319 31.2093 101.712 31.4455C101.11 31.6817 100.39 31.7998 99.5518 31.7998C99.4499 31.7998 99.3526 31.7974 99.26 31.7928C99.1627 31.7928 99.0608 31.7905 98.9543 31.7859V29.4725C99.0331 29.4772 99.1025 29.4795 99.1627 29.4795C99.2183 29.4841 99.2785 29.4864 99.3433 29.4864C99.8204 29.4864 100.154 29.3846 100.344 29.1808C100.538 28.9816 100.635 28.6806 100.635 28.2777V17.1279ZM102.108 15.7524C101.673 15.7524 101.298 15.6065 100.983 15.3147C100.668 15.0183 100.51 14.664 100.51 14.2519C100.51 13.8443 100.668 13.4947 100.983 13.2029C101.298 12.9065 101.673 12.7583 102.108 12.7583C102.553 12.7583 102.93 12.9065 103.241 13.2029C103.555 13.4947 103.713 13.8443 103.713 14.2519C103.713 14.664 103.555 15.0183 103.241 15.3147C102.93 15.6065 102.553 15.7524 102.108 15.7524ZM111.415 28.0067C110.318 28.0067 109.373 27.7844 108.581 27.3398C107.794 26.8906 107.187 26.2561 106.761 25.4364C106.335 24.612 106.122 23.6371 106.122 22.5117C106.122 21.4141 106.335 20.4508 106.761 19.6218C107.187 18.7928 107.787 18.1468 108.56 17.6836C109.338 17.2205 110.25 16.9889 111.297 16.9889C112.001 16.9889 112.656 17.1024 113.263 17.3293C113.874 17.5516 114.407 17.8874 114.861 18.3366C115.319 18.7859 115.676 19.3509 115.931 20.0317C116.185 20.7079 116.313 21.4998 116.313 22.4075V23.2203H107.303V21.3863H113.527C113.527 20.9603 113.434 20.5828 113.249 20.254C113.064 19.9252 112.807 19.6681 112.478 19.4829C112.154 19.293 111.776 19.1981 111.346 19.1981C110.897 19.1981 110.498 19.3023 110.151 19.5107C109.808 19.7145 109.54 19.99 109.345 20.3374C109.151 20.6801 109.051 21.0622 109.046 21.4836V23.2273C109.046 23.7552 109.144 24.2114 109.338 24.5958C109.537 24.9802 109.817 25.2766 110.179 25.485C110.54 25.6934 110.968 25.7976 111.464 25.7976C111.793 25.7976 112.094 25.7513 112.367 25.6587C112.64 25.5661 112.874 25.4271 113.069 25.2419C113.263 25.0566 113.411 24.8297 113.513 24.5611L116.25 24.7417C116.111 25.3993 115.826 25.9736 115.396 26.4645C114.97 26.9508 114.419 27.3306 113.742 27.6038C113.071 27.8724 112.295 28.0067 111.415 28.0067ZM123.652 28.0067C122.559 28.0067 121.619 27.7752 120.832 27.3121C120.049 26.8443 119.447 26.1959 119.025 25.3669C118.609 24.5379 118.4 23.5839 118.4 22.5048C118.4 21.4118 118.611 20.4531 119.032 19.6288C119.458 18.7998 120.063 18.1537 120.845 17.6906C121.628 17.2228 122.559 16.9889 123.638 16.9889C124.569 16.9889 125.384 17.158 126.083 17.4961C126.783 17.8342 127.336 18.3089 127.744 18.9202C128.151 19.5315 128.376 20.2494 128.418 21.0737H125.625C125.546 20.5411 125.338 20.1127 125 19.7886C124.666 19.4597 124.229 19.2953 123.687 19.2953C123.228 19.2953 122.828 19.4204 122.485 19.6705C122.147 19.9159 121.883 20.2748 121.693 20.7472C121.503 21.2196 121.408 21.7916 121.408 22.4631C121.408 23.1439 121.501 23.7228 121.686 24.1998C121.876 24.6769 122.142 25.0404 122.485 25.2905C122.828 25.5406 123.228 25.6656 123.687 25.6656C124.025 25.6656 124.328 25.5962 124.597 25.4572C124.87 25.3183 125.095 25.1168 125.271 24.8528C125.451 24.5842 125.569 24.2624 125.625 23.8872H128.418C128.371 24.7023 128.149 25.4202 127.751 26.0408C127.357 26.6567 126.813 27.1384 126.118 27.4857C125.424 27.8331 124.601 28.0067 123.652 28.0067ZM136.575 17.1279V19.3509H130.149V17.1279H136.575ZM131.608 14.5714H134.567V24.5194C134.567 24.7926 134.609 25.0057 134.692 25.1585C134.776 25.3067 134.891 25.4109 135.04 25.4711C135.192 25.5313 135.368 25.5614 135.568 25.5614C135.707 25.5614 135.845 25.5499 135.984 25.5267C136.123 25.4989 136.23 25.4781 136.304 25.4642L136.769 27.6663C136.621 27.7127 136.413 27.7659 136.144 27.8261C135.876 27.891 135.549 27.9303 135.165 27.9442C134.451 27.972 133.826 27.8771 133.289 27.6594C132.756 27.4417 132.342 27.1036 132.046 26.6452C131.749 26.1867 131.603 25.6077 131.608 24.9084V14.5714Z" fill="#F3F5FF"/>
</svg>
