<svg width="202" height="40" viewBox="0 0 202 40" fill="none" xmlns="http://www.w3.org/2000/svg">
<rect width="202" height="40" rx="6.26" fill="#06479E"/>
<path d="M18.0705 27.196V12.9688H23.6836C24.7627 12.9688 25.682 13.1749 26.4416 13.587C27.2011 13.9946 27.78 14.5619 28.1783 15.289C28.5812 16.0115 28.7827 16.8451 28.7827 17.7899C28.7827 18.7347 28.5789 19.5683 28.1713 20.2908C27.7638 21.0133 27.1733 21.576 26.3999 21.9789C25.6311 22.3818 24.7002 22.5833 23.6072 22.5833H20.0296V20.1727H23.1209C23.6998 20.1727 24.1769 20.0731 24.552 19.874C24.9318 19.6702 25.2143 19.39 25.3995 19.0334C25.5894 18.6722 25.6843 18.2577 25.6843 17.7899C25.6843 17.3175 25.5894 16.9054 25.3995 16.5534C25.2143 16.1968 24.9318 15.9212 24.552 15.7267C24.1722 15.5276 23.6906 15.428 23.107 15.428H21.0785V27.196H18.0705ZM38.1105 22.6528V16.5256H41.0699V27.196H38.2286V25.2579H38.1174C37.8766 25.8831 37.476 26.3856 36.9156 26.7653C36.3599 27.1451 35.6814 27.335 34.8802 27.335C34.167 27.335 33.5394 27.1729 32.9976 26.8487C32.4557 26.5245 32.0319 26.0637 31.7263 25.4663C31.4253 24.8688 31.2724 24.1533 31.2678 23.3197V16.5256H34.2272V22.7917C34.2318 23.4216 34.4008 23.9194 34.7343 24.2853C35.0677 24.6512 35.5147 24.8341 36.0751 24.8341C36.4317 24.8341 36.7651 24.753 37.0754 24.591C37.3857 24.4242 37.6358 24.1788 37.8257 23.8546C38.0202 23.5304 38.1151 23.1298 38.1105 22.6528ZM44.0795 27.196V12.9688H47.0389V18.3179H47.1292C47.2589 18.0308 47.4464 17.739 47.6919 17.4426C47.942 17.1415 48.2662 16.8915 48.6645 16.6923C49.0674 16.4885 49.5675 16.3867 50.165 16.3867C50.943 16.3867 51.6609 16.5904 52.3185 16.998C52.9762 17.4009 53.5018 18.0099 53.8955 18.825C54.2891 19.6355 54.486 20.6521 54.486 21.8747C54.486 23.0649 54.2938 24.0699 53.9094 24.8897C53.5296 25.7048 53.0109 26.323 52.3533 26.7445C51.7003 27.1613 50.9685 27.3697 50.158 27.3697C49.5838 27.3697 49.0952 27.2748 48.6922 27.0849C48.2939 26.895 47.9674 26.6565 47.7127 26.3694C47.458 26.0776 47.2635 25.7835 47.1292 25.4871H46.9972V27.196H44.0795ZM46.9764 21.8608C46.9764 22.4953 47.0643 23.0487 47.2403 23.5211C47.4163 23.9935 47.671 24.3617 48.0045 24.6257C48.3379 24.885 48.7432 25.0147 49.2202 25.0147C49.7019 25.0147 50.1094 24.8827 50.4429 24.6187C50.7763 24.3501 51.0287 23.9796 51.2001 23.5072C51.3761 23.0302 51.4641 22.4814 51.4641 21.8608C51.4641 21.2449 51.3784 20.703 51.207 20.2352C51.0357 19.7675 50.7833 19.4016 50.4498 19.1376C50.1164 18.8736 49.7065 18.7417 49.2202 18.7417C48.7386 18.7417 48.331 18.869 47.9975 19.1237C47.6687 19.3785 47.4163 19.7397 47.2403 20.2075C47.0643 20.6752 46.9764 21.2263 46.9764 21.8608ZM60.0069 12.9688V27.196H57.0475V12.9688H60.0069ZM62.9644 27.196V16.5256H65.9238V27.196H62.9644ZM64.451 15.1501C64.0111 15.1501 63.6336 15.0042 63.3187 14.7124C63.0084 14.416 62.8532 14.0618 62.8532 13.6496C62.8532 13.242 63.0084 12.8924 63.3187 12.6006C63.6336 12.3042 64.0111 12.156 64.451 12.156C64.891 12.156 65.2661 12.3042 65.5764 12.6006C65.8914 12.8924 66.0488 13.242 66.0488 13.6496C66.0488 14.0618 65.8914 14.416 65.5764 14.7124C65.2661 15.0042 64.891 15.1501 64.451 15.1501ZM73.7024 27.4045C72.6095 27.4045 71.6693 27.1729 70.882 26.7098C70.0993 26.242 69.4972 25.5936 69.0758 24.7646C68.659 23.9356 68.4506 22.9816 68.4506 21.9025C68.4506 20.8095 68.6613 19.8508 69.0827 19.0265C69.5088 18.1975 70.1132 17.5514 70.8959 17.0883C71.6786 16.6205 72.6095 16.3867 73.6885 16.3867C74.6194 16.3867 75.4345 16.5557 76.1339 16.8938C76.8332 17.2319 77.3866 17.7066 77.7942 18.3179C78.2017 18.9292 78.4263 19.6471 78.468 20.4714H75.6754C75.5966 19.9388 75.3882 19.5104 75.0501 19.1863C74.7167 18.8574 74.279 18.693 73.7372 18.693C73.2787 18.693 72.8781 18.8181 72.5354 19.0682C72.1973 19.3136 71.9333 19.6725 71.7434 20.1449C71.5535 20.6173 71.4586 21.1893 71.4586 21.8608C71.4586 22.5416 71.5512 23.1205 71.7365 23.5975C71.9263 24.0746 72.1926 24.4381 72.5354 24.6882C72.8781 24.9383 73.2787 25.0633 73.7372 25.0633C74.0753 25.0633 74.3786 24.9939 74.6472 24.8549C74.9205 24.716 75.1451 24.5145 75.3211 24.2506C75.5017 23.9819 75.6198 23.6601 75.6754 23.2849H78.468C78.4217 24.1 78.1994 24.8179 77.8011 25.4385C77.4075 26.0544 76.8633 26.5361 76.1686 26.8834C75.4739 27.2308 74.6518 27.4045 73.7024 27.4045ZM81.0052 27.196V12.9688H86.6183C87.6974 12.9688 88.6167 13.1749 89.3763 13.587C90.1358 13.9946 90.7147 14.5619 91.113 15.289C91.5159 16.0115 91.7174 16.8451 91.7174 17.7899C91.7174 18.7347 91.5136 19.5683 91.106 20.2908C90.6985 21.0133 90.108 21.576 89.3346 21.9789C88.5658 22.3818 87.6349 22.5833 86.5419 22.5833H82.9643V20.1727H86.0556C86.6346 20.1727 87.1116 20.0731 87.4867 19.874C87.8665 19.6702 88.149 19.39 88.3342 19.0334C88.5241 18.6722 88.6191 18.2577 88.6191 17.7899C88.6191 17.3175 88.5241 16.9054 88.3342 16.5534C88.149 16.1968 87.8665 15.9212 87.4867 15.7267C87.1069 15.5276 86.6253 15.428 86.0417 15.428H84.0133V27.196H81.0052ZM98.8517 27.4045C97.7726 27.4045 96.8394 27.1752 96.0521 26.7167C95.2694 26.2536 94.665 25.6098 94.239 24.7855C93.8129 23.9565 93.5998 22.9955 93.5998 21.9025C93.5998 20.8003 93.8129 19.837 94.239 19.0126C94.665 18.1836 95.2694 17.5398 96.0521 17.0813C96.8394 16.6182 97.7726 16.3867 98.8517 16.3867C99.9308 16.3867 100.862 16.6182 101.644 17.0813C102.432 17.5398 103.038 18.1836 103.464 19.0126C103.891 19.837 104.104 20.8003 104.104 21.9025C104.104 22.9955 103.891 23.9565 103.464 24.7855C103.038 25.6098 102.432 26.2536 101.644 26.7167C100.862 27.1752 99.9308 27.4045 98.8517 27.4045ZM98.8656 25.112C99.3565 25.112 99.7664 24.973 100.095 24.6952C100.424 24.4126 100.672 24.0283 100.839 23.542C101.01 23.0557 101.096 22.5022 101.096 21.8817C101.096 21.2611 101.01 20.7076 100.839 20.2213C100.672 19.7351 100.424 19.3507 100.095 19.0682C99.7664 18.7857 99.3565 18.6444 98.8656 18.6444C98.3701 18.6444 97.9532 18.7857 97.6152 19.0682C97.2817 19.3507 97.0293 19.7351 96.8579 20.2213C96.6912 20.7076 96.6079 21.2611 96.6079 21.8817C96.6079 22.5022 96.6912 23.0557 96.8579 23.542C97.0293 24.0283 97.2817 24.4126 97.6152 24.6952C97.9532 24.973 98.3701 25.112 98.8656 25.112ZM115.493 19.5683L112.784 19.7351C112.737 19.5035 112.638 19.2951 112.485 19.1098C112.332 18.92 112.131 18.7694 111.881 18.6583C111.635 18.5425 111.341 18.4846 110.998 18.4846C110.54 18.4846 110.153 18.5819 109.838 18.7764C109.523 18.9663 109.366 19.221 109.366 19.5405C109.366 19.7953 109.468 20.0106 109.671 20.1866C109.875 20.3626 110.225 20.5039 110.72 20.6104L112.652 20.9994C113.689 21.2124 114.462 21.5552 114.972 22.0275C115.481 22.4999 115.736 23.1205 115.736 23.8893C115.736 24.5886 115.53 25.2023 115.118 25.7302C114.71 26.2582 114.15 26.6704 113.437 26.9668C112.728 27.2586 111.911 27.4045 110.984 27.4045C109.572 27.4045 108.446 27.1104 107.608 26.5222C106.775 25.9294 106.286 25.1235 106.142 24.1047L109.053 23.9518C109.141 24.3825 109.354 24.7114 109.692 24.9383C110.03 25.1606 110.463 25.2718 110.991 25.2718C111.51 25.2718 111.927 25.1722 112.242 24.973C112.561 24.7693 112.723 24.5076 112.728 24.188C112.723 23.9194 112.61 23.6994 112.388 23.5281C112.165 23.3521 111.823 23.2178 111.359 23.1252L109.512 22.757C108.47 22.5486 107.694 22.1873 107.184 21.6733C106.68 21.1592 106.427 20.5039 106.427 19.7073C106.427 19.0218 106.612 18.4314 106.983 17.9358C107.358 17.4403 107.884 17.0582 108.56 16.7896C109.241 16.521 110.037 16.3867 110.95 16.3867C112.297 16.3867 113.358 16.6715 114.131 17.2411C114.909 17.8108 115.363 18.5865 115.493 19.5683ZM123.862 16.5256V18.7486H117.436V16.5256H123.862ZM118.895 13.9691H121.854V23.9171C121.854 24.1903 121.896 24.4034 121.979 24.5562C122.063 24.7044 122.179 24.8086 122.327 24.8688C122.48 24.929 122.656 24.9591 122.855 24.9591C122.994 24.9591 123.133 24.9476 123.272 24.9244C123.41 24.8966 123.517 24.8758 123.591 24.8619L124.057 27.0641C123.908 27.1104 123.7 27.1636 123.431 27.2238C123.163 27.2887 122.836 27.328 122.452 27.3419C121.739 27.3697 121.113 27.2748 120.576 27.0571C120.044 26.8394 119.629 26.5014 119.333 26.0429C119.036 25.5844 118.89 25.0055 118.895 24.3061V13.9691ZM138.562 12.9688V27.196H135.963L129.774 18.2415H129.67V27.196H126.662V12.9688H129.301L135.442 21.9164H135.567V12.9688H138.562ZM146.441 27.4045C145.343 27.4045 144.399 27.1822 143.607 26.7375C142.819 26.2883 142.213 25.6538 141.787 24.8341C141.36 24.0097 141.147 23.0348 141.147 21.9094C141.147 20.8118 141.36 19.8485 141.787 19.0195C142.213 18.1905 142.812 17.5445 143.586 17.0813C144.364 16.6182 145.276 16.3867 146.323 16.3867C147.027 16.3867 147.682 16.5001 148.289 16.7271C148.9 16.9494 149.433 17.2851 149.887 17.7344C150.345 18.1836 150.702 18.7486 150.956 19.4294C151.211 20.1056 151.339 20.8975 151.339 21.8052V22.618H142.328V20.784H148.553C148.553 20.358 148.46 19.9805 148.275 19.6517C148.09 19.3229 147.833 19.0658 147.504 18.8806C147.18 18.6907 146.802 18.5958 146.371 18.5958C145.922 18.5958 145.524 18.7 145.177 18.9084C144.834 19.1122 144.565 19.3877 144.371 19.7351C144.176 20.0778 144.077 20.4599 144.072 20.8813V22.625C144.072 23.1529 144.169 23.6091 144.364 23.9935C144.563 24.3779 144.843 24.6743 145.204 24.8827C145.566 25.0911 145.994 25.1953 146.49 25.1953C146.818 25.1953 147.119 25.149 147.393 25.0564C147.666 24.9638 147.9 24.8248 148.094 24.6396C148.289 24.4543 148.437 24.2274 148.539 23.9588L151.276 24.1394C151.137 24.797 150.852 25.3713 150.422 25.8622C149.995 26.3485 149.444 26.7283 148.768 27.0015C148.097 27.2701 147.321 27.4045 146.441 27.4045ZM153.857 31.1975V16.5256H156.774V18.3179H156.906C157.036 18.0308 157.224 17.739 157.469 17.4426C157.719 17.1415 158.043 16.8915 158.442 16.6923C158.845 16.4885 159.345 16.3867 159.942 16.3867C160.72 16.3867 161.438 16.5904 162.096 16.998C162.753 17.4009 163.279 18.0099 163.673 18.825C164.066 19.6355 164.263 20.6521 164.263 21.8747C164.263 23.0649 164.071 24.0699 163.687 24.8897C163.307 25.7048 162.788 26.323 162.13 26.7445C161.477 27.1613 160.746 27.3697 159.935 27.3697C159.361 27.3697 158.872 27.2748 158.469 27.0849C158.071 26.895 157.745 26.6565 157.49 26.3694C157.235 26.0776 157.041 25.7835 156.906 25.4871H156.816V31.1975H153.857ZM156.754 21.8608C156.754 22.4953 156.842 23.0487 157.017 23.5211C157.193 23.9935 157.448 24.3617 157.782 24.6257C158.115 24.885 158.52 25.0147 158.997 25.0147C159.479 25.0147 159.887 24.8827 160.22 24.6187C160.553 24.3501 160.806 23.9796 160.977 23.5072C161.153 23.0302 161.241 22.4814 161.241 21.8608C161.241 21.2449 161.156 20.703 160.984 20.2352C160.813 19.7675 160.56 19.4016 160.227 19.1376C159.894 18.8736 159.484 18.7417 158.997 18.7417C158.516 18.7417 158.108 18.869 157.775 19.1237C157.446 19.3785 157.193 19.7397 157.017 20.2075C156.842 20.6752 156.754 21.2263 156.754 21.8608ZM169.866 27.3975C169.185 27.3975 168.578 27.2794 168.046 27.0432C167.513 26.8024 167.092 26.4481 166.781 25.9803C166.476 25.5079 166.323 24.9198 166.323 24.2158C166.323 23.623 166.432 23.1252 166.649 22.7222C166.867 22.3193 167.163 21.9951 167.538 21.7497C167.914 21.5042 168.34 21.319 168.817 21.1939C169.298 21.0689 169.803 20.9809 170.331 20.9299C170.952 20.8651 171.452 20.8049 171.832 20.7493C172.211 20.6891 172.487 20.6011 172.658 20.4853C172.83 20.3695 172.915 20.1982 172.915 19.9713V19.9296C172.915 19.4896 172.776 19.1492 172.499 18.9084C172.225 18.6676 171.836 18.5471 171.331 18.5471C170.799 18.5471 170.375 18.6652 170.06 18.9014C169.745 19.133 169.537 19.4248 169.435 19.7767L166.698 19.5544C166.837 18.9061 167.11 18.3457 167.518 17.8733C167.925 17.3963 168.451 17.0304 169.095 16.7757C169.743 16.5163 170.493 16.3867 171.345 16.3867C171.938 16.3867 172.506 16.4561 173.047 16.5951C173.594 16.734 174.078 16.9494 174.499 17.2411C174.925 17.5329 175.261 17.908 175.507 18.3665C175.752 18.8204 175.875 19.3646 175.875 19.999V27.196H173.068V25.7164H172.985C172.813 26.0498 172.584 26.3439 172.297 26.5986C172.01 26.8487 171.665 27.0455 171.262 27.1891C170.859 27.328 170.394 27.3975 169.866 27.3975ZM170.713 25.3551C171.149 25.3551 171.533 25.2694 171.866 25.0981C172.2 24.9221 172.462 24.6859 172.651 24.3895C172.841 24.0931 172.936 23.7573 172.936 23.3822V22.2498C172.844 22.3101 172.716 22.3656 172.554 22.4166C172.397 22.4629 172.218 22.5069 172.019 22.5486C171.82 22.5856 171.621 22.6203 171.422 22.6528C171.223 22.6806 171.042 22.706 170.88 22.7292C170.533 22.7801 170.229 22.8612 169.97 22.9723C169.711 23.0835 169.509 23.234 169.365 23.4239C169.222 23.6091 169.15 23.8407 169.15 24.1186C169.15 24.5215 169.296 24.8295 169.588 25.0425C169.884 25.2509 170.259 25.3551 170.713 25.3551ZM181.717 12.9688V27.196H178.758V12.9688H181.717Z" fill="#F3F5FF"/>
</svg>
