<svg width="386" height="15" viewBox="0 0 386 15" fill="none" xmlns="http://www.w3.org/2000/svg">
<path d="M293.37 1.2955C294.831 1.80457 296.252 2.29546 297.832 2.84089C298.898 2.55 300.043 2.38638 300.596 2.04094C303.952 -0.0135214 308.611 -0.37717 313.309 0.331893C318.284 1.07732 323.023 0.677361 327.958 0.677361C333.841 0.677361 339.843 0.313738 345.766 1.4046C350.069 2.20457 355.123 2.62274 358.361 0.313739C360.849 0.731904 362.981 1.44095 365.113 1.38641C368.114 1.33186 368.745 2.67729 370.917 2.91364C373.089 3.15 375.339 3.27727 378.893 3.54998C377.116 2.67729 376.326 2.2773 375.497 1.85913C379.525 1.49551 382.249 2.76817 386 3.47723C385.013 3.85904 384.539 4.22267 383.947 4.25903C379.998 4.49538 376.208 4.94991 372.852 5.98623C370.956 6.56803 368.903 6.60438 366.811 6.2953C363.731 5.84078 360.77 5.98623 357.532 6.16804C352.399 6.45894 347.147 6.31351 341.936 6.27715C339.369 6.25897 336.803 6.04079 334.315 5.91353C334.078 5.64081 333.96 5.42261 333.762 5.20444C333.012 4.47719 331.749 4.27722 331.077 4.76811C330.406 5.259 329.972 5.82262 329.34 6.45896C323.694 6.5135 318.206 6.56801 312.717 6.60437C309.558 6.62255 306.4 6.54983 303.281 6.69528C300.161 6.84073 297.595 6.44078 295.384 5.459C296.015 5.51354 296.647 5.56807 297.279 5.62261C297.279 5.60443 297.279 5.60444 297.279 5.58626C296.647 5.53171 296.015 5.49534 295.423 5.4408C295.344 6.05896 294.239 6.38624 293.291 6.18624C290.172 5.56809 287.21 5.89535 284.131 6.18624C280.301 6.53168 276.352 6.74983 272.443 6.84074C264.586 7.05891 256.729 7.14983 248.832 7.31346C246.818 7.34982 245.199 7.05892 244.291 5.89533C241.488 7.05892 238.447 7.24074 235.249 7.13165C229.484 6.91348 223.72 6.91346 218.034 7.8407C217.323 7.34981 216.731 6.96802 216.02 6.49531C214.007 6.78621 211.875 7.20437 209.703 7.34982C207.65 7.49526 205.399 7.14982 203.464 7.38617C195.765 8.36795 187.789 7.78614 180.011 8.42248C178.747 8.53157 177.405 8.4043 176.102 8.33158C173.733 8.18613 171.522 8.38615 169.153 8.58614C164.02 9.04067 158.768 9.16791 153.556 9.42244C149.924 9.58607 146.252 9.73152 142.619 9.87697C142.106 9.89515 141.553 10.0042 141.079 9.96788C130.063 9.22245 119.284 11.077 108.268 10.6406C97.8045 11.8406 86.8674 10.9315 76.4041 12.0951C75.8908 12.1496 75.338 12.1496 74.8247 12.1496C70.0866 12.0223 65.5459 12.4042 60.8868 12.7678C42.803 14.1677 24.5218 14.804 6.20117 14.9677C5.41148 14.9677 4.62179 15.0404 3.87159 14.9677C1.66047 14.7859 -0.313723 13.6041 0.0416355 12.586C0.475962 11.2769 1.0682 9.98606 1.54201 8.78611C2.21324 8.54975 2.6081 8.31341 3.04243 8.29522C9.83372 7.96796 16.704 7.24071 23.3768 7.51343C29.5363 7.76796 35.301 7.38619 41.1842 6.94984C42.7241 6.84075 44.3034 6.93163 45.8828 6.87709C47.9359 6.82255 50.1076 6.87709 52.0423 6.60437C59.5444 5.49533 66.4541 6.11349 73.6402 7.9316C77.9045 6.2953 82.7611 4.859 89.0786 6.25895C90.579 5.53171 91.9609 4.85899 93.6193 4.05902C94.8828 4.31355 96.0672 4.51357 97.1333 4.76811C100.095 5.49535 102.701 5.27718 104.912 4.13177L104.833 4.11357C107.518 4.49537 110.203 4.859 113.006 5.25899C113.519 4.62265 113.954 4.07723 114.585 3.31362C116.678 3.44089 118.968 3.47726 121.1 3.73179C123.588 4.02269 125.68 4.02267 127.339 2.98635C127.339 2.96817 128.01 3.16815 128.365 3.29542C128.444 3.42269 128.523 3.54996 128.602 3.65904C128.681 3.74995 128.76 3.84085 128.839 3.93176C128.681 3.69541 128.523 3.47722 128.365 3.24087C131.445 3.6954 133.972 3.25909 135.67 2.0955C138.75 2.44094 138.236 3.67723 139.263 4.44084C140.684 5.49534 142.501 5.94988 145.501 5.58626C144.554 5.22264 143.725 4.98629 143.132 4.64085C142.224 4.09542 142.619 3.22271 143.804 3.13181C146.883 2.87727 149.963 2.69547 153.082 2.55002C155.649 2.42276 158.61 2.7318 160.782 2.24091C164.02 1.49548 166.941 1.62279 169.784 2.1864C172.351 2.69547 174.759 2.75001 177.405 2.55002C179.458 2.40457 181.63 2.40455 183.683 2.56818C186.644 2.78635 189.329 2.80456 192.053 2.0955C193.317 1.78642 195.094 1.91366 196.634 1.84093C197.897 1.76821 199.318 1.80459 200.464 1.58642C203.701 0.950077 207.136 1.07734 210.414 0.768266C217.442 0.0955653 223.68 1.07732 230.156 1.87729C231.854 2.07728 234.144 2.24093 235.447 1.89549C237.737 1.27733 239.987 1.82277 242.159 1.49551C244.094 1.20461 246.186 1.15008 248.082 1.00463C249.503 1.76824 250.648 2.56818 252.188 3.11361C253.017 3.40451 254.912 3.4409 255.741 3.18636C256.373 2.98637 256.097 2.15004 256.255 1.55006C261.23 0.931905 264.941 3.00453 269.522 3.34997C270.193 2.47728 268.89 2.4409 268.14 2.15C267.626 1.95001 267.271 1.64096 266.916 1.4046C267.192 1.22279 267.31 1.07734 267.468 1.04098C269.877 0.459187 272.009 1.27734 274.299 1.3137C276.55 1.35006 278.919 0.750076 281.09 0.895525C284.249 1.1137 287.131 1.33187 290.211 0.713714C290.961 0.568265 292.462 1.16824 293.646 1.44096L293.37 1.2955ZM210.769 4.84081C212.467 4.36811 214.204 3.9136 215.862 3.40453C216.139 3.31362 216.139 3.0227 216.376 2.69544C214.954 2.29545 213.73 1.58639 211.638 2.42272C211.401 3.16814 211.124 3.96814 210.848 4.76811C210.65 4.78629 210.414 4.84081 210.216 4.84081C210.058 4.82263 209.94 4.73175 209.782 4.6772C210.137 4.71356 210.453 4.76809 210.769 4.84081ZM306.558 2.49547C311.493 4.71356 311.967 4.8772 316.626 5.64081C317.021 5.71353 317.692 5.40443 318.995 5.11353C316.745 4.80445 315.165 4.71357 313.941 4.36813C312.678 3.98633 311.849 3.3136 310.664 2.84089C309.519 2.36819 308.216 1.87731 306.558 2.49547ZM185.973 4.69536C180.129 3.54995 180.011 3.54995 173.93 4.69536C176.694 4.69536 178.392 4.69536 180.05 4.69536C182.024 4.69536 183.999 4.69536 185.973 4.69536ZM360.375 5.00447C364.521 5.11356 362.507 3.53179 363.81 3.0409C363.849 3.02272 363.376 2.73183 362.783 2.27731C361.915 3.2409 361.243 4.02269 360.375 5.00447ZM328.077 2.36821C328.037 2.4773 327.958 2.60455 327.919 2.71363C329.064 2.87726 330.169 3.05907 331.354 3.20452C331.433 3.2227 331.749 3.0409 331.788 2.95C331.828 2.85909 331.749 2.64093 331.63 2.64093C330.446 2.53184 329.261 2.45912 328.077 2.36821ZM156.597 4.27723C155.925 4.85902 155.254 5.16807 155.373 5.38625C155.57 5.67715 156.281 6.04078 156.873 6.07714C157.307 6.1135 158.373 5.64081 158.294 5.459C158.176 5.11356 157.465 4.82266 156.597 4.27723ZM308.019 1.20459C309.598 1.36822 310.309 1.49548 311.019 1.51366C311.375 1.53185 311.77 1.35007 312.164 1.27735C311.73 1.18644 311.335 1.00463 310.901 1.00463C310.23 0.968267 309.559 1.07733 308.019 1.20459ZM284.131 3.25907C284.328 3.20452 284.526 3.14998 284.723 3.07726C284.447 2.91363 284.21 2.75 283.933 2.62273C283.894 2.60455 283.538 2.7318 283.341 2.78634C283.617 2.94997 283.894 3.11362 284.131 3.25907ZM353.544 4.33174C353.307 4.34992 353.07 4.34995 352.833 4.36813C352.952 4.53176 353.07 4.67719 353.189 4.84081C353.386 4.76809 353.662 4.71357 353.702 4.64085C353.82 4.54994 353.623 4.44082 353.544 4.33174ZM55.1221 10.0406L55.1616 9.82246L54.6088 9.91337L55.1221 10.0406Z" fill="#EF3934"/>
</svg>
