<svg width="368" height="22" viewBox="0 0 368 22" fill="none" xmlns="http://www.w3.org/2000/svg">
<path d="M14.7002 12.0312L15.1514 9.06641H12.2832V7.13281C12.2832 6.29492 12.6699 5.52148 13.959 5.52148H15.2803V2.97559C15.2803 2.97559 14.0879 2.75 12.96 2.75C10.6074 2.75 9.06055 4.2002 9.06055 6.77832V9.06641H6.41797V12.0312H9.06055V19.25H12.2832V12.0312H14.7002Z" fill="#252525"/>
<path d="M51.542 7.90259C52.1865 7.41919 52.7666 6.83911 53.2178 6.16235C52.6377 6.42017 51.9609 6.61353 51.2842 6.67798C51.9932 6.25903 52.5088 5.6145 52.7666 4.80884C52.1221 5.19556 51.3809 5.4856 50.6396 5.64673C49.9951 4.96997 49.125 4.58325 48.1582 4.58325C46.2891 4.58325 44.7744 6.0979 44.7744 7.96704C44.7744 8.22485 44.8066 8.48267 44.8711 8.74048C42.0674 8.57935 39.5537 7.22583 37.8779 5.19556C37.5879 5.67896 37.4268 6.25903 37.4268 6.90356C37.4268 8.06372 38.0068 9.09497 38.9414 9.70728C38.3936 9.67505 37.8457 9.54614 37.3945 9.28833V9.32056C37.3945 10.9641 38.5547 12.3176 40.1016 12.6399C39.8438 12.7043 39.5215 12.7688 39.2314 12.7688C39.0059 12.7688 38.8125 12.7366 38.5869 12.7043C39.0059 14.0579 40.2627 15.0247 41.7451 15.0569C40.585 15.9592 39.1348 16.5071 37.5557 16.5071C37.2656 16.5071 37.0078 16.4749 36.75 16.4426C38.2324 17.4094 40.0049 17.9573 41.9385 17.9573C48.1582 17.9573 51.542 12.8333 51.542 8.35376C51.542 8.19263 51.542 8.06372 51.542 7.90259Z" fill="#252525"/>
<path d="M78.7422 2.75C74.3271 2.75 70.75 6.35938 70.75 10.7422C70.75 15.1572 74.3271 18.7344 78.7422 18.7344C83.125 18.7344 86.7344 15.1572 86.7344 10.7422C86.7344 6.35938 83.125 2.75 78.7422 2.75ZM83.9951 6.45605C84.9619 7.61621 85.542 9.09863 85.542 10.71C85.3164 10.6455 83.0605 10.1943 80.8047 10.4844C80.6113 10.0332 80.4502 9.64648 80.1924 9.13086C82.7383 8.09961 83.8662 6.64941 83.9951 6.45605ZM83.2539 5.65039C83.125 5.84375 82.0938 7.22949 79.6768 8.13184C78.5488 6.06934 77.3242 4.39355 77.1309 4.13574C79.29 3.62012 81.5781 4.16797 83.2539 5.65039ZM75.8096 4.58691C76.0029 4.84473 77.2275 6.52051 78.3555 8.55078C75.165 9.38867 72.3613 9.38867 72.0391 9.35645C72.4902 7.26172 73.9082 5.48926 75.8096 4.58691ZM71.9102 10.7744C71.9102 10.71 71.9102 10.6455 71.9102 10.5488C72.2002 10.5811 75.5195 10.6133 78.9033 9.58203C79.1289 9.96875 79.29 10.3555 79.4834 10.7422C77.002 11.4512 74.7461 13.4492 73.6504 15.3184C72.5547 14.126 71.9102 12.5146 71.9102 10.7744ZM74.5205 16.1562C75.2617 14.7061 77.1953 12.8047 79.9346 11.8701C80.9014 14.3516 81.2881 16.4463 81.3848 17.0586C79.1934 17.9932 76.5508 17.7354 74.5205 16.1562ZM82.5449 16.4141C82.4805 16.0273 82.0938 14.0293 81.2236 11.5479C83.3506 11.2256 85.2197 11.7734 85.4775 11.8379C85.1553 13.7393 84.0596 15.3828 82.5449 16.4141Z" fill="#252525"/>
<path d="M110.067 15.3184C110.067 15.2539 110.003 15.1895 109.906 15.1895C109.81 15.1895 109.745 15.2539 109.745 15.3184C109.745 15.3828 109.81 15.4473 109.906 15.415C110.003 15.415 110.067 15.3828 110.067 15.3184ZM109.068 15.1572C109.068 15.2217 109.133 15.3184 109.229 15.3184C109.294 15.3506 109.391 15.3184 109.423 15.2539C109.423 15.1895 109.391 15.125 109.294 15.0928C109.197 15.0605 109.101 15.0928 109.068 15.1572ZM110.519 15.125C110.422 15.125 110.357 15.1895 110.357 15.2861C110.357 15.3506 110.454 15.3828 110.551 15.3506C110.647 15.3184 110.712 15.2861 110.68 15.2217C110.68 15.1572 110.583 15.0928 110.519 15.125ZM112.613 2.75C108.166 2.75 104.75 6.16602 104.75 10.6133C104.75 14.1904 106.974 17.252 110.196 18.3477C110.615 18.4121 110.744 18.1543 110.744 17.9609C110.744 17.7354 110.744 16.6396 110.744 15.9629C110.744 15.9629 108.488 16.4463 108.005 14.9961C108.005 14.9961 107.65 14.0615 107.135 13.8359C107.135 13.8359 106.394 13.3203 107.167 13.3203C107.167 13.3203 107.973 13.3848 108.424 14.1582C109.133 15.415 110.293 15.0605 110.776 14.835C110.841 14.3193 111.034 13.9648 111.292 13.7393C109.487 13.5459 107.65 13.2881 107.65 10.1943C107.65 9.29199 107.908 8.87305 108.424 8.29297C108.327 8.06738 108.069 7.22949 108.521 6.10156C109.165 5.9082 110.744 6.97168 110.744 6.97168C111.389 6.77832 112.065 6.71387 112.742 6.71387C113.451 6.71387 114.128 6.77832 114.772 6.97168C114.772 6.97168 116.319 5.87598 116.996 6.10156C117.447 7.22949 117.157 8.06738 117.093 8.29297C117.608 8.87305 117.931 9.29199 117.931 10.1943C117.931 13.2881 116.029 13.5459 114.225 13.7393C114.515 13.9971 114.772 14.4805 114.772 15.2539C114.772 16.3174 114.74 17.6709 114.74 17.9287C114.74 18.1543 114.901 18.4121 115.32 18.3154C118.543 17.252 120.734 14.1904 120.734 10.6133C120.734 6.16602 117.093 2.75 112.613 2.75ZM107.876 13.8682C107.812 13.9004 107.844 13.9971 107.876 14.0615C107.94 14.0938 108.005 14.126 108.069 14.0938C108.102 14.0615 108.102 13.9648 108.037 13.9004C107.973 13.8682 107.908 13.8359 107.876 13.8682ZM107.521 13.6104C107.489 13.6748 107.521 13.707 107.586 13.7393C107.65 13.7715 107.715 13.7715 107.747 13.707C107.747 13.6748 107.715 13.6426 107.65 13.6104C107.586 13.5781 107.554 13.5781 107.521 13.6104ZM108.553 14.7705C108.521 14.8027 108.521 14.8994 108.617 14.9639C108.682 15.0283 108.778 15.0605 108.811 14.9961C108.843 14.9639 108.843 14.8672 108.778 14.8027C108.714 14.7383 108.617 14.7061 108.553 14.7705ZM108.198 14.2871C108.134 14.3193 108.134 14.416 108.198 14.4805C108.263 14.5449 108.327 14.5771 108.392 14.5449C108.424 14.5127 108.424 14.416 108.392 14.3516C108.327 14.2871 108.263 14.2549 108.198 14.2871Z" fill="#252525"/>
</svg>
