<svg width="240" height="21" viewBox="0 0 240 21" fill="none" xmlns="http://www.w3.org/2000/svg">
<path d="M28.665 15.624L26.0968 6.89675H27.8525L29.5627 13.3058H29.6479L31.3638 6.89675H33.1195L34.824 13.2774H34.9093L36.6081 6.89675H38.3638L35.8013 15.624H34.0684L32.2956 9.32289H32.165L30.3922 15.624H28.665ZM41.8681 15.624L39.2999 6.89675H41.0556L42.7658 13.3058H42.851L44.5669 6.89675H46.3226L48.0272 13.2774H48.1124L49.8113 6.89675H51.5669L49.0044 15.624H47.2715L45.4988 9.32289H45.3681L43.5953 15.624H41.8681ZM55.0712 15.624L52.503 6.89675H54.2587L55.9689 13.3058H56.0542L57.7701 6.89675H59.5257L61.2303 13.2774H61.3155L63.0144 6.89675H64.7701L62.2076 15.624H60.4746L58.7019 9.32289H58.5712L56.7985 15.624H55.0712ZM66.3141 15.732C66.0035 15.732 65.7364 15.6221 65.513 15.4024C65.2895 15.1789 65.1777 14.91 65.1777 14.5956C65.1777 14.285 65.2895 14.0199 65.513 13.8002C65.7364 13.5767 66.0035 13.4649 66.3141 13.4649C66.6247 13.4649 66.8917 13.5767 67.1152 13.8002C67.3387 14.0199 67.4505 14.285 67.4505 14.5956C67.4505 14.8039 67.3974 14.9952 67.2914 15.1695C67.1891 15.3399 67.0527 15.4763 66.8823 15.5786C66.7118 15.6808 66.5224 15.732 66.3141 15.732ZM77.1919 6.89675L74.0272 15.624H72.209L69.0385 6.89675H70.8624L73.0726 13.6127H73.1635L75.3681 6.89675H77.1919ZM82.1678 15.8002C81.3496 15.8002 80.6356 15.6127 80.0257 15.2377C79.4159 14.8627 78.9424 14.338 78.6053 13.6638C78.2682 12.9896 78.0996 12.2017 78.0996 11.3002C78.0996 10.3949 78.2682 9.60319 78.6053 8.92516C78.9424 8.24713 79.4159 7.72061 80.0257 7.34561C80.6356 6.97061 81.3496 6.78311 82.1678 6.78311C82.986 6.78311 83.7 6.97061 84.3098 7.34561C84.9197 7.72061 85.3932 8.24713 85.7303 8.92516C86.0674 9.60319 86.236 10.3949 86.236 11.3002C86.236 12.2017 86.0674 12.9896 85.7303 13.6638C85.3932 14.338 84.9197 14.8627 84.3098 15.2377C83.7 15.6127 82.986 15.8002 82.1678 15.8002ZM82.1735 14.374C82.7038 14.374 83.1432 14.2339 83.4917 13.9536C83.8401 13.6733 84.0977 13.3002 84.2644 12.8343C84.4348 12.3683 84.5201 11.8551 84.5201 11.2945C84.5201 10.7377 84.4348 10.2263 84.2644 9.76039C84.0977 9.29069 83.8401 8.9138 83.4917 8.6297C83.1432 8.34561 82.7038 8.20357 82.1735 8.20357C81.6394 8.20357 81.1962 8.34561 80.8439 8.6297C80.4954 8.9138 80.236 9.29069 80.0655 9.76039C79.8989 10.2263 79.8155 10.7377 79.8155 11.2945C79.8155 11.8551 79.8989 12.3683 80.0655 12.8343C80.236 13.3002 80.4954 13.6733 80.8439 13.9536C81.1962 14.2339 81.6394 14.374 82.1735 14.374ZM89.8311 3.98766V15.624H88.1323V3.98766H89.8311ZM97.6451 12.0047V6.89675H99.3496V15.624H97.6792V14.1127H97.5882C97.3875 14.5786 97.0655 14.9668 96.6223 15.2774C96.1829 15.5843 95.6356 15.7377 94.9803 15.7377C94.4197 15.7377 93.9235 15.6146 93.4917 15.3683C93.0636 15.1183 92.7265 14.749 92.4803 14.2604C92.2379 13.7718 92.1167 13.1676 92.1167 12.4479V6.89675H93.8155V12.2433C93.8155 12.838 93.9803 13.3115 94.3098 13.6638C94.6394 14.0161 95.0674 14.1922 95.5939 14.1922C95.9121 14.1922 96.2284 14.1127 96.5428 13.9536C96.861 13.7945 97.1242 13.5539 97.3326 13.232C97.5447 12.91 97.6489 12.5009 97.6451 12.0047ZM105.706 6.89675V8.26039H100.939V6.89675H105.706ZM102.218 4.80584H103.916V13.0615C103.916 13.3911 103.966 13.6392 104.064 13.8058C104.163 13.9687 104.289 14.0805 104.445 14.1411C104.604 14.1979 104.776 14.2263 104.962 14.2263C105.098 14.2263 105.218 14.2168 105.32 14.1979C105.422 14.1789 105.502 14.1638 105.558 14.1524L105.865 15.5558C105.767 15.5937 105.627 15.6316 105.445 15.6695C105.263 15.7111 105.036 15.7339 104.763 15.7377C104.316 15.7452 103.899 15.6657 103.513 15.499C103.127 15.3324 102.814 15.0748 102.575 14.7263C102.337 14.3778 102.218 13.9403 102.218 13.4138V4.80584ZM111.253 15.8002C110.393 15.8002 109.653 15.6164 109.031 15.249C108.414 14.8778 107.937 14.357 107.6 13.6865C107.266 13.0123 107.1 12.2225 107.1 11.3172C107.1 10.4233 107.266 9.63539 107.6 8.95357C107.937 8.27175 108.406 7.73955 109.009 7.35698C109.615 6.9744 110.323 6.78311 111.134 6.78311C111.626 6.78311 112.103 6.86455 112.566 7.02743C113.028 7.19031 113.442 7.44599 113.81 7.79448C114.177 8.14296 114.467 8.59561 114.679 9.15243C114.891 9.70546 114.997 10.3778 114.997 11.1695V11.7718H108.06V10.499H113.333C113.333 10.0521 113.242 9.65622 113.06 9.31152C112.878 8.96304 112.622 8.68842 112.293 8.48766C111.967 8.2869 111.584 8.18652 111.145 8.18652C110.668 8.18652 110.251 8.30395 109.895 8.5388C109.543 8.76986 109.27 9.07289 109.077 9.44789C108.887 9.8191 108.793 10.2225 108.793 10.6581V11.6524C108.793 12.2358 108.895 12.732 109.1 13.1411C109.308 13.5502 109.598 13.8627 109.969 14.0786C110.34 14.2907 110.774 14.3968 111.27 14.3968C111.592 14.3968 111.886 14.3513 112.151 14.2604C112.416 14.1657 112.645 14.0255 112.838 13.8399C113.031 13.6543 113.179 13.4252 113.281 13.1524L114.889 13.4422C114.761 13.9157 114.53 14.3305 114.196 14.6865C113.867 15.0388 113.452 15.3134 112.952 15.5104C112.456 15.7036 111.889 15.8002 111.253 15.8002ZM119.422 15.8172C118.869 15.8172 118.369 15.7149 117.922 15.5104C117.475 15.3021 117.121 15.0009 116.86 14.607C116.602 14.213 116.473 13.7301 116.473 13.1581C116.473 12.6657 116.568 12.2604 116.757 11.9422C116.947 11.624 117.202 11.3721 117.524 11.1865C117.846 11.0009 118.206 10.8608 118.604 10.7661C119.002 10.6714 119.407 10.5994 119.82 10.5502C120.343 10.4896 120.767 10.4403 121.093 10.4024C121.418 10.3608 121.655 10.2945 121.803 10.2036C121.95 10.1127 122.024 9.96493 122.024 9.76039V9.72061C122.024 9.2244 121.884 8.83993 121.604 8.5672C121.327 8.29448 120.914 8.15811 120.365 8.15811C119.793 8.15811 119.343 8.28501 119.013 8.5388C118.687 8.7888 118.462 9.06721 118.337 9.37402L116.74 9.01039C116.93 8.48008 117.206 8.05205 117.57 7.7263C117.937 7.39675 118.36 7.15811 118.837 7.01039C119.314 6.85887 119.816 6.78311 120.343 6.78311C120.691 6.78311 121.06 6.82478 121.45 6.90811C121.844 6.98766 122.212 7.13539 122.553 7.3513C122.897 7.5672 123.18 7.87592 123.399 8.27743C123.619 8.67516 123.729 9.19221 123.729 9.82857V15.624H122.07V14.4308H122.002C121.892 14.6505 121.727 14.8664 121.507 15.0786C121.288 15.2907 121.005 15.4668 120.661 15.607C120.316 15.7471 119.903 15.8172 119.422 15.8172ZM119.791 14.4536C120.261 14.4536 120.663 14.3608 120.996 14.1752C121.333 13.9896 121.589 13.7471 121.763 13.4479C121.941 13.1449 122.03 12.821 122.03 12.4763V11.3513C121.969 11.4119 121.852 11.4687 121.678 11.5218C121.507 11.571 121.312 11.6146 121.093 11.6524C120.873 11.6865 120.659 11.7187 120.45 11.749C120.242 11.7755 120.068 11.7983 119.928 11.8172C119.598 11.8589 119.297 11.9289 119.024 12.0274C118.755 12.1259 118.539 12.268 118.377 12.4536C118.218 12.6354 118.138 12.8778 118.138 13.1808C118.138 13.6013 118.293 13.9195 118.604 14.1354C118.914 14.3475 119.31 14.4536 119.791 14.4536ZM125.992 15.624V6.89675H127.634V8.28311H127.725C127.884 7.81342 128.164 7.4441 128.566 7.17516C128.971 6.90243 129.429 6.76607 129.941 6.76607C130.047 6.76607 130.172 6.76986 130.316 6.77743C130.463 6.78501 130.579 6.79448 130.662 6.80584V8.43084C130.594 8.4119 130.473 8.39107 130.298 8.36834C130.124 8.34183 129.95 8.32857 129.776 8.32857C129.374 8.32857 129.016 8.4138 128.702 8.58425C128.391 8.75092 128.145 8.98387 127.963 9.28311C127.781 9.57857 127.691 9.91569 127.691 10.2945V15.624H125.992ZM135.496 15.8002C134.651 15.8002 133.924 15.6089 133.314 15.2263C132.708 14.8399 132.242 14.3077 131.916 13.6297C131.591 12.9517 131.428 12.1752 131.428 11.3002C131.428 10.4138 131.594 9.6316 131.928 8.95357C132.261 8.27175 132.731 7.73955 133.337 7.35698C133.943 6.9744 134.657 6.78311 135.479 6.78311C136.142 6.78311 136.733 6.90622 137.252 7.15243C137.771 7.39486 138.189 7.73577 138.507 8.17516C138.829 8.61455 139.021 9.12781 139.081 9.71493H137.428C137.337 9.30584 137.128 8.95357 136.803 8.65811C136.481 8.36266 136.049 8.21493 135.507 8.21493C135.034 8.21493 134.619 8.33993 134.263 8.58993C133.911 8.83614 133.636 9.18842 133.439 9.64675C133.242 10.1013 133.144 10.6392 133.144 11.2604C133.144 11.8968 133.24 12.446 133.433 12.9081C133.627 13.3702 133.899 13.7282 134.252 13.982C134.608 14.2358 135.026 14.3627 135.507 14.3627C135.829 14.3627 136.121 14.3039 136.382 14.1865C136.647 14.0653 136.869 13.893 137.047 13.6695C137.229 13.446 137.356 13.1771 137.428 12.8627H139.081C139.021 13.4271 138.837 13.9308 138.53 14.374C138.223 14.8172 137.812 15.1657 137.297 15.4195C136.786 15.6733 136.185 15.8002 135.496 15.8002ZM142.597 10.4422V15.624H140.898V3.98766H142.574V8.3172H142.682C142.887 7.84751 143.199 7.4744 143.619 7.19789C144.04 6.92137 144.589 6.78311 145.267 6.78311C145.866 6.78311 146.388 6.90622 146.835 7.15243C147.286 7.39864 147.635 7.76607 147.881 8.2547C148.131 8.73955 148.256 9.34561 148.256 10.0729V15.624H146.557V10.2774C146.557 9.63728 146.392 9.14107 146.063 8.7888C145.733 8.43274 145.275 8.2547 144.688 8.2547C144.286 8.2547 143.926 8.33993 143.608 8.51039C143.294 8.68084 143.046 8.93084 142.864 9.26039C142.686 9.58614 142.597 9.98008 142.597 10.4422ZM150.523 15.624V6.89675H152.222V15.624H150.523ZM151.381 5.55016C151.085 5.55016 150.832 5.45167 150.619 5.2547C150.411 5.05395 150.307 4.81531 150.307 4.5388C150.307 4.25849 150.411 4.01986 150.619 3.82289C150.832 3.62213 151.085 3.52175 151.381 3.52175C151.676 3.52175 151.928 3.62213 152.137 3.82289C152.349 4.01986 152.455 4.25849 152.455 4.5388C152.455 4.81531 152.349 5.05395 152.137 5.2547C151.928 5.45167 151.676 5.55016 151.381 5.55016ZM158.581 6.89675V8.26039H153.814V6.89675H158.581ZM155.093 4.80584H156.791V13.0615C156.791 13.3911 156.841 13.6392 156.939 13.8058C157.038 13.9687 157.164 14.0805 157.32 14.1411C157.479 14.1979 157.651 14.2263 157.837 14.2263C157.973 14.2263 158.093 14.2168 158.195 14.1979C158.297 14.1789 158.377 14.1638 158.433 14.1524L158.74 15.5558C158.642 15.5937 158.502 15.6316 158.32 15.6695C158.138 15.7111 157.911 15.7339 157.638 15.7377C157.191 15.7452 156.774 15.6657 156.388 15.499C156.002 15.3324 155.689 15.0748 155.45 14.7263C155.212 14.3778 155.093 13.9403 155.093 13.4138V4.80584ZM164.128 15.8002C163.268 15.8002 162.528 15.6164 161.906 15.249C161.289 14.8778 160.812 14.357 160.475 13.6865C160.141 13.0123 159.975 12.2225 159.975 11.3172C159.975 10.4233 160.141 9.63539 160.475 8.95357C160.812 8.27175 161.281 7.73955 161.884 7.35698C162.49 6.9744 163.198 6.78311 164.009 6.78311C164.501 6.78311 164.978 6.86455 165.441 7.02743C165.903 7.19031 166.317 7.44599 166.685 7.79448C167.052 8.14296 167.342 8.59561 167.554 9.15243C167.766 9.70546 167.872 10.3778 167.872 11.1695V11.7718H160.935V10.499H166.208C166.208 10.0521 166.117 9.65622 165.935 9.31152C165.753 8.96304 165.497 8.68842 165.168 8.48766C164.842 8.2869 164.459 8.18652 164.02 8.18652C163.543 8.18652 163.126 8.30395 162.77 8.5388C162.418 8.76986 162.145 9.07289 161.952 9.44789C161.762 9.8191 161.668 10.2225 161.668 10.6581V11.6524C161.668 12.2358 161.77 12.732 161.975 13.1411C162.183 13.5502 162.473 13.8627 162.844 14.0786C163.215 14.2907 163.649 14.3968 164.145 14.3968C164.467 14.3968 164.761 14.3513 165.026 14.2604C165.291 14.1657 165.52 14.0255 165.713 13.8399C165.906 13.6543 166.054 13.4252 166.156 13.1524L167.764 13.4422C167.636 13.9157 167.405 14.3305 167.071 14.6865C166.742 15.0388 166.327 15.3134 165.827 15.5104C165.331 15.7036 164.764 15.8002 164.128 15.8002ZM173.433 15.8002C172.589 15.8002 171.861 15.6089 171.252 15.2263C170.646 14.8399 170.18 14.3077 169.854 13.6297C169.528 12.9517 169.365 12.1752 169.365 11.3002C169.365 10.4138 169.532 9.6316 169.865 8.95357C170.199 8.27175 170.668 7.73955 171.274 7.35698C171.88 6.9744 172.594 6.78311 173.416 6.78311C174.079 6.78311 174.67 6.90622 175.189 7.15243C175.708 7.39486 176.127 7.73577 176.445 8.17516C176.767 8.61455 176.958 9.12781 177.019 9.71493H175.365C175.274 9.30584 175.066 8.95357 174.74 8.65811C174.418 8.36266 173.986 8.21493 173.445 8.21493C172.971 8.21493 172.557 8.33993 172.2 8.58993C171.848 8.83614 171.574 9.18842 171.377 9.64675C171.18 10.1013 171.081 10.6392 171.081 11.2604C171.081 11.8968 171.178 12.446 171.371 12.9081C171.564 13.3702 171.837 13.7282 172.189 13.982C172.545 14.2358 172.964 14.3627 173.445 14.3627C173.767 14.3627 174.058 14.3039 174.32 14.1865C174.585 14.0653 174.807 13.893 174.985 13.6695C175.166 13.446 175.293 13.1771 175.365 12.8627H177.019C176.958 13.4271 176.774 13.9308 176.468 14.374C176.161 14.8172 175.75 15.1657 175.235 15.4195C174.723 15.6733 174.123 15.8002 173.433 15.8002ZM182.909 6.89675V8.26039H178.142V6.89675H182.909ZM179.421 4.80584H181.119V13.0615C181.119 13.3911 181.169 13.6392 181.267 13.8058C181.366 13.9687 181.493 14.0805 181.648 14.1411C181.807 14.1979 181.979 14.2263 182.165 14.2263C182.301 14.2263 182.421 14.2168 182.523 14.1979C182.625 14.1789 182.705 14.1638 182.762 14.1524L183.068 15.5558C182.97 15.5937 182.83 15.6316 182.648 15.6695C182.466 15.7111 182.239 15.7339 181.966 15.7377C181.519 15.7452 181.102 15.6657 180.716 15.499C180.33 15.3324 180.017 15.0748 179.779 14.7263C179.54 14.3778 179.421 13.9403 179.421 13.4138V4.80584ZM191.188 9.02743L189.648 9.30016C189.584 9.10319 189.481 8.91569 189.341 8.73766C189.205 8.55963 189.019 8.4138 188.784 8.30016C188.549 8.18652 188.256 8.1297 187.904 8.1297C187.423 8.1297 187.021 8.23766 186.699 8.45357C186.377 8.66569 186.216 8.94031 186.216 9.27743C186.216 9.5691 186.324 9.80395 186.54 9.98198C186.756 10.16 187.104 10.3058 187.585 10.4195L188.972 10.7377C189.775 10.9233 190.373 11.2093 190.767 11.5956C191.161 11.982 191.358 12.4839 191.358 13.1013C191.358 13.624 191.207 14.0899 190.904 14.499C190.604 14.9043 190.186 15.2225 189.648 15.4536C189.114 15.6846 188.494 15.8002 187.79 15.8002C186.813 15.8002 186.015 15.5918 185.398 15.1752C184.78 14.7547 184.402 14.1581 184.262 13.3854L185.904 13.1354C186.006 13.5634 186.216 13.8873 186.534 14.107C186.852 14.3229 187.267 14.4308 187.779 14.4308C188.335 14.4308 188.78 14.3153 189.114 14.0843C189.447 13.8494 189.614 13.5634 189.614 13.2263C189.614 12.9536 189.512 12.7244 189.307 12.5388C189.106 12.3532 188.798 12.213 188.381 12.1183L186.904 11.7945C186.089 11.6089 185.487 11.3134 185.097 10.9081C184.71 10.5028 184.517 9.98955 184.517 9.36834C184.517 8.85319 184.661 8.40243 184.949 8.01607C185.237 7.62971 185.635 7.32857 186.142 7.11266C186.65 6.89296 187.231 6.78311 187.887 6.78311C188.83 6.78311 189.572 6.98766 190.114 7.39675C190.655 7.80205 191.013 8.34561 191.188 9.02743ZM194.345 15.732C194.035 15.732 193.768 15.6221 193.544 15.4024C193.321 15.1789 193.209 14.91 193.209 14.5956C193.209 14.285 193.321 14.0199 193.544 13.8002C193.768 13.5767 194.035 13.4649 194.345 13.4649C194.656 13.4649 194.923 13.5767 195.146 13.8002C195.37 14.0199 195.482 14.285 195.482 14.5956C195.482 14.8039 195.429 14.9952 195.323 15.1695C195.22 15.3399 195.084 15.4763 194.914 15.5786C194.743 15.6808 194.554 15.732 194.345 15.732ZM201.433 15.8002C200.589 15.8002 199.861 15.6089 199.252 15.2263C198.646 14.8399 198.18 14.3077 197.854 13.6297C197.528 12.9517 197.365 12.1752 197.365 11.3002C197.365 10.4138 197.532 9.6316 197.865 8.95357C198.199 8.27175 198.668 7.73955 199.274 7.35698C199.88 6.9744 200.594 6.78311 201.416 6.78311C202.079 6.78311 202.67 6.90622 203.189 7.15243C203.708 7.39486 204.127 7.73577 204.445 8.17516C204.767 8.61455 204.958 9.12781 205.019 9.71493H203.365C203.274 9.30584 203.066 8.95357 202.74 8.65811C202.418 8.36266 201.986 8.21493 201.445 8.21493C200.971 8.21493 200.557 8.33993 200.2 8.58993C199.848 8.83614 199.574 9.18842 199.377 9.64675C199.18 10.1013 199.081 10.6392 199.081 11.2604C199.081 11.8968 199.178 12.446 199.371 12.9081C199.564 13.3702 199.837 13.7282 200.189 13.982C200.545 14.2358 200.964 14.3627 201.445 14.3627C201.767 14.3627 202.058 14.3039 202.32 14.1865C202.585 14.0653 202.807 13.893 202.985 13.6695C203.166 13.446 203.293 13.1771 203.365 12.8627H205.019C204.958 13.4271 204.774 13.9308 204.468 14.374C204.161 14.8172 203.75 15.1657 203.235 15.4195C202.723 15.6733 202.123 15.8002 201.433 15.8002ZM210.512 15.8002C209.693 15.8002 208.979 15.6127 208.369 15.2377C207.76 14.8627 207.286 14.338 206.949 13.6638C206.612 12.9896 206.443 12.2017 206.443 11.3002C206.443 10.3949 206.612 9.60319 206.949 8.92516C207.286 8.24713 207.76 7.72061 208.369 7.34561C208.979 6.97061 209.693 6.78311 210.512 6.78311C211.33 6.78311 212.044 6.97061 212.654 7.34561C213.263 7.72061 213.737 8.24713 214.074 8.92516C214.411 9.60319 214.58 10.3949 214.58 11.3002C214.58 12.2017 214.411 12.9896 214.074 13.6638C213.737 14.338 213.263 14.8627 212.654 15.2377C212.044 15.6127 211.33 15.8002 210.512 15.8002ZM210.517 14.374C211.048 14.374 211.487 14.2339 211.835 13.9536C212.184 13.6733 212.441 13.3002 212.608 12.8343C212.779 12.3683 212.864 11.8551 212.864 11.2945C212.864 10.7377 212.779 10.2263 212.608 9.76039C212.441 9.29069 212.184 8.9138 211.835 8.6297C211.487 8.34561 211.048 8.20357 210.517 8.20357C209.983 8.20357 209.54 8.34561 209.188 8.6297C208.839 8.9138 208.58 9.29069 208.409 9.76039C208.243 10.2263 208.159 10.7377 208.159 11.2945C208.159 11.8551 208.243 12.3683 208.409 12.8343C208.58 13.3002 208.839 13.6733 209.188 13.9536C209.54 14.2339 209.983 14.374 210.517 14.374ZM216.476 15.624V6.89675H218.107V8.3172H218.215C218.396 7.83614 218.694 7.46114 219.107 7.19221C219.52 6.91948 220.014 6.78311 220.59 6.78311C221.173 6.78311 221.662 6.91948 222.056 7.19221C222.453 7.46493 222.747 7.83993 222.936 8.3172H223.027C223.235 7.8513 223.567 7.48008 224.021 7.20357C224.476 6.92327 225.018 6.78311 225.646 6.78311C226.438 6.78311 227.084 7.03122 227.584 7.52743C228.088 8.02364 228.34 8.77175 228.34 9.77175V15.624H226.641V9.93084C226.641 9.33993 226.48 8.9119 226.158 8.64675C225.836 8.3816 225.451 8.24902 225.004 8.24902C224.451 8.24902 224.021 8.41948 223.715 8.76039C223.408 9.09751 223.254 9.53122 223.254 10.0615V15.624H221.561V9.82289C221.561 9.3494 221.414 8.96872 221.118 8.68084C220.823 8.39296 220.438 8.24902 219.965 8.24902C219.643 8.24902 219.345 8.33425 219.073 8.5047C218.804 8.67137 218.586 8.90433 218.419 9.20357C218.256 9.50281 218.175 9.8494 218.175 10.2433V15.624H216.476Z" fill="#621C2D"/>
<path d="M10.6792 18.9574C15.5944 18.9574 19.579 15.2265 19.579 10.6241C19.579 6.02173 15.5944 2.29077 10.6792 2.29077C5.7639 2.29077 1.7793 6.02173 1.7793 10.6241C1.7793 15.2265 5.7639 18.9574 10.6792 18.9574Z" stroke="#621C2D" stroke-width="2" stroke-linecap="round" stroke-linejoin="round"/>
<path d="M1.7793 10.624H19.579" stroke="#621C2D" stroke-width="2" stroke-linecap="round" stroke-linejoin="round"/>
<path d="M10.6791 2.29077C12.9052 4.57273 14.1703 7.53413 14.239 10.6241C14.1703 13.7141 12.9052 16.6755 10.6791 18.9574C8.45298 16.6755 7.18789 13.7141 7.11914 10.6241C7.18789 7.53413 8.45298 4.57273 10.6791 2.29077Z" stroke="#621C2D" stroke-width="2" stroke-linecap="round" stroke-linejoin="round"/>
</svg>
